<svg width="269" height="358" viewBox="0 0 269 358" fill="none" xmlns="http://www.w3.org/2000/svg">
<path d="M135.258 2.02734C135.345 1.99575 135.406 1.96578 135.639 2.09082C135.94 2.2523 136.422 2.64005 137.103 3.49023L137.406 3.88379C152.946 26.2979 170.439 47.8758 187.767 69.417C205.128 90.9997 222.326 112.552 237.356 134.993H237.357C257.042 164.379 267.557 195.942 266.978 226.776C266.398 257.582 254.745 287.8 229.849 314.566C166.009 383.192 52.675 363.318 14.2998 278.924L13.8516 277.928C-10.3619 223.513 5.54463 175.953 34.4746 131.521C48.9532 109.285 66.637 87.924 84.1084 66.9404C101.507 46.0442 118.71 25.5032 132.127 4.99707C132.906 4.15789 133.479 3.50428 134.061 2.9375C134.669 2.3443 135.037 2.10777 135.258 2.02734Z" fill="#003A79" stroke="#6193C9" stroke-width="4"/>
</svg>
