<svg width="24" height="24" viewBox="0 0 24 24" fill="none" xmlns="http://www.w3.org/2000/svg">
<path d="M2.87817 2.19374H4.08755V1.55155C4.07349 0.693737 4.75786 -0.0140754 5.61567 -0.0281379C6.47349 -0.0422004 7.1813 0.642175 7.19536 1.49999V2.19374H10.4438V1.55155C10.4438 0.693737 11.1375 -1.2937e-05 11.9954 -1.2937e-05C12.8532 -1.2937e-05 13.5469 0.693737 13.5469 1.55155V2.18905H16.7954V1.55155C16.7813 0.693737 17.4657 -0.0140754 18.3235 -0.0281379C19.1813 -0.0422004 19.8891 0.642175 19.9032 1.49999V2.19374H21.1125C22.7016 2.19374 23.9954 3.4828 23.9954 5.07655V21.1125C23.9954 22.7062 22.7016 23.9953 21.1125 23.9953H2.88286C1.28911 23.9953 4.91142e-05 22.7015 4.91142e-05 21.1125V5.07655C-0.00463839 3.4828 1.28911 2.19374 2.87817 2.19374ZM6.30005 1.55155C6.30942 1.18592 6.02349 0.885925 5.65786 0.87655C5.29224 0.867175 4.99224 1.15311 4.98286 1.51874V4.6078C4.97349 4.97342 5.25942 5.27342 5.62505 5.2828C5.99067 5.29217 6.29067 5.00624 6.30005 4.64061C6.30005 4.62655 6.30005 4.61717 6.30005 4.60311V1.55155ZM12.6563 1.55155C12.6563 1.18592 12.361 0.890612 11.9954 0.890612C11.6297 0.890612 11.3344 1.18592 11.3344 1.55155V4.6078C11.3344 4.97342 11.6297 5.26874 11.9954 5.26874C12.361 5.26874 12.6563 4.97342 12.6563 4.6078V1.55155ZM19.0079 1.55155C19.0172 1.18592 18.7313 0.885925 18.3657 0.87655C18 0.867175 17.7 1.15311 17.6907 1.51874V4.6078C17.6813 4.97342 17.9672 5.27342 18.3329 5.2828C18.6985 5.29217 18.9985 5.00624 19.0079 4.64061C19.0079 4.63124 19.0079 4.61717 19.0079 4.6078V1.55155ZM23.1 5.07655C23.1 3.97967 22.2094 3.08905 21.1079 3.08436H19.8985V4.6078C19.9125 5.46561 19.2282 6.17342 18.3704 6.18749C17.5125 6.20155 16.8047 5.51717 16.7907 4.65936C16.7907 4.64061 16.7907 4.62186 16.7907 4.60311V3.08436H13.5422V4.6078C13.5422 5.46561 12.8485 6.15936 11.9907 6.15936C11.1329 6.15936 10.4391 5.46561 10.4391 4.6078V3.08436H7.19067V4.6078C7.20474 5.46561 6.52036 6.17342 5.66255 6.18749C4.80474 6.20155 4.09692 5.51717 4.08286 4.65936C4.08286 4.64061 4.08286 4.62186 4.08286 4.60311V3.08436H2.87349C1.77661 3.08436 0.885986 3.97499 0.881299 5.07655V7.89374H23.1V5.07655ZM0.890674 21.1172C0.890674 22.2141 1.7813 23.1047 2.88286 23.1094H21.1125C22.2094 23.1094 23.1 22.2187 23.1047 21.1172V8.78905H0.895362V21.1172H0.890674Z" fill="white"/>
<path d="M19.4157 15.1547H17.6438C16.7625 15.1547 16.05 14.4422 16.05 13.5609V11.789C16.05 10.9078 16.7625 10.1953 17.6438 10.2H19.4157C20.2969 10.2 21.0094 10.9125 21.0094 11.789V13.5609C21.0094 14.4422 20.2969 15.1547 19.4157 15.1547ZM20.1141 11.789C20.1141 11.4047 19.8 11.0906 19.4157 11.0906H17.6438C17.2594 11.0906 16.9454 11.4047 16.9454 11.789V13.5609C16.9454 13.9453 17.2594 14.2594 17.6438 14.2594H19.4157C19.8 14.2594 20.1141 13.9453 20.1141 13.5609V11.789Z" fill="white"/>
<path d="M12.8813 15.1547H11.1094C10.2282 15.1547 9.51567 14.4422 9.51567 13.5609V11.789C9.51567 10.9078 10.2282 10.1953 11.1094 10.2H12.8813C13.7625 10.2 14.475 10.9125 14.475 11.789V13.5609C14.475 14.4422 13.7625 15.1547 12.8813 15.1547ZM13.5797 11.789C13.5797 11.4047 13.2657 11.0906 12.8813 11.0906H11.1094C10.725 11.0906 10.411 11.4047 10.411 11.789V13.5609C10.411 13.9453 10.725 14.2594 11.1094 14.2594H12.8813C13.2657 14.2594 13.5797 13.9453 13.5797 13.5609V11.789Z" fill="white"/>
<path d="M6.34692 15.1547H4.57505C3.6938 15.1547 2.9813 14.4422 2.9813 13.5609V11.789C2.9813 10.9125 3.6938 10.2 4.57505 10.2H6.34692C7.22817 10.2 7.94067 10.9125 7.94067 11.789V13.5609C7.94067 14.4422 7.22817 15.1547 6.34692 15.1547ZM7.04536 11.789C7.04536 11.4047 6.7313 11.0906 6.34692 11.0906H4.57505C4.19067 11.0906 3.87661 11.4047 3.87661 11.789V13.5609C3.87661 13.9453 4.19067 14.2594 4.57505 14.2594H6.34692C6.7313 14.2594 7.04536 13.9453 7.04536 13.5609V11.789Z" fill="white"/>
<path d="M19.4157 21.2484H17.6438C16.7625 21.2484 16.05 20.5359 16.05 19.6547V17.8828C16.05 17.0016 16.7625 16.2891 17.6438 16.2891H19.4157C20.2969 16.2891 21.0094 17.0016 21.0094 17.8828V19.6547C21.0094 20.5359 20.2969 21.2484 19.4157 21.2484ZM20.1141 17.8828C20.1141 17.4984 19.8 17.1844 19.4157 17.1844H17.6438C17.2594 17.1844 16.9454 17.4984 16.9454 17.8828V19.6547C16.9454 20.039 17.2594 20.3531 17.6438 20.3531H19.4157C19.8 20.3531 20.1141 20.039 20.1141 19.6547V17.8828Z" fill="white"/>
<path d="M12.8813 21.2484H11.1094C10.2282 21.2484 9.51567 20.5359 9.51567 19.6547V17.8828C9.51567 17.0016 10.2282 16.2891 11.1094 16.2891H12.8813C13.7625 16.2891 14.475 17.0016 14.475 17.8828V19.6547C14.475 20.5359 13.7625 21.2484 12.8813 21.2484ZM13.5797 17.8828C13.5797 17.4984 13.2657 17.1844 12.8813 17.1844H11.1094C10.725 17.1844 10.411 17.4984 10.411 17.8828V19.6547C10.411 20.039 10.725 20.3531 11.1094 20.3531H12.8813C13.2657 20.3531 13.5797 20.039 13.5797 19.6547V17.8828Z" fill="white"/>
<path d="M6.34692 21.2484H4.57505C3.69849 21.2484 2.98599 20.5359 2.9813 19.6547V17.8828C2.9813 17.0016 3.6938 16.2891 4.57505 16.2891H6.34692C7.22817 16.2891 7.94067 17.0016 7.94067 17.8828V19.6547C7.94067 20.5359 7.22349 21.2484 6.34692 21.2484ZM7.04536 17.8828C7.04536 17.4984 6.7313 17.1844 6.34692 17.1844H4.57505C4.19067 17.1844 3.87661 17.4984 3.87661 17.8828V19.6547C3.87661 20.039 4.19067 20.3531 4.57505 20.3531H6.34692C6.7313 20.3531 7.04536 20.039 7.04536 19.6547V17.8828Z" fill="white"/>
</svg>
