<svg width="24" height="24" viewBox="0 0 24 24" fill="none" xmlns="http://www.w3.org/2000/svg">
<path fill-rule="evenodd" clip-rule="evenodd" d="M12 0C18.6213 0 24 5.3787 24 12C24 18.6213 18.6213 24 12 24C5.3787 24 0 18.6213 0 12C0 5.3787 5.3787 0 12 0ZM12 1.03134C5.93603 1.03134 1.03125 5.93603 1.03125 12C1.03125 18.064 5.93603 22.9688 12 22.9688C18.064 22.9688 22.9688 18.064 22.9688 12C22.9688 5.93603 18.064 1.03134 12 1.03134Z" fill="white"/>
<path fill-rule="evenodd" clip-rule="evenodd" d="M11.9999 18.375C12.1367 18.375 12.2678 18.4293 12.3645 18.526C12.4612 18.6227 12.5155 18.7539 12.5155 18.8906V21.1875C12.5155 21.3243 12.4612 21.4554 12.3645 21.5521C12.2678 21.6488 12.1367 21.7031 11.9999 21.7031C11.8632 21.7031 11.732 21.6488 11.6353 21.5521C11.5386 21.4554 11.4843 21.3243 11.4843 21.1875V18.8906C11.4843 18.7539 11.5386 18.6227 11.6353 18.526C11.732 18.4293 11.8632 18.375 11.9999 18.375Z" fill="white"/>
<path fill-rule="evenodd" clip-rule="evenodd" d="M21.1872 11.4846C21.324 11.4846 21.4551 11.5389 21.5518 11.6356C21.6485 11.7323 21.7028 11.8634 21.7029 12.0002C21.7028 12.1369 21.6485 12.2681 21.5518 12.3648C21.4551 12.4615 21.324 12.5158 21.1872 12.5158H18.8904C18.8227 12.5158 18.7557 12.5025 18.6931 12.4766C18.6305 12.4507 18.5737 12.4127 18.5258 12.3648C18.4779 12.3169 18.4399 12.2601 18.414 12.1975C18.3881 12.135 18.3747 12.0679 18.3747 12.0002C18.3747 11.9325 18.3881 11.8654 18.414 11.8028C18.4399 11.7403 18.4779 11.6834 18.5258 11.6355C18.5737 11.5877 18.6305 11.5497 18.6931 11.5238C18.7557 11.4979 18.8227 11.4845 18.8904 11.4846H21.1872Z" fill="white"/>
<path fill-rule="evenodd" clip-rule="evenodd" d="M11.9999 2.29715C12.1367 2.29715 12.2678 2.35148 12.3645 2.44817C12.4612 2.54487 12.5155 2.67602 12.5155 2.81277V5.10965C12.5155 5.2464 12.4612 5.37755 12.3645 5.47425C12.2678 5.57095 12.1367 5.62527 11.9999 5.62527C11.8632 5.62527 11.732 5.57095 11.6353 5.47425C11.5386 5.37755 11.4843 5.2464 11.4843 5.10965V2.81277C11.4843 2.67602 11.5386 2.54487 11.6353 2.44817C11.732 2.35148 11.8632 2.29715 11.9999 2.29715Z" fill="white"/>
<path fill-rule="evenodd" clip-rule="evenodd" d="M5.10938 11.4845C5.24613 11.4845 5.37728 11.5388 5.47398 11.6355C5.57067 11.7322 5.625 11.8633 5.625 12.0001C5.625 12.1368 5.57067 12.268 5.47398 12.3647C5.37728 12.4614 5.24613 12.5157 5.10938 12.5157H2.8125C2.67575 12.5157 2.5446 12.4614 2.4479 12.3647C2.3512 12.268 2.29688 12.1368 2.29688 12.0001C2.29688 11.8633 2.3512 11.7322 2.4479 11.6355C2.5446 11.5388 2.67575 11.4845 2.8125 11.4845H5.10938Z" fill="white"/>
<path fill-rule="evenodd" clip-rule="evenodd" d="M6.25772 5.74237C6.32545 5.74237 6.39251 5.75571 6.45507 5.78163C6.51764 5.80755 6.57449 5.84554 6.62238 5.89343L12 11.2709L15.0807 8.19039C15.1285 8.1425 15.1854 8.10452 15.2479 8.07861C15.3105 8.0527 15.3776 8.03936 15.4453 8.03936C15.513 8.03936 15.58 8.0527 15.6426 8.07861C15.7052 8.10452 15.762 8.1425 15.8099 8.19039C15.8578 8.23827 15.8957 8.29511 15.9217 8.35767C15.9476 8.42023 15.9609 8.48728 15.9609 8.55499C15.9609 8.62271 15.9476 8.68976 15.9217 8.75232C15.8957 8.81488 15.8578 8.87172 15.8099 8.9196L12.3646 12.3648C12.2679 12.4615 12.1367 12.5158 12 12.5158C11.8632 12.5158 11.7321 12.4615 11.6353 12.3648L5.89316 6.62265C5.84528 6.57477 5.80729 6.51792 5.78138 6.45536C5.75547 6.3928 5.74213 6.32575 5.74213 6.25804C5.74213 6.19032 5.75547 6.12327 5.78138 6.06071C5.80729 5.99816 5.84528 5.94131 5.89316 5.89343C5.98984 5.79673 6.12098 5.74239 6.25772 5.74237Z" fill="white"/>
</svg>
