<svg width="32" height="32" viewBox="0 0 32 32" fill="none" xmlns="http://www.w3.org/2000/svg">
<path d="M5.31999 7.97999L13.4431 14.1143L13.4459 14.1166C14.3478 14.778 14.7991 15.1089 15.2933 15.2368C15.7302 15.3498 16.1894 15.3498 16.6263 15.2368C17.121 15.1088 17.5736 14.7769 18.4771 14.1143C18.4771 14.1143 23.6874 10.1159 26.6 7.97999M3.98999 21.0143V10.9063C3.98999 9.41651 3.98999 8.67109 4.27991 8.10208C4.53494 7.60157 4.94157 7.19494 5.44208 6.93992C6.01109 6.64999 6.75651 6.64999 8.24625 6.64999H23.6742C25.164 6.64999 25.9078 6.64999 26.4768 6.93992C26.9773 7.19494 27.3853 7.60157 27.6404 8.10208C27.93 8.67053 27.93 9.41506 27.93 10.9019V21.0188C27.93 22.5056 27.93 23.249 27.6404 23.8175C27.3853 24.318 26.9773 24.7253 26.4768 24.9804C25.9084 25.27 25.1649 25.27 23.6781 25.27H8.24188C6.75505 25.27 6.01053 25.27 5.44208 24.9804C4.94157 24.7253 4.53494 24.318 4.27991 23.8175C3.98999 23.2485 3.98999 22.504 3.98999 21.0143Z" stroke="#003A79" stroke-width="2.78667" stroke-linecap="round" stroke-linejoin="round"/>
</svg>
