<svg width="58" height="58" viewBox="0 0 58 58" fill="none" xmlns="http://www.w3.org/2000/svg">
<path fill-rule="evenodd" clip-rule="evenodd" d="M42.7871 44.9863H16.6508C15.9742 44.9863 15.9742 43.9713 16.6508 43.9713H42.7871C43.4638 43.9713 43.4638 44.9863 42.7871 44.9863ZM35.7667 36.6971L14.8746 36.6125C11.2375 36.6125 8.36168 39.5729 8.36168 43.1254C8.36168 46.6779 11.2375 49.6383 14.8746 49.6383H49.6383V47.9467H14.8746C12.1679 47.9467 10.0533 45.8321 10.0533 43.1254C10.0533 40.5033 12.1679 38.3042 14.8746 38.3042H49.6383V36.6125L35.7667 36.6971ZM30.3533 35.5975C25.1092 33.5675 21.3029 28.4925 21.1338 22.4871H18.0042V24.1788C18.0042 24.5171 17.7504 24.6863 17.4967 24.6863H10.3071C8.86918 24.6863 7.60043 23.5021 7.60043 21.9796C7.60043 20.5417 8.86918 19.2729 10.3071 19.2729H17.4967C17.7504 19.2729 18.0042 19.5267 18.0042 19.7804V21.4721H21.1338C21.3875 13.6904 27.8158 7.34668 35.7667 7.34668C43.8021 7.34668 50.3996 13.9442 50.3996 21.9796C50.3996 28.1542 46.5088 33.4829 41.0954 35.5975H50.1458C50.3996 35.5975 50.6533 35.8513 50.6533 36.105C50.6533 36.8663 50.7379 38.4733 50.6533 38.9808L50.4842 39.2346H50.3996V39.3192H50.1458C48.0313 39.3192 46.3396 41.0108 46.3396 43.1254C46.3396 45.24 48.0313 46.9317 50.1458 46.9317C50.3996 46.9317 50.6533 47.1854 50.6533 47.4392V50.1458C50.6533 50.3996 50.3996 50.6533 50.1458 50.6533H14.8746C10.73 50.6533 7.34668 47.27 7.34668 43.1254C7.34668 38.9808 10.73 35.5975 14.8746 35.5975H30.3533ZM35.7667 8.36168C28.2388 8.36168 22.0642 14.4517 22.0642 21.9796C22.0642 29.5921 28.2388 35.6821 36.0204 35.5975C43.3792 35.5129 49.3846 29.4229 49.3846 21.9796C49.3846 14.4517 43.2946 8.36168 35.7667 8.36168ZM35.7667 33.9904C29.1692 33.9904 23.7558 28.5771 23.7558 21.9796C23.7558 15.3821 29.1692 10.0533 35.7667 10.0533C42.3642 10.0533 47.6929 15.3821 47.6929 21.9796C47.6929 28.5771 42.3642 33.9904 35.7667 33.9904ZM35.7667 11.0683C29.6767 11.0683 24.7708 15.9742 24.7708 21.9796C24.7708 28.0696 29.6767 32.9754 35.7667 32.9754C41.7721 32.9754 46.6779 28.0696 46.6779 21.9796C46.6779 15.9742 41.7721 11.0683 35.7667 11.0683ZM10.3071 20.2879C8.10793 20.2879 8.10793 23.6713 10.3071 23.6713H16.9892V20.2879H10.3071ZM36.9508 30.9454H34.4979C34.3288 30.9454 34.075 30.7763 34.075 30.6071L33.5675 28.5771C32.6371 28.2388 31.8758 27.8158 31.1992 27.2238L29.1692 27.7313C28.9154 27.8158 28.6617 27.7313 28.5771 27.5621L27.3929 25.4475C27.2238 25.2783 27.3083 25.0246 27.4775 24.8554L28.9154 23.3329C28.7463 22.4871 28.7463 21.5567 28.9154 20.6263L27.4775 19.1883C27.3083 19.0192 27.2238 18.7654 27.3929 18.5963L28.5771 16.4817C28.6617 16.3125 28.9154 16.1433 29.1692 16.2279L31.1992 16.82C31.8758 16.2279 32.6371 15.7204 33.5675 15.4667L34.075 13.4367C34.075 13.1829 34.3288 13.0138 34.4979 13.0138H36.9508C37.2046 13.0138 37.3738 13.1829 37.4583 13.4367L37.9658 15.4667C38.8117 15.7204 39.6575 16.2279 40.3342 16.82L42.3642 16.2279C42.5333 16.1433 42.7871 16.3125 42.8717 16.4817L44.1404 18.5963C44.225 18.7654 44.225 19.0192 44.0558 19.1883L42.5333 20.6263C42.7025 21.5567 42.7025 22.4871 42.5333 23.3329L44.0558 24.8554C44.225 25.0246 44.225 25.2783 44.1404 25.4475L42.8717 27.5621C42.7871 27.7313 42.5333 27.8158 42.3642 27.7313L40.3342 27.2238C39.6575 27.8158 38.8117 28.2388 37.9658 28.5771L37.4583 30.6071C37.3738 30.7763 37.2046 30.9454 36.9508 30.9454ZM34.9208 29.9304H36.5279L37.0354 28.0696C37.2046 27.3929 38.2196 27.8158 39.8267 26.2933C39.9958 26.1242 40.165 26.1242 40.3342 26.1242L42.195 26.7163L43.0408 25.2783C40.6725 22.9946 41.6875 24.2633 41.6875 21.9796C41.6875 19.7804 40.6725 20.9646 43.0408 18.7654L42.195 17.3275L40.3342 17.835C39.6575 18.0042 39.4883 16.9046 37.3738 16.3125C37.2046 16.3125 37.12 16.1433 37.0354 15.9742L36.5279 14.0288H34.9208L34.4133 15.9742C34.2442 16.5663 33.3138 16.1433 31.6221 17.7504C31.5375 17.835 31.3683 17.9196 31.1146 17.835L29.2538 17.3275L28.4925 18.7654C30.7763 20.9646 29.8458 19.7804 29.8458 21.9796C29.8458 24.2633 30.7763 22.9946 28.4925 25.2783L29.2538 26.7163L31.1146 26.1242C31.7913 25.955 31.9604 27.0546 34.075 27.6467C34.2442 27.7313 34.4133 27.9004 34.4133 28.0696L34.9208 29.9304ZM35.7667 25.7013C33.7367 25.7013 32.045 24.0096 32.045 21.9796C32.045 19.9496 33.7367 18.3425 35.7667 18.3425C37.7121 18.3425 39.4038 19.9496 39.4038 21.9796C39.4038 24.0096 37.7121 25.7013 35.7667 25.7013ZM35.7667 19.3575C34.2442 19.3575 33.06 20.5417 33.06 21.9796C33.06 23.5021 34.2442 24.6863 35.7667 24.6863C37.2046 24.6863 38.3888 23.5021 38.3888 21.9796C38.3888 20.5417 37.2046 19.3575 35.7667 19.3575ZM14.8746 39.3192C12.76 39.3192 11.0683 41.0108 11.0683 43.1254C11.0683 45.24 12.76 46.9317 14.8746 46.9317H47.1854C44.7325 44.9863 44.7325 41.2646 47.1854 39.3192H14.8746ZM42.7871 42.2796H22.8254C22.1488 42.2796 22.1488 41.2646 22.8254 41.2646H42.7871C43.4638 41.2646 43.4638 42.2796 42.7871 42.2796Z" fill="#003A79"/>
</svg>
