<svg width="51" height="51" viewBox="0 0 51 51" fill="none" xmlns="http://www.w3.org/2000/svg">
<g clip-path="url(#clip0_4207_563)">
<path d="M4.64316 42.9422C4.61898 42.9422 4.59469 42.9406 4.57007 42.9373C4.27338 42.8973 4.06517 42.6243 4.10519 42.3276L4.60445 38.6245C4.64435 38.3278 4.9174 38.1195 5.2142 38.1596C5.51089 38.1996 5.7191 38.4726 5.67909 38.7693L5.17983 42.4725C5.14317 42.7445 4.91046 42.9422 4.64316 42.9422Z" fill="#003A79"/>
<path d="M46.1068 42.9422C45.8395 42.9422 45.6068 42.7446 45.5701 42.4723L45.0709 38.7692C45.0309 38.4725 45.2391 38.1995 45.5357 38.1595C45.8343 38.1191 46.1056 38.3277 46.1455 38.6244L46.6448 42.3275C46.6848 42.6242 46.4766 42.8972 46.1799 42.9372C46.1554 42.9407 46.1309 42.9422 46.1068 42.9422Z" fill="#003A79"/>
<path d="M25.375 3.38148C25.0755 3.38148 24.8328 3.13869 24.8328 2.83928V0.5422C24.8328 0.242797 25.0755 0 25.375 0C25.6745 0 25.9172 0.242797 25.9172 0.5422V2.83928C25.9172 3.13869 25.6744 3.38148 25.375 3.38148Z" fill="#003A79"/>
<path d="M17.9387 6.45391C17.8002 6.45391 17.6615 6.40121 17.5558 6.29559L15.9274 4.67127C15.7154 4.45981 15.715 4.11649 15.9264 3.90449C16.1379 3.69249 16.4813 3.69205 16.6932 3.90351L18.3216 5.52783C18.6442 5.84958 18.3943 6.45391 17.9387 6.45391Z" fill="#003A79"/>
<path d="M14.8585 13.8716H12.5557C12.2562 13.8716 12.0135 13.6288 12.0135 13.3294C12.0135 13.03 12.2562 12.7872 12.5557 12.7872H14.8585C15.158 12.7872 15.4007 13.03 15.4007 13.3294C15.4007 13.6288 15.158 13.8716 14.8585 13.8716Z" fill="#003A79"/>
<path d="M38.1943 13.8716H35.8914C35.5919 13.8716 35.3492 13.6288 35.3492 13.3294C35.3492 13.03 35.5919 12.7872 35.8914 12.7872H38.1943C38.4938 12.7872 38.7365 13.03 38.7365 13.3294C38.7365 13.6288 38.4938 13.8716 38.1943 13.8716Z" fill="#003A79"/>
<path d="M32.8113 6.45391C32.3556 6.45391 32.1059 5.84947 32.4284 5.52783L34.0567 3.90351C34.2687 3.69205 34.6122 3.6926 34.8235 3.90449C35.035 4.11649 35.0345 4.45981 34.8225 4.67127L33.1942 6.29559C33.0885 6.4011 32.9498 6.45391 32.8113 6.45391Z" fill="#003A79"/>
<path d="M50.7455 42.3306L49.6269 33.6589C49.4089 31.9686 48.3034 30.4945 46.7417 29.8119C46.1399 29.5488 45.5173 29.3329 44.8814 29.1635C45.5456 28.5687 46.0618 27.7963 46.3557 26.9034C47.1454 26.7699 47.7497 26.0679 47.7497 25.2244C47.7497 24.6883 47.4371 24.116 46.9861 23.8226C47.5878 20.768 45.5193 18.0389 42.6468 17.1565C41.4144 16.7778 40.3086 16.8502 39.6125 17.3544C39.3225 17.5644 39.1018 17.8494 38.9286 18.1432C38.9209 18.1389 38.9129 18.1346 38.9049 18.1305C38.7806 18.067 38.5764 18.0128 38.3102 18.1163C36.3688 18.8696 35.7582 22.1017 36.0122 23.8245C35.5754 24.1315 35.2909 24.6442 35.2909 25.2245C35.2909 26.068 35.895 26.77 36.6848 26.9035C36.9788 27.7965 37.4951 28.569 38.1594 29.1638C37.2403 29.4084 36.2057 29.7496 35.4236 30.3089L35.2944 29.3183C35.0732 27.6229 33.9609 26.1484 32.3914 25.4702C31.6446 25.1473 30.8702 24.8763 30.0801 24.6585C30.2712 24.3436 30.3833 23.9756 30.3833 23.581C30.3833 22.7499 29.8936 22.033 29.1885 21.698C29.446 20.8285 29.9431 20.0454 30.6191 19.4582C32.3835 17.9257 33.3955 15.7041 33.3955 13.3633C33.3955 8.95627 29.8263 5.34273 25.4391 5.30814C21.0612 5.27333 17.3808 8.94315 17.3546 13.3138C17.3405 15.6528 18.3374 17.8791 20.0893 19.4219C20.7836 20.0333 21.2934 20.8297 21.5569 21.7C20.8543 22.036 20.3666 22.7517 20.3666 23.5809C20.3666 23.9756 20.4789 24.3437 20.67 24.6587C19.8797 24.8762 19.1054 25.1472 18.3585 25.4699C16.7891 26.1482 15.6768 27.6228 15.4556 29.318L15.3262 30.3093C15.0538 30.1143 14.7619 29.9476 14.4511 29.8118C13.8491 29.5486 13.2264 29.3329 12.5903 29.1636C13.2547 28.5688 13.7711 27.7965 14.0652 26.9034C14.8549 26.7699 15.4591 26.0679 15.4591 25.2244C15.4591 24.6286 15.1587 24.1046 14.702 23.8007C15.2914 20.7537 13.2212 18.0361 10.3582 17.1565C9.12585 16.7778 8.01998 16.8502 7.3239 17.3544C7.03383 17.5646 6.81315 17.8494 6.63997 18.1432C6.63227 18.1389 6.62436 18.1346 6.61633 18.1306C6.49206 18.067 6.28787 18.013 6.02165 18.1163C4.07179 18.8727 3.4668 22.1198 3.72673 23.8467C3.29655 24.1421 3.0004 24.7065 3.0004 25.2245C3.0004 26.068 3.60463 26.77 4.3944 26.9035C4.68827 27.7965 5.20466 28.5688 5.86896 29.1636C5.23296 29.333 4.6103 29.5488 4.00835 29.812C2.44671 30.4946 1.34105 31.9686 1.1232 33.659L0.00453192 42.3306C-0.0338558 42.6276 0.175867 42.8994 0.472884 42.9378C0.496415 42.9408 0.519839 42.9423 0.542936 42.9423C0.811542 42.9423 1.0448 42.7429 1.08004 42.4694L2.19871 33.7977C2.3682 32.483 3.22802 31.3365 4.44276 30.8056C5.23773 30.4581 6.07131 30.1979 6.92571 30.0302V31.2008C6.92571 32.4713 7.95925 33.5048 9.22963 33.5048C10.5001 33.5048 11.5336 32.4713 11.5336 31.2008V30.0302C12.3882 30.1979 13.2217 30.4582 14.0166 30.8056C14.4445 30.9927 14.8278 31.2539 15.16 31.5828L14.0457 40.1228H8.09806C7.79854 40.1228 7.55586 40.3656 7.55586 40.665V45.4106C7.55586 45.71 7.79854 45.9528 8.09806 45.9528H9.85337V50.2077C9.85337 50.5071 10.0961 50.7499 10.3956 50.7499C10.6951 50.7499 10.9378 50.5071 10.9378 50.2077V45.9528H39.8122V50.2077C39.8122 50.5071 40.0549 50.7499 40.3544 50.7499C40.6539 50.7499 40.8966 50.5071 40.8966 50.2077V45.9528H42.6519C42.9514 45.9528 43.1941 45.71 43.1941 45.4106V40.665C43.1941 40.3656 42.9514 40.1228 42.6519 40.1228H36.7042L35.5899 31.5828C36.5092 30.6726 37.9811 30.2726 39.2162 30.0302C39.2162 30.3828 39.2971 30.8589 39.2162 31.2008C39.2162 32.4713 40.2497 33.5048 41.5202 33.5048C42.7906 33.5048 43.8241 32.4713 43.8241 31.2008V30.0302C44.6786 30.1979 45.5122 30.4582 46.3071 30.8056C47.5218 31.3365 48.3816 32.483 48.5511 33.7977L49.6698 42.4694C49.705 42.7429 49.9383 42.9423 50.2069 42.9423C50.23 42.9423 50.2534 42.9408 50.277 42.9378C50.5742 42.8994 50.7838 42.6276 50.7455 42.3306ZM5.02172 21.1532C5.24619 20.5526 5.59591 20.008 5.89727 19.6333C5.92546 19.8615 6.0249 20.076 6.3089 20.1677C6.85631 20.3441 7.08273 19.7899 7.23292 19.423C7.38669 19.0474 7.61897 18.4797 7.9599 18.2328C8.36568 17.939 9.16283 17.9237 10.0398 18.1932C12.3531 18.9039 14.0949 21.0497 13.65 23.5254H13.2182C12.8514 23.5254 12.5374 23.2635 12.4714 22.9028L12.2328 21.597C12.0919 21.1931 11.8226 21.0697 11.4248 21.2269C9.31464 22.466 7.31425 23.5324 4.77849 23.5229C4.67255 22.6688 4.75247 21.8732 5.02172 21.1532ZM10.4494 31.2007C10.4494 31.8732 9.90217 32.4203 9.22973 32.4203C8.5573 32.4203 8.01022 31.8732 8.01022 31.2007V30.3049C8.80779 30.505 9.65178 30.505 10.4494 30.3049V31.2007ZM9.22973 29.3711C7.38691 29.3711 5.78449 28.0856 5.33295 26.2453C5.27276 26.0003 5.05328 25.8322 4.80669 25.8322C3.85328 25.8322 3.89818 24.6146 4.93215 24.6168C7.26328 24.603 9.34652 23.7477 11.3053 22.5546L11.4045 23.0978C11.5648 23.974 12.3274 24.6098 13.218 24.6098H13.8293C14.136 24.6303 14.3747 24.8981 14.3747 25.2244C14.3747 25.5648 14.1132 25.8418 13.7919 25.8418C13.5087 25.8418 13.208 25.913 13.1266 26.2451C12.675 28.0857 11.0726 29.3711 9.22973 29.3711ZM20.8061 18.6082C19.2897 17.2729 18.427 15.3454 18.4391 13.3203C18.4617 9.55172 21.6484 6.35729 25.4308 6.39253C29.2246 6.42246 32.3112 9.54955 32.3112 13.3633C32.3112 15.3899 31.4353 17.313 29.908 18.6395C29.0492 19.3856 28.4262 20.387 28.12 21.4951H25.9172V17.1774C27.8091 16.9133 29.2701 15.2887 29.2701 13.3293C29.2701 11.1862 27.5228 9.44273 25.375 9.44273C23.2273 9.44273 21.48 11.1862 21.48 13.3293C21.48 15.2888 22.941 16.9133 24.8328 17.1774V21.4951H22.6273C22.3157 20.3902 21.6803 19.3782 20.8061 18.6082ZM25.375 16.1316C23.8252 16.1316 22.5644 14.8746 22.5644 13.3294C22.5644 11.7843 23.8252 10.5272 25.375 10.5272C26.9249 10.5272 28.1857 11.7843 28.1857 13.3294C28.1857 14.8746 26.9249 16.1316 25.375 16.1316ZM22.4525 22.5796H28.2974C28.8497 22.5796 29.2988 23.0288 29.2988 23.581C29.2988 24.1332 28.8496 24.5825 28.2974 24.5825H22.4525C21.9002 24.5825 21.451 24.1332 21.451 23.581C21.451 23.0288 21.9003 22.5796 22.4525 22.5796ZM26.0541 27.5157H24.6959C24.1218 27.0552 23.7159 26.4099 23.7162 25.667H27.0338V25.8397C27.0338 26.4935 26.5554 27.1276 26.0541 27.5157ZM26.6505 34.2689L25.3749 36.1773L24.0993 34.2689L24.9327 28.6001H25.817L26.6505 34.2689ZM42.1097 41.2072V44.8684H8.64026V41.2072H42.1097ZM33.0306 40.1228L32.4707 36.0177C32.4302 35.7211 32.1575 35.5133 31.8602 35.5538C31.5635 35.5942 31.3558 35.8676 31.3963 36.1643L31.9362 40.1229H18.9516L19.4915 36.1643C19.532 35.8676 19.3243 35.5942 19.0276 35.5538C18.7298 35.5132 18.4575 35.7211 18.4171 36.0177L17.8572 40.1228H15.1395L16.531 29.4585C16.703 28.1399 17.568 26.9931 18.7887 26.4655C19.7183 26.0638 20.6932 25.7468 21.6889 25.5201C21.9258 25.6137 22.1829 25.667 22.4526 25.667H22.6318C22.6102 26.6913 23.1271 27.5831 23.8894 28.2414L22.9962 34.3179C22.9767 34.4508 23.0072 34.5863 23.0819 34.698L24.9241 37.4544C25.2246 37.7756 25.5252 37.7756 25.8257 37.4544L27.668 34.698C27.7426 34.5863 27.7732 34.4508 27.7537 34.3179L26.8604 28.2414C27.6191 27.5699 28.144 26.7069 28.118 25.667C28.438 25.6783 28.7524 25.6293 29.061 25.5201C30.0567 25.7469 31.0317 26.0639 31.9612 26.4655C33.1819 26.9931 34.047 28.1398 34.219 29.4585L35.6105 40.1227H33.0306V40.1228ZM37.3104 21.1532C37.5348 20.5527 37.8846 20.008 38.1859 19.6333C38.214 19.8615 38.3134 20.0761 38.5975 20.1677C39.1434 20.3445 39.3715 19.79 39.5215 19.4232C40.0747 18.0714 40.939 17.7664 42.3284 18.1933C44.6143 18.8956 46.3589 21.0083 45.9498 23.4605L43.765 21.4874C43.4241 21.1795 42.8622 21.4272 42.8593 21.8865C42.8538 22.7951 42.1115 23.5324 41.2029 23.5324H41.1985L37.066 23.5258C36.9597 22.6702 37.0409 21.8739 37.3104 21.1532ZM42.7397 31.2007C42.7397 31.8732 42.1927 32.4203 41.5202 32.4203C40.8478 32.4203 40.3006 31.8732 40.3006 31.2007V30.3049C41.0982 30.505 41.9422 30.505 42.7397 30.3049V31.2007ZM41.5202 29.3711C39.6774 29.3711 38.075 28.0856 37.6232 26.2453C37.5386 25.9 37.2502 25.842 36.9579 25.842C36.6366 25.842 36.3752 25.565 36.3752 25.2246C36.3752 24.8985 36.6136 24.6306 36.9202 24.61L41.1961 24.6168H41.2032C42.3419 24.6168 43.3232 23.916 43.7358 22.9224L45.4572 24.4772C45.5746 24.5831 45.7321 24.6325 45.8887 24.6127C46.3479 24.5899 46.6067 24.7939 46.6649 25.2248C46.6649 25.5651 46.4035 25.8421 46.0821 25.8421C45.7987 25.8421 45.4982 25.9132 45.4167 26.2454C44.9656 28.0857 43.3632 29.3711 41.5202 29.3711Z" fill="#003A79"/>
</g>
<defs>
<clipPath id="clip0_4207_563">
<rect width="50.75" height="50.75" fill="white"/>
</clipPath>
</defs>
</svg>
