<svg width="58" height="58" viewBox="0 0 58 58" fill="none" xmlns="http://www.w3.org/2000/svg">
<path d="M29.7584 53.4329H11.4808C11.0686 53.4329 10.7344 53.0991 10.7344 52.6866V12.0119C10.7344 11.5994 11.0686 11.2656 11.4808 11.2656H39.5426C39.9548 11.2656 40.2889 11.5994 40.2889 12.0119V27.082C40.2889 27.4945 39.9548 27.8283 39.5426 27.8283C39.1304 27.8283 38.7963 27.4945 38.7963 27.082V12.7583H12.2271V51.9402H29.7584C30.1706 51.9402 30.5047 52.274 30.5047 52.6866C30.5047 53.0991 30.1706 53.4329 29.7584 53.4329Z" fill="#003A79"/>
<path d="M11.4844 53.4329H8.66346C6.29731 53.4329 4.3721 51.508 4.3721 49.1415V8.4669C4.3721 8.05438 4.70627 7.72057 5.11842 7.72057C5.53058 7.72057 5.86475 8.05438 5.86475 8.4669C5.86475 10.0098 7.12016 11.2656 8.66346 11.2656H11.4844C11.8966 11.2656 12.2307 11.5994 12.2307 12.0119V52.6866C12.2307 53.0991 11.8966 53.4329 11.4844 53.4329ZM5.86475 11.7175V49.1415C5.86475 50.6845 7.12016 51.9402 8.66346 51.9402H10.7381V12.7583H8.66346C7.59499 12.7583 6.61654 12.3654 5.86475 11.7175Z" fill="#003A79"/>
<path d="M39.5462 12.7583H8.66346C6.29731 12.7583 4.3721 10.8334 4.3721 8.4669C4.3721 6.10038 6.29731 4.17554 8.66346 4.17554H39.5462C39.8206 4.17554 40.0728 4.32568 40.2029 4.56765C40.3334 4.80889 40.3206 5.10188 40.1701 5.33146C38.7861 7.4407 38.7861 9.49236 40.1701 11.6023C40.3206 11.8319 40.3334 12.1249 40.2029 12.3669C40.0728 12.6081 39.8206 12.7583 39.5462 12.7583ZM8.66346 5.66818C7.12016 5.66818 5.86475 6.92396 5.86475 8.4669C5.86475 10.0098 7.12016 11.2656 8.66346 11.2656H38.2763C37.4162 9.40417 37.4159 7.52962 38.2763 5.66818H8.66346Z" fill="#003A79"/>
<path d="M34.322 25.1243H16.7087C16.2965 25.1243 15.9623 24.7905 15.9623 24.378V16.9148C15.9623 16.5023 16.2965 16.1685 16.7087 16.1685H34.322C34.7341 16.1685 35.0683 16.5023 35.0683 16.9148V24.378C35.0683 24.7905 34.7341 25.1243 34.322 25.1243ZM17.455 23.6317H33.5757V17.6611H17.455V23.6317Z" fill="#003A79"/>
<path d="M25.5126 45.778C25.1004 45.778 24.7663 45.4442 24.7663 45.0316C24.7663 42.8561 25.7232 40.706 27.4604 38.9772C28.1367 38.3045 28.4097 37.3738 28.2093 36.4241C27.991 35.3907 27.1495 34.5489 26.1157 34.3309C25.2666 34.1538 24.4401 34.3484 23.7823 34.8812C23.1311 35.4089 22.7576 36.1917 22.7576 37.0276C22.7576 37.4401 22.4234 37.7739 22.0113 37.7739C21.5991 37.7739 21.265 37.4401 21.265 37.0276C21.265 35.7398 21.84 34.5343 22.8422 33.7216C23.8417 32.9112 25.1482 32.6029 26.424 32.8704C28.0271 33.2085 29.3313 34.5132 29.6698 36.1159C29.9719 37.5495 29.5397 39.0144 28.5136 40.0355C27.0595 41.4822 26.2589 43.2562 26.2589 45.0316C26.2589 45.4442 25.9247 45.778 25.5126 45.778Z" fill="#003A79"/>
<path d="M25.5115 48.5293C25.4146 48.5293 25.3176 48.514 25.228 48.4695C25.1383 48.4324 25.0563 48.3799 24.9893 48.3128C24.9146 48.2378 24.8625 48.1561 24.8249 48.0665C24.7878 47.9769 24.7652 47.8799 24.7652 47.783C24.7652 47.5884 24.8475 47.3945 24.9893 47.2531C25.2579 46.9769 25.7578 46.9769 26.0414 47.2531C26.1088 47.3275 26.1609 47.4018 26.1984 47.4995C26.2429 47.5884 26.2578 47.6861 26.2578 47.783C26.2578 47.8799 26.2429 47.9769 26.2057 48.0665C26.1685 48.1561 26.1088 48.2378 26.0414 48.3128C25.8996 48.4542 25.713 48.5293 25.5115 48.5293Z" fill="#003A79"/>
<path d="M50.9659 53.8243H30.9176C29.9104 53.8243 29.0015 53.2667 28.5456 52.3688C28.0897 51.4709 28.1754 50.4082 28.7694 49.5949L37.4982 37.6493V30.0381C37.4982 29.6256 37.8324 29.2918 38.2445 29.2918H43.6386C44.0508 29.2918 44.385 29.6256 44.385 30.0381V37.6493L53.1138 49.5949C53.7078 50.4082 53.7934 51.4709 53.3376 52.3688C52.8817 53.2667 51.9728 53.8243 50.9659 53.8243ZM38.9909 30.7844V37.8927C38.9909 38.0509 38.9406 38.2054 38.8473 38.333L29.9749 50.4753C29.7099 50.8375 29.6735 51.293 29.8765 51.6924C30.0798 52.0926 30.469 52.3316 30.9176 52.3316H50.9659C51.4145 52.3316 51.8034 52.0926 52.0067 51.6932C52.2097 51.293 52.1732 50.8375 51.9083 50.4753L43.0359 38.333C42.9426 38.2054 42.8923 38.0509 42.8923 37.8927V30.7844H38.9909Z" fill="#003A79"/>
<path d="M50.9659 53.8243H30.9176C29.9104 53.8243 29.0015 53.2667 28.5456 52.3688C28.0897 51.4709 28.1754 50.4082 28.7694 49.5949L32.1985 44.9019C32.4051 44.6199 32.7794 44.52 33.0994 44.6578C38.0018 46.7932 39.6148 46.1868 41.6577 45.4201C43.3653 44.7787 45.3011 44.0528 49.1872 44.6031C49.3866 44.6315 49.5662 44.7394 49.685 44.9019L53.1138 49.5949C53.7078 50.4082 53.7934 51.4709 53.3376 52.3688C52.8817 53.2667 51.9728 53.8243 50.9659 53.8243ZM33.0545 46.2605L29.9749 50.4753C29.7099 50.8375 29.6735 51.293 29.8765 51.6924C30.0798 52.0926 30.469 52.3316 30.9176 52.3316H50.9659C51.4145 52.3316 51.8034 52.0926 52.0067 51.6932C52.2097 51.293 52.1732 50.8375 51.9083 50.4753L48.6672 46.0396C45.3689 45.6169 43.7501 46.2284 42.1828 46.8173C40.0859 47.6052 38.1013 48.3507 33.0545 46.2605Z" fill="#003A79"/>
<path d="M45.433 30.7844H36.4502C36.038 30.7844 35.7038 30.4506 35.7038 30.0381V27.082C35.7038 26.6695 36.038 26.3357 36.4502 26.3357H45.433C45.8452 26.3357 46.1793 26.6695 46.1793 27.082V30.0381C46.1793 30.4506 45.8452 30.7844 45.433 30.7844ZM37.1965 29.2918H44.6867V27.8283H37.1965V29.2918Z" fill="#003A79"/>
</svg>
