<svg width="51" height="51" viewBox="0 0 51 51" fill="none" xmlns="http://www.w3.org/2000/svg">
<path d="M16.5319 48.8236L19.4594 45.896C20.3708 44.9848 20.3708 43.5021 19.4594 42.5909L10.9293 34.0608C10.0161 33.1476 8.53737 33.1472 7.62417 34.0608L4.69663 36.9883C3.78521 37.8995 3.78521 39.3823 4.69663 40.2934L13.2266 48.8236C14.1377 49.7348 15.6206 49.735 16.5319 48.8236ZM5.4781 39.512C4.99776 39.0317 4.99776 38.2502 5.4781 37.7699L8.40584 34.8423C8.88578 34.362 9.66517 34.3601 10.1478 34.8423L18.678 43.3725C19.1583 43.8528 19.1583 44.6343 18.678 45.1147L15.7504 48.0422C15.2703 48.5223 14.4886 48.5227 14.0081 48.0422L5.4781 39.512Z" fill="#003A79"/>
<path d="M45.9081 25.2281C44.8541 24.1737 43.151 24.121 42.0307 25.1089L34.9574 31.3567C34.4034 30.7779 33.6284 30.4159 32.7833 30.416L21.405 30.2059C19.4248 30.1736 16.4896 29.3032 11.9346 32.5987C11.6874 32.7777 11.632 33.1232 11.8108 33.3705C11.9897 33.6177 12.3351 33.6731 12.5826 33.4943C16.7985 30.4436 19.4872 31.2804 21.3854 31.3111L32.773 31.5212C35.1952 31.5212 35.3906 35.0762 32.999 35.3567L23.2575 36.5136C22.9544 36.5498 22.7379 36.8247 22.7738 37.1276C22.8073 37.4086 23.0458 37.6152 23.322 37.6152C23.3438 37.6152 23.3657 37.6139 23.3878 37.6114L33.1285 36.4544C35.1256 36.2203 36.3383 34.1355 35.5694 32.291L42.7621 25.9377C43.4453 25.3355 44.4835 25.3671 45.1265 26.0097C45.7835 26.6669 45.7898 27.7067 45.2021 28.3743C37.5452 37.0634 37.5277 37.0842 37.5222 37.091C37.5137 37.1009 37.5058 37.1111 37.4983 37.1217C35.778 39.4979 32.9621 40.9164 29.9657 40.9164C21.6815 40.9798 21.6061 40.7651 20.6445 41.1201C20.3582 41.2256 20.2117 41.5435 20.3173 41.8298C20.4228 42.1157 20.7399 42.2628 21.027 42.157C21.6903 41.9123 21.5965 42.0655 29.9657 42.0217C33.3064 42.0217 36.4493 40.4405 38.3782 37.791C38.7608 37.3559 45.9572 29.1893 46.0316 29.1049C46.9952 28.0102 46.9877 26.3073 45.9081 25.2281Z" fill="#003A79"/>
<path d="M28.6018 10.3999C26.3574 10.3999 24.5314 12.2259 24.5314 14.4703C24.5314 16.7146 26.3574 18.5405 28.6018 18.5405C30.8461 18.5405 32.672 16.7145 32.672 14.4703C32.672 12.2259 30.846 10.3999 28.6018 10.3999ZM28.6018 17.4352C26.9669 17.4352 25.6367 16.1052 25.6367 14.4703C25.6367 12.8354 26.9669 11.5052 28.6018 11.5052C30.2367 11.5052 31.5667 12.8354 31.5667 14.4703C31.5667 16.1052 30.2367 17.4352 28.6018 17.4352Z" fill="#003A79"/>
<path d="M39.6706 13.7608C41.219 13.7608 42.4788 12.5009 42.4788 10.9526C42.4788 9.59104 41.5044 8.45353 40.2166 8.19859C39.1913 6.66915 36.775 6.07829 33.4808 6.5514C32.3504 3.17295 30.5879 1.24316 28.6025 1.24316C26.6041 1.24316 24.8341 3.19664 23.7035 6.61573C20.816 6.22112 18.5405 6.64606 17.3504 7.8029C15.7355 7.72945 14.4177 9.02447 14.4177 10.6052C14.4177 12.3249 15.9511 13.6446 17.6546 13.3832C17.9147 13.7631 18.2117 14.1444 18.5443 14.5229C16.6218 16.7679 15.9957 18.8484 16.7868 20.4146C17.9134 22.6525 21.2323 22.7474 23.7233 22.3889C23.8762 22.8438 24.0393 23.2693 24.2115 23.6627C23.7925 24.1534 23.5378 24.7885 23.5378 25.4828C23.5378 27.0312 24.7976 28.291 26.346 28.291C27.021 28.291 27.6409 28.0515 28.1258 27.6531C30.8403 28.104 32.6296 24.9614 33.5018 22.3235C35.9926 22.6653 39.3667 22.5636 40.4799 20.2873C40.4799 20.2871 40.4799 20.2871 40.4799 20.2871C41.2528 18.7057 40.6036 16.6336 38.6576 14.4182C38.8578 14.1845 39.0444 13.9515 39.2165 13.7205C39.3647 13.7448 39.5157 13.7608 39.6706 13.7608ZM33.204 10.0734C32.0948 9.42393 31.1541 8.9533 30.1099 8.49546C30.9951 8.20315 31.8625 7.97606 32.7073 7.80954C32.9058 8.52222 33.0737 9.27653 33.204 10.0734ZM28.6025 2.34846C30.013 2.34846 31.4345 4.01786 32.3824 6.74775C31.1467 6.99853 29.8675 7.37351 28.5657 7.87377C27.2712 7.39551 26.0108 7.03967 24.8036 6.80475C25.7527 4.03996 27.1817 2.34846 28.6025 2.34846ZM24.4822 7.86822C25.304 8.02305 26.1527 8.23655 27.0242 8.5129C26.0504 8.95211 25.1044 9.43255 23.9986 10.0927C24.1256 9.31291 24.2889 8.57138 24.4822 7.86822ZM23.3846 7.69119C23.1183 8.6827 22.9124 9.74726 22.7717 10.871C21.4565 11.7513 20.2684 12.7184 19.2983 13.702C19.0923 13.4629 18.8965 13.2239 18.7233 12.9859C19.5272 12.4813 20.0327 11.5935 20.0327 10.6052C20.0327 9.59649 19.4851 8.68884 18.6594 8.19502C19.6845 7.61615 21.358 7.43605 23.3846 7.69119ZM22.63 16.6699C21.6631 15.9811 20.7885 15.2514 20.0511 14.5142C20.7867 13.7633 21.6604 13.0198 22.6271 12.3185C22.5197 13.7802 22.5159 15.1488 22.63 16.6699ZM17.7387 12.2328C16.6249 12.579 15.5229 11.7425 15.5229 10.6052C15.5229 9.66657 16.2866 8.90294 17.2251 8.90294C18.1529 8.90294 18.9273 9.6641 18.9273 10.6052C18.9274 11.3544 18.4498 12.0083 17.7387 12.2328ZM17.7738 19.9169C17.2139 18.8082 17.7736 17.1559 19.3061 15.3333C20.2758 16.2968 21.4631 17.2449 22.7763 18.1086C22.9207 19.248 23.1314 20.3228 23.403 21.3193C20.5387 21.6982 18.4081 21.1775 17.7738 19.9169ZM24.0011 18.8682C25.0923 19.5075 26.043 19.9832 27.0938 20.4441C26.2087 20.7365 25.3418 20.9637 24.4976 21.1304C24.2992 20.4182 24.1314 19.6644 24.0011 18.8682ZM26.346 27.1858C25.4069 27.1858 24.6431 26.422 24.6431 25.4829C24.6431 24.5439 25.4069 23.7798 26.346 23.7798C27.285 23.7798 28.0491 24.5439 28.0491 25.4829C28.0491 26.4219 27.285 27.1858 26.346 27.1858ZM28.94 26.5567C29.0775 26.2256 29.1544 25.8632 29.1544 25.4828C29.1544 23.9343 27.8945 22.6744 26.346 22.6744C25.9041 22.6744 25.4874 22.7799 25.1151 22.9625C25.0145 22.7178 24.9167 22.4619 24.8232 22.192C26.0576 21.9411 27.3358 21.5667 28.6383 21.066C29.9316 21.544 31.1923 21.8999 32.4014 22.1353C31.5274 24.6809 30.2466 26.3136 28.94 26.5567ZM32.7229 21.0716C31.8995 20.9164 31.05 20.7027 30.1782 20.4263C31.2109 19.9611 32.152 19.4757 33.2069 18.8444C33.0799 19.6254 32.9164 20.3679 32.7229 21.0716ZM33.3962 17.4268C31.8181 18.4417 30.2855 19.2159 28.6298 19.8831C26.9303 19.2226 25.3316 18.4186 23.8117 17.4603C23.5981 15.486 23.597 13.5012 23.8092 11.509C25.2802 10.5639 26.8677 9.73685 28.572 9.05856C30.2276 9.70156 31.7906 10.4731 33.3933 11.4803C33.6068 13.4515 33.6079 15.439 33.3962 17.4268ZM38.7827 8.29048C37.6684 8.66317 36.8622 9.71465 36.8622 10.9526C36.8622 11.937 37.3726 12.8034 38.1416 13.3049C38.0625 13.4052 37.9804 13.5058 37.8954 13.6068C36.9273 12.645 35.7414 11.6971 34.4286 10.8318C34.2842 9.69235 34.0735 8.61738 33.8019 7.62091C36.0211 7.32781 37.8026 7.57651 38.7827 8.29048ZM34.5751 12.2716C35.5412 12.9609 36.4147 13.6903 37.1503 14.4258C36.416 15.1752 35.5435 15.9182 34.5779 16.6202C34.6861 15.1493 34.6881 13.7784 34.5751 12.2716ZM39.4869 19.8018V19.8016C38.8632 21.0772 36.7182 21.6163 33.8195 21.2523C34.0862 20.2599 34.2925 19.1941 34.4332 18.0685C35.7484 17.1864 36.9362 16.2188 37.9047 15.2365C39.4569 17.036 40.0345 18.6814 39.4869 19.8018ZM37.9675 10.9525C37.9675 10.0134 38.7315 9.24957 39.6706 9.24957C40.6097 9.24957 41.3735 10.0134 41.3735 10.9525C41.3735 11.8915 40.6097 12.6554 39.6706 12.6554C38.7315 12.6555 37.9675 11.8915 37.9675 10.9525Z" fill="#003A79"/>
</svg>
