<svg width="58" height="58" viewBox="0 0 58 58" fill="none" xmlns="http://www.w3.org/2000/svg">
<path d="M53.3843 19.8008H50.6152V17.0318C50.6152 16.7036 50.3492 16.4376 50.021 16.4376H36.6647C36.0266 12.7843 32.833 9.99767 28.9985 9.99767C25.164 9.99767 21.973 12.7843 21.3352 16.4376H7.97899C7.6507 16.4376 7.38476 16.7036 7.38476 17.0318V19.8008H4.61572C4.28743 19.8008 4.02148 20.0669 4.02148 20.3951V51.5325C4.02148 51.8607 4.28753 52.1267 4.61572 52.1267H53.3843C53.7126 52.1267 53.9785 51.8607 53.9785 51.5325V20.3951C53.9785 20.0669 53.7125 19.8008 53.3843 19.8008ZM49.4268 17.6261V47.5751H32.3618C31.2846 47.5751 30.3071 48.0081 29.5927 48.7087V33.872H30.3275C31.3323 33.872 32.1497 33.0546 32.1497 32.0499V31.0804C32.7885 30.8039 33.237 30.1678 33.237 29.4285V26.9557C33.4058 25.0625 34.1717 23.9235 34.9829 22.7184C35.8678 21.4036 36.7829 20.0441 36.7829 17.7793C36.7829 17.7279 36.78 17.6773 36.779 17.6261H49.4268ZM29.5957 26.3339L28.4015 26.333V20.2504C28.5944 20.2646 28.7912 20.2731 28.991 20.2756H29.006C29.206 20.2732 29.4026 20.2646 29.5956 20.2504V26.3339H29.5957ZM32.0486 27.5244V29.4284C32.0486 29.7653 31.7744 30.0396 31.4375 30.0396H26.5625C26.2256 30.0396 25.9514 29.7654 25.9514 29.4298L25.9557 27.5196L32.0486 27.5244ZM27.0388 31.228H30.9612V32.0499C30.9612 32.3934 30.671 32.6835 30.3275 32.6835H27.6724C27.3231 32.6835 27.0387 32.3992 27.0387 32.0499V31.228H27.0388ZM28.9985 11.1862C32.4017 11.1862 35.2108 13.7761 35.558 17.0875C35.5585 17.0941 35.5596 17.1005 35.5603 17.1069C35.5828 17.3281 35.5944 17.5523 35.5944 17.7793C35.5944 19.6813 34.8541 20.7812 33.9969 22.0547C33.2434 23.1741 32.3996 24.4323 32.1159 26.3359L30.7842 26.3349V20.0804C31.8499 19.8469 32.7206 19.4146 33.2477 18.8337C33.6962 18.3395 33.9046 17.738 33.8502 17.0934C33.762 16.0689 33.1442 15.2136 32.3117 14.9646C31.8301 14.8216 31.3716 14.8892 30.9852 15.1595C30.2439 15.678 29.8104 16.9211 29.6326 19.0542C29.4259 19.073 29.2139 19.0842 28.9986 19.0872C28.7833 19.0842 28.5713 19.073 28.3646 19.0542C28.1867 16.9211 27.7533 15.678 27.012 15.1595C26.6256 14.8891 26.1669 14.8217 25.6842 14.9649C24.8528 15.2136 24.2351 16.0689 24.1469 17.0942C24.0925 17.7375 24.3009 18.3388 24.7492 18.8329C25.2766 19.4141 26.1472 19.8467 27.2129 20.0802V26.3321L25.8833 26.3311C25.5989 24.4303 24.7558 23.1732 24.003 22.0548C23.1458 20.7813 22.4055 19.6814 22.4055 17.7794C22.4055 14.144 25.3631 11.1863 28.9985 11.1863V11.1862ZM30.8458 18.8396C31.0527 16.787 31.4784 16.2649 31.6664 16.1335C31.7052 16.1063 31.7521 16.0797 31.8291 16.0797C31.8682 16.0797 31.915 16.0866 31.9723 16.1036C32.3347 16.212 32.62 16.6609 32.666 17.1943C32.6927 17.5094 32.5949 17.7844 32.3676 18.0349C32.0578 18.3763 31.5172 18.6548 30.8457 18.8396H30.8458ZM27.1514 18.8394C26.48 18.6545 25.9393 18.3758 25.6295 18.0342C25.4022 17.7838 25.3048 17.5091 25.3312 17.1952C25.3771 16.6609 25.6624 16.2121 26.0236 16.104C26.0816 16.0868 26.1289 16.0798 26.1681 16.0798C26.2451 16.0798 26.292 16.1063 26.3308 16.1335C26.5188 16.265 26.9445 16.7872 27.1514 18.8394ZM8.57322 17.6261H21.221C21.22 17.6773 21.2171 17.7279 21.2171 17.7793C21.2171 20.0441 22.1322 21.4035 23.0172 22.7184C23.8313 23.928 24.6003 25.0704 24.7652 26.9762C24.7659 26.9842 24.7674 26.9918 24.7684 26.9996L24.763 29.4285C24.763 30.1678 25.2114 30.8039 25.8503 31.0804V32.0499C25.8503 33.0546 26.6677 33.872 27.6725 33.872H28.4044V48.7087C27.6901 48.0081 26.7126 47.5751 25.6353 47.5751H8.57322V17.6261ZM5.20995 20.9893H7.38466V48.1693C7.38466 48.4975 7.6507 48.7635 7.97889 48.7635H25.6353C26.9581 48.7635 28.0667 49.6962 28.3395 50.9383H5.20995V20.9893ZM52.7901 50.9383H29.6577C29.9305 49.6962 31.039 48.7635 32.3618 48.7635H50.021C50.3493 48.7635 50.6152 48.4975 50.6152 48.1693V20.9893H52.79V50.9383H52.7901ZM37.3731 26.5091C37.3731 26.1809 37.6391 25.9148 37.9673 25.9148H45.7109C46.0392 25.9148 46.3052 26.1809 46.3052 26.5091C46.3052 26.8373 46.0391 27.1033 45.7109 27.1033H37.9673C37.639 27.1033 37.3731 26.8373 37.3731 26.5091ZM37.3731 22.1793C37.3731 21.8511 37.6391 21.585 37.9673 21.585H45.7109C46.0392 21.585 46.3052 21.8511 46.3052 22.1793C46.3052 22.5074 46.0391 22.7735 45.7109 22.7735H37.9673C37.639 22.7735 37.3731 22.5074 37.3731 22.1793ZM28.4043 8.23173V6.46728C28.4043 6.13909 28.6703 5.87305 28.9985 5.87305C29.3267 5.87305 29.5927 6.13909 29.5927 6.46728V8.23183C29.5927 8.56002 29.3267 8.82606 28.9985 8.82606C28.6703 8.82606 28.4043 8.55992 28.4043 8.23173ZM33.2578 9.21263L34.14 7.68696C34.3043 7.40278 34.6677 7.30574 34.9519 7.46999C35.236 7.63423 35.3332 7.99781 35.1689 8.28189L34.2867 9.80756C34.1766 9.99797 33.9769 10.1044 33.7717 10.1044C33.6707 10.1044 33.5685 10.0787 33.4748 10.0245C33.1907 9.86029 33.0935 9.49672 33.2578 9.21263ZM36.753 13.3025C36.5889 13.0182 36.6863 12.6548 36.9705 12.4908L38.4991 11.6085C38.7836 11.4444 39.1468 11.5419 39.3108 11.8261C39.4748 12.1103 39.3774 12.4737 39.0932 12.6378L37.5647 13.52C37.4711 13.5741 37.3689 13.5997 37.2682 13.5997C37.0628 13.5997 36.863 13.4932 36.753 13.3025ZM22.8281 8.28199C22.6638 7.99791 22.7608 7.63433 23.045 7.47009C23.3288 7.30584 23.6927 7.40288 23.8568 7.68696L24.7391 9.21263C24.9034 9.49672 24.8063 9.86029 24.5222 10.0245C24.4286 10.0787 24.3262 10.1044 24.2253 10.1044C24.0202 10.1044 23.8204 9.99807 23.7104 9.80756L22.8281 8.28199ZM18.6893 11.8258C18.8537 11.5416 19.217 11.4445 19.5012 11.6088L21.027 12.4911C21.3111 12.6553 21.4083 13.0189 21.244 13.303C21.1338 13.4934 20.9341 13.5998 20.7289 13.5998C20.6279 13.5998 20.5257 13.5741 20.4321 13.5199L18.9063 12.6377C18.6222 12.4734 18.525 12.1098 18.6893 11.8258ZM11.6948 26.5091C11.6948 26.1809 11.9609 25.9148 12.2891 25.9148H20.0327C20.361 25.9148 20.6269 26.1809 20.6269 26.5091C20.6269 26.8373 20.3609 27.1033 20.0327 27.1033H12.2891C11.9608 27.1033 11.6948 26.8373 11.6948 26.5091ZM11.6948 22.1793C11.6948 21.8511 11.9609 21.585 12.2891 21.585H20.0327C20.361 21.585 20.6269 21.8511 20.6269 22.1793C20.6269 22.5074 20.3609 22.7735 20.0327 22.7735H12.2891C11.9608 22.7735 11.6948 22.5074 11.6948 22.1793ZM11.3658 39.6058C11.712 39.8056 12.0904 39.9004 12.464 39.9003C12.8434 39.9003 13.2176 39.8023 13.5482 39.617L16.5675 42.6364C15.9784 43.6839 16.3419 45.0206 17.387 45.627C17.7333 45.8267 18.1116 45.9215 18.4852 45.9215C19.2481 45.9215 19.991 45.5258 20.3987 44.8189C20.8011 44.1211 20.7775 43.2928 20.4098 42.6365L23.4293 39.6169C23.7632 39.8047 24.1319 39.9012 24.5058 39.9012C24.6977 39.9012 24.8908 39.8759 25.0811 39.8249C25.6504 39.6722 26.1259 39.3075 26.4199 38.7976C26.715 38.286 26.7928 37.6905 26.6392 37.1207C26.4864 36.5531 26.1217 36.0793 25.6124 35.7863C25.1039 35.4914 24.5116 35.4123 23.9437 35.5635C23.7615 35.6121 23.5901 35.6847 23.4296 35.7749L20.4101 32.7554C20.9993 31.7048 20.6355 30.368 19.5915 29.7652C19.0818 29.4697 18.4878 29.3905 17.9184 29.5427C17.3489 29.6947 16.8731 30.0595 16.5784 30.5707C16.1778 31.2679 16.202 32.0962 16.5693 32.7534L13.5479 35.7749C13.0428 35.4894 12.4574 35.414 11.8967 35.5644C11.3269 35.717 10.8511 36.0829 10.5576 36.5938C9.9518 37.6443 10.3135 38.9951 11.3656 39.6055L11.3658 39.6058ZM17.4081 33.5958C17.7487 33.7873 18.119 33.8791 18.4851 33.8791C18.8645 33.8791 19.2388 33.7811 19.5694 33.5958L22.5887 36.6153C22.1997 37.3071 22.2263 38.1249 22.5903 38.7754L19.5692 41.7965C19.0626 41.5115 18.4761 41.4368 17.9138 41.5882C17.7345 41.6364 17.5661 41.7081 17.4083 41.7964L14.3888 38.7768C14.7788 38.0833 14.7524 37.2652 14.3886 36.6155L17.4081 33.5958ZM19.3691 44.2254C19.0893 44.7107 18.4664 44.8777 17.9821 44.5984C17.4968 44.3168 17.3293 43.6936 17.609 43.2084C17.7437 42.974 17.9618 42.8062 18.2229 42.7358C18.311 42.7121 18.4004 42.7003 18.4893 42.7003C18.6656 42.7003 18.8399 42.7466 18.9969 42.8371C19.4822 43.1169 19.6491 43.7397 19.3691 44.2254ZM24.2496 36.7122C24.336 36.6892 24.4237 36.6778 24.5108 36.6778C24.6866 36.6778 24.8603 36.7242 25.0167 36.815L25.019 36.8163C25.2534 36.9509 25.4213 37.1689 25.4917 37.4301C25.5625 37.6931 25.5266 37.968 25.3904 38.2042C25.2551 38.4388 25.0359 38.6068 24.7735 38.6772C24.511 38.7476 24.2368 38.7118 24.0034 38.5771C23.5181 38.2955 23.3505 37.6723 23.6295 37.1885C23.7666 36.9514 23.9869 36.7822 24.2497 36.7122H24.2496ZM17.6085 31.1638C17.7439 30.9291 17.9629 30.7613 18.225 30.6912C18.3123 30.6679 18.4007 30.6564 18.4885 30.6564C18.6648 30.6564 18.8389 30.7028 18.9955 30.7937C18.996 30.7939 18.9964 30.7942 18.9969 30.7945C19.4814 31.0739 19.6481 31.6971 19.3691 32.1829C19.0893 32.6681 18.4667 32.8353 17.9821 32.5558C17.4969 32.2742 17.3296 31.6494 17.6085 31.1638ZM11.5878 37.1871C11.7232 36.9515 11.9422 36.783 12.2043 36.7127C12.2916 36.6893 12.38 36.6777 12.4679 36.6777C12.6439 36.6777 12.8178 36.7241 12.9743 36.815C12.9748 36.8152 12.9752 36.8155 12.9757 36.8158C13.461 37.0956 13.6278 37.7184 13.3478 38.2042C13.068 38.6894 12.445 38.8564 11.9609 38.5771C11.4756 38.2955 11.308 37.6723 11.5878 37.1871ZM34.5676 35.7752C34.0637 35.4904 33.4801 35.4146 32.9206 35.5638C32.3508 35.7156 31.8738 36.0814 31.5773 36.5942C30.9716 37.6448 31.3333 38.9955 32.3853 39.6059C32.7316 39.8057 33.1101 39.9005 33.4838 39.9005C33.8632 39.9005 34.2375 39.8026 34.568 39.6174L37.5872 42.6366C36.9981 43.684 37.3616 45.0208 38.4065 45.6272C38.7458 45.8229 39.1224 45.9228 39.5042 45.9228C39.6961 45.9228 39.8891 45.8975 40.0795 45.8465C40.6487 45.6939 41.1242 45.329 41.4174 44.8206C41.7132 44.3108 41.7923 43.7165 41.6402 43.1469C41.5918 42.9657 41.5196 42.7955 41.4303 42.636L44.4505 39.618C44.7906 39.8084 45.1604 39.8996 45.5259 39.8996C46.2891 39.8996 47.0319 39.5044 47.4386 38.7993C47.7344 38.2895 47.8135 37.6952 47.6614 37.1256C47.5094 36.5564 47.1448 36.0808 46.6349 35.7866C46.1234 35.4909 45.5282 35.4121 44.9593 35.5651C44.7791 35.6135 44.6097 35.6856 44.4511 35.7746L41.4293 32.7551C41.7146 32.2488 41.7902 31.663 41.6399 31.102C41.4878 30.5341 41.1233 30.0594 40.6136 29.7653C39.5614 29.1571 38.2092 29.5175 37.5981 30.571C37.1975 31.2682 37.2217 32.0965 37.589 32.7537L34.5676 35.7751V35.7752ZM40.5883 33.5948L43.6115 36.6158C43.3265 37.1205 43.2507 37.7051 43.4007 38.2658C43.4492 38.447 43.5214 38.6173 43.6109 38.7769L40.5903 41.7952C39.8965 41.4069 39.0784 41.4336 38.4285 41.7971L35.4078 38.7765C35.6932 38.2716 35.7688 37.6866 35.6184 37.1254C35.5699 36.9444 35.4977 36.7743 35.4083 36.6152L38.4275 33.5959C38.7613 33.7838 39.1301 33.8803 39.5041 33.8803C39.696 33.8803 39.889 33.855 40.0794 33.804C40.2598 33.7556 40.4294 33.6836 40.5881 33.5948H40.5883ZM32.9805 38.5771C32.4952 38.2955 32.3277 37.6723 32.6067 37.1885C32.7438 36.9514 32.964 36.7823 33.2267 36.7122C33.3132 36.6892 33.4009 36.6778 33.488 36.6778C33.6638 36.6778 33.8376 36.7242 33.994 36.815C33.9947 36.8154 33.9955 36.8158 33.9962 36.8163C34.2318 36.9517 34.4003 37.1706 34.4705 37.4329C34.5407 37.6948 34.5044 37.9682 34.3674 38.2043C34.0876 38.6895 33.4647 38.8565 32.9805 38.5772V38.5771ZM40.3887 44.2254C40.2534 44.4601 40.0343 44.628 39.7718 44.6984C39.5093 44.7689 39.2351 44.7329 39.0017 44.5983C38.5164 44.3167 38.3488 43.6935 38.6278 43.2097C38.8161 42.884 39.1594 42.7017 39.5122 42.7017C39.6847 42.7017 39.8595 42.7453 40.0195 42.8371C40.2541 42.9725 40.422 43.1913 40.492 43.4535C40.5621 43.7158 40.5257 43.9894 40.3887 44.2254ZM45.2679 36.7128C45.355 36.6894 45.4434 36.6778 45.5315 36.6778C45.708 36.6778 45.8825 36.7244 46.0401 36.8155C46.0403 36.8155 46.0405 36.8157 46.0407 36.8158C46.2754 36.9511 46.4433 37.17 46.5133 37.4322C46.5834 37.6945 46.547 37.9682 46.41 38.2042C46.1306 38.6886 45.5073 38.8553 45.0231 38.5771C44.7875 38.4404 44.6191 38.2207 44.549 37.9586C44.4791 37.6971 44.5155 37.4238 44.6529 37.187C44.7883 36.9514 45.0067 36.783 45.268 36.7127L45.2679 36.7128ZM38.6274 31.1653C38.8163 30.8399 39.1591 30.6578 39.5109 30.6578C39.6838 30.6578 39.8588 30.7017 40.0188 30.7943C40.019 30.7943 40.0192 30.7945 40.0194 30.7946C40.2541 30.9299 40.422 31.1483 40.492 31.4096C40.5622 31.6718 40.5257 31.9462 40.3888 32.183C40.2535 32.4177 40.0344 32.5856 39.7719 32.656C39.5094 32.7261 39.2353 32.6905 39.0017 32.5558C38.5165 32.2742 38.3492 31.6494 38.6274 31.1652V31.1653Z" fill="#003A79"/>
</svg>
