<svg width="23" height="23" viewBox="0 0 23 23" fill="none" xmlns="http://www.w3.org/2000/svg">
<path d="M5.41621 21.6001H0.95782V7.56564H5.41621V21.6001ZM3.18702 5.65342C1.75564 5.65342 0.599976 4.52216 0.599976 3.12676C0.599976 1.73135 1.75564 0.600098 3.18702 0.600098C4.61253 0.600098 5.76819 1.73135 5.76819 3.12676C5.76819 4.51642 4.61253 5.65342 3.18702 5.65342ZM22.1 21.6001H17.6475V14.7781C17.6475 13.153 17.6181 11.057 15.3303 11.057C13.0131 11.057 12.6611 12.8314 12.6611 14.6633V21.6001H8.21444V7.56564H12.4851V9.48361H12.5438C13.1363 8.38107 14.5911 7.21536 16.7558 7.21536C21.267 7.21536 22.1 10.121 22.1 13.8995V21.6001Z" stroke="white" stroke-width="1.2"/>
</svg>
