<svg width="19" height="19" viewBox="0 0 19 19" fill="none" xmlns="http://www.w3.org/2000/svg">
<path d="M6.96059 2.15245C6.68217 1.45641 6.00804 1 5.25838 1H2.73684C1.77761 1 1 1.77742 1 2.73665C1 10.8901 7.60988 17.5 15.7633 17.5C16.7226 17.5 17.5 16.7223 17.5 15.7631L17.5004 13.2411C17.5004 12.4915 17.0441 11.8175 16.3481 11.539L13.9314 10.5727C13.3061 10.3226 12.5943 10.4352 12.0769 10.8663L11.4532 11.3865C10.7248 11.9935 9.653 11.9452 8.98251 11.2747L7.2262 9.5168C6.55572 8.84632 6.50617 7.77539 7.1132 7.04696L7.6333 6.42327C8.0644 5.90596 8.17795 5.1939 7.92786 4.56867L6.96059 2.15245Z" stroke="white" stroke-width="2" stroke-linecap="round" stroke-linejoin="round"/>
</svg>
