<svg width="28" height="28" viewBox="0 0 28 28" fill="none" xmlns="http://www.w3.org/2000/svg">
<path d="M10.1241 2.81572C9.70087 1.75774 8.67619 1.064 7.53671 1.064H3.70397C2.24593 1.064 1.06396 2.24568 1.06396 3.70371C1.06396 16.097 11.111 26.144 23.5043 26.144C24.9623 26.144 26.144 24.9619 26.144 23.5039L26.1446 19.6705C26.1446 18.531 25.451 17.5065 24.3931 17.0833L20.7196 15.6145C19.7693 15.2344 18.6872 15.4054 17.9009 16.0607L16.9529 16.8514C15.8457 17.7741 14.2165 17.7007 13.1974 16.6816L10.5278 14.0095C9.50866 12.9904 9.43335 11.3626 10.356 10.2554L11.1466 9.30737C11.8018 8.52105 11.9744 7.43872 11.5943 6.48837L10.1241 2.81572Z" stroke="#003A79" stroke-width="2.128" stroke-linecap="round" stroke-linejoin="round"/>
</svg>
