<svg width="36" height="36" viewBox="0 0 36 36" fill="none" xmlns="http://www.w3.org/2000/svg">
<g clip-path="url(#clip0_10306_2671)">
<path d="M22.9681 29.0355C22.7991 28.0672 21.9629 27.3644 20.9799 27.3644H20.0239V27.1371C20.9555 26.4928 21.5675 25.4175 21.5675 24.2015V22.9947C21.5675 21.0276 19.9671 19.4272 18 19.4272C16.0329 19.4272 14.4325 21.0276 14.4325 22.9947V24.2015C14.4325 25.4175 15.0444 26.4928 15.9761 27.1371V27.3644H15.0201C14.0371 27.3644 13.2009 28.0672 13.0318 29.0355L12.3405 32.9965C12.2919 33.2744 12.3682 33.5576 12.5498 33.7736C12.7313 33.9895 12.9972 34.1134 13.2793 34.1134H22.7208C23.0029 34.1134 23.2689 33.9895 23.4503 33.7736C23.6319 33.5577 23.7082 33.2744 23.6597 32.9965L22.9681 29.0355ZM17.0307 27.6341C17.3391 27.7213 17.664 27.769 18 27.769C18.3359 27.769 18.6608 27.7213 18.9692 27.6341V28.5617C18.9692 29.0961 18.5344 29.5309 18 29.5309C17.4655 29.5309 17.0307 29.0961 17.0307 28.5617V27.6341ZM18 20.4819C18.8605 20.4819 19.6213 20.9169 20.0743 21.5784C17.7583 23.1774 16.1329 22.8832 15.5096 22.664C15.672 21.4342 16.7266 20.4819 18 20.4819ZM15.4871 23.7534C15.7887 23.8294 16.169 23.8896 16.6205 23.8896C17.6037 23.8896 18.921 23.6039 20.4777 22.5782C20.5004 22.7138 20.5128 22.8527 20.5128 22.9946V24.2015C20.5128 25.587 19.3856 26.7142 18 26.7142C16.6144 26.7142 15.4872 25.587 15.4872 24.2015L15.4871 23.7534ZM13.4001 33.0587L14.0707 29.2169C14.1514 28.7546 14.5507 28.419 15.0199 28.419H15.976V28.5617C15.976 29.6777 16.8839 30.5856 17.9999 30.5856C19.1159 30.5856 20.0239 29.6777 20.0239 28.5617V28.419H20.9799C21.4492 28.419 21.8485 28.7545 21.9292 29.2169L22.5998 33.0587H13.4001Z" fill="#EDC7A2"/>
<path d="M35.9858 32.9965L35.2944 29.0355C35.1254 28.0672 34.2893 27.3644 33.3062 27.3644H32.3502V27.1371C33.2818 26.4927 33.8937 25.4175 33.8937 24.2015V22.9947C33.8937 21.0276 32.2934 19.4272 30.3262 19.4272C28.3591 19.4272 26.7587 21.0276 26.7587 22.9947V24.2015C26.7587 25.4175 27.3706 26.4927 28.3023 27.1371V27.3644H27.3462C26.3632 27.3644 25.527 28.0672 25.3581 29.0355L25.2772 29.499C25.2271 29.7859 25.419 30.0591 25.7059 30.1093C25.7366 30.1146 25.7672 30.1171 25.7973 30.1171C26.0487 30.1171 26.2714 29.9366 26.3161 29.6804L26.397 29.2169C26.4777 28.7546 26.8769 28.419 27.3462 28.419H28.3023V28.5617C28.3023 29.6777 29.2102 30.5856 30.3262 30.5856C31.4422 30.5856 32.3502 29.6777 32.3502 28.5617V28.419H33.3062C33.7755 28.419 34.1748 28.7545 34.2555 29.2169L34.9261 33.0587H25.7265L25.9087 32.0145C25.9588 31.7276 25.7668 31.4545 25.4799 31.4043C25.1928 31.3544 24.9198 31.5463 24.8697 31.8333L24.6666 32.9965C24.6181 33.2744 24.6944 33.5576 24.876 33.7736C25.0575 33.9895 25.3234 34.1134 25.6054 34.1134H35.047C35.3291 34.1134 35.595 33.9895 35.7765 33.7736C35.958 33.5576 36.0343 33.2744 35.9858 32.9965ZM30.3262 20.4819C31.1868 20.4819 31.9475 20.9169 32.4006 21.5784C30.0845 23.1774 28.4591 22.8831 27.8359 22.664C27.9984 21.4342 29.0528 20.4819 30.3262 20.4819ZM27.8135 23.7534C28.115 23.8294 28.4954 23.8896 28.9468 23.8896C29.9301 23.8896 31.2473 23.6039 32.804 22.5782C32.8268 22.7138 32.8392 22.8527 32.8392 22.9946V24.2015C32.8392 25.587 31.7119 26.7142 30.3264 26.7142C28.9408 26.7142 27.8135 25.587 27.8135 24.2015V23.7534H27.8135ZM31.2955 28.5618C31.2955 29.0961 30.8607 29.5309 30.3262 29.5309C29.7918 29.5309 29.357 29.0961 29.357 28.5618V27.6341C29.6654 27.7214 29.9903 27.7691 30.3262 27.7691C30.6622 27.7691 30.987 27.7214 31.2955 27.6341V28.5618Z" fill="#EDC7A2"/>
<path d="M17.1849 10.7891C17.3206 10.7891 17.4562 10.737 17.5592 10.6333L20.8519 7.31612C21.057 7.10941 21.0558 6.77549 20.8491 6.57032C20.6424 6.36515 20.3085 6.36634 20.1034 6.57313L17.1748 9.52337L15.8854 8.29403C15.6745 8.09308 15.3408 8.10095 15.1398 8.31175C14.9389 8.52255 14.9468 8.85632 15.1576 9.05734L16.821 10.6435C16.9231 10.7407 17.054 10.7891 17.1849 10.7891Z" fill="#EDC7A2"/>
<path d="M22.54 3.69717C21.2138 2.43914 19.4749 1.79936 17.643 1.89632C14.549 2.05966 11.9571 4.40557 11.48 7.47428C11.4352 7.76207 11.6323 8.03165 11.92 8.07637C12.208 8.12102 12.4774 7.92407 12.5222 7.63628C12.9231 5.05771 15.1001 3.08664 17.6987 2.94946C19.2385 2.86917 20.7 3.40544 21.8143 4.46238C22.9292 5.52002 23.5433 6.94849 23.5433 8.48475C23.5433 10.9443 21.8931 13.1351 19.5303 13.8123C19.22 13.9014 18.9609 14.103 18.8009 14.3802L18 15.7672L17.1993 14.3802C17.0392 14.1029 16.78 13.9011 16.4697 13.8122C14.5296 13.2561 13.0453 11.6899 12.5961 9.72492C12.5312 9.44107 12.2484 9.26339 11.9645 9.32836C11.6806 9.39325 11.503 9.67605 11.5679 9.9599C12.1027 12.2993 13.8696 14.164 16.1791 14.826C16.2252 14.8393 16.2631 14.8681 16.2858 14.9074L17.2389 16.5582C17.3977 16.8333 17.6823 16.9976 18 16.9976C18.3178 16.9976 18.6023 16.8333 18.7612 16.5582L19.7143 14.9074C19.7369 14.8681 19.7749 14.8392 19.821 14.826C22.6336 14.0198 24.598 11.4121 24.598 8.48468C24.5979 6.65627 23.8671 4.95597 22.54 3.69717Z" fill="#EDC7A2"/>
<path d="M10.642 29.0356C10.4731 28.0672 9.63691 27.3644 8.6538 27.3644H7.69783V27.1371C8.62947 26.4927 9.2414 25.4175 9.2414 24.2015V22.9947C9.2414 21.0276 7.64102 19.4272 5.67389 19.4272C3.70675 19.4272 2.10637 21.0276 2.10637 22.9947V24.2015C2.10637 25.4175 2.7183 26.4927 3.64994 27.1371V27.3644H2.6939C1.71093 27.3644 0.874706 28.0672 0.705674 29.0355L0.0142916 32.9965C-0.034224 33.2744 0.0420651 33.5576 0.223612 33.7736C0.405088 33.9895 0.67101 34.1134 0.953104 34.1134H5.40712C5.69835 34.1134 5.93446 33.8774 5.93446 33.5861C5.93446 33.2948 5.69835 33.0587 5.40712 33.0587H1.07411L1.74468 29.2169C1.8254 28.7546 2.22464 28.419 2.6939 28.419H3.64994V28.5617C3.64994 29.6777 4.55789 30.5856 5.67389 30.5856C6.78989 30.5856 7.69783 29.6777 7.69783 28.5617V28.419H8.65387C9.12321 28.419 9.52244 28.7545 9.60309 29.2169L10.2737 33.0587H7.70542C7.41419 33.0587 7.17808 33.2948 7.17808 33.5861C7.17808 33.8774 7.41419 34.1134 7.70542 34.1134H10.3947C10.6768 34.1134 10.9426 33.9895 11.1242 33.7736C11.3056 33.5577 11.3819 33.2744 11.3335 32.9965L10.642 29.0356ZM5.67389 20.4819C6.53444 20.4819 7.29515 20.9169 7.74817 21.5784C5.43208 23.1774 3.80674 22.8831 3.18349 22.664C3.34598 21.4342 4.40046 20.4819 5.67389 20.4819ZM3.16106 23.7534C3.46263 23.8294 3.84302 23.8896 4.29442 23.8896C5.27767 23.8896 6.59491 23.6039 8.15163 22.5782C8.17434 22.7138 8.18678 22.8527 8.18678 22.9946V24.2015C8.18678 25.587 7.05953 26.7142 5.67396 26.7142C4.28838 26.7142 3.16113 25.587 3.16113 24.2015L3.16106 23.7534ZM6.64314 28.5618C6.64314 29.0961 6.20833 29.5309 5.67389 29.5309C5.13944 29.5309 4.70463 29.0961 4.70463 28.5618V27.6341C5.01309 27.7213 5.33793 27.7691 5.67389 27.7691C6.00984 27.7691 6.33468 27.7214 6.64314 27.6341V28.5618Z" fill="#EDC7A2"/>
</g>
<defs>
<clipPath id="clip0_10306_2671">
<rect width="36" height="36" fill="white"/>
</clipPath>
</defs>
</svg>
