<svg width="40" height="38" viewBox="0 0 40 38" fill="none" xmlns="http://www.w3.org/2000/svg">
<path d="M3.42439 20.2631C3.29431 20.2631 3.16992 20.3164 3.07805 20.4107C1.74797 21.7859 0.221951 23.5781 0.221951 25.2485C0.221951 27.0599 1.65854 28.5336 3.42439 28.5336C5.19024 28.5336 6.62683 27.0599 6.62683 25.2485C6.62683 23.5781 5.10081 21.7859 3.77073 20.4107C3.67886 20.3164 3.55447 20.2631 3.42439 20.2631ZM3.42439 27.5328C2.19675 27.5328 1.19756 26.5078 1.19756 25.2485C1.19756 23.9776 2.59024 22.363 3.42439 21.4773C4.25772 22.363 5.65122 23.9776 5.65122 25.2485C5.65122 26.5087 4.65203 27.5328 3.42439 27.5328ZM39.439 23.2187L36.0049 16.8529V6.01295C36.0049 4.96298 35.1724 4.10899 34.1488 4.10899H21.2358C20.2122 4.10899 19.3797 4.96298 19.3797 6.01295V7.88856H18.8041V7.74261C18.8041 7.46657 18.5854 7.24223 18.3163 7.24223H17.2057V6.68763C17.2057 5.71605 16.5545 4.88708 15.6472 4.57768V3.26084H17.6911C18.5675 3.26084 19.2805 2.52944 19.2805 1.63042C19.2805 0.731395 18.5675 0 17.6911 0H10.4252C9.54878 0 8.83577 0.731395 8.83577 1.63042C8.83577 2.52944 9.54878 3.26084 10.4252 3.26084H12.4691V4.57768C11.5618 4.88708 10.9106 5.71605 10.9106 6.68763V7.24223H9.8C9.53089 7.24223 9.31219 7.46657 9.31219 7.74261V7.88856H6.81382C3.32439 7.88856 0.485366 10.8008 0.485366 14.3802V16.4451C0.217073 16.4468 0 16.6703 0 16.9455V19.0905C0 19.3665 0.218699 19.5909 0.487805 19.5909H6.36098C6.63008 19.5909 6.84878 19.3665 6.84878 19.0905V16.9455C6.84878 16.6703 6.63171 16.4468 6.36341 16.4451V14.3802C6.36341 14.1258 6.56504 13.9182 6.81382 13.9182H9.36423C9.88049 15.7004 14.0138 15.818 14.0577 15.818C14.1016 15.818 18.235 15.7004 18.7512 13.9182H19.3797V30.0764C19.3797 31.1264 20.2122 31.9804 21.2358 31.9804H32.3366C32.3642 32.138 32.3675 32.304 32.3455 32.4783C32.3325 32.5775 32.326 32.6792 32.326 32.7793C32.326 33.5099 32.6699 34.2038 33.2455 34.6349C33.6512 34.9393 33.8659 35.3722 33.8659 35.8875V37.4996C33.8659 37.7757 34.0845 38 34.3537 38H39.5122C39.7813 38 40 37.7757 40 37.4996V25.4479C40 24.6364 39.822 23.9284 39.439 23.2187ZM5.87317 18.5893H0.97561V17.4451H5.87317V18.5893ZM5.3878 14.3802V16.4443H1.46098V14.3802C1.46098 11.352 3.8626 8.88932 6.81382 8.88932H9.31138V12.9174H6.81382C6.02764 12.9182 5.3878 13.5738 5.3878 14.3802ZM9.81138 1.63042C9.81138 1.28349 10.087 1.00077 10.4252 1.00077H17.6911C18.0293 1.00077 18.3049 1.28349 18.3049 1.63042C18.3049 1.97735 18.0293 2.26007 17.6911 2.26007H10.4252C10.0862 2.26007 9.81138 1.97735 9.81138 1.63042ZM14.6715 3.26084V4.44758H13.4447V3.26084H14.6715ZM11.8854 6.68763C11.8854 6.00461 12.5 5.44835 13.2553 5.44835H14.8602C15.6154 5.44835 16.2301 6.00461 16.2301 6.68763V7.24223H11.8854V6.68763ZM17.8285 13.5396C17.8285 13.854 17.2878 14.2059 16.4179 14.4586C15.5179 14.7205 14.4927 14.8172 14.0577 14.8172C13.6228 14.8172 12.5976 14.7196 11.6976 14.4586C10.8276 14.2059 10.287 13.8531 10.287 13.5396V8.24299H17.8285V13.5396ZM18.8041 12.9183V8.89016H19.3797V12.9183H18.8041ZM30.878 5.10976L30.8748 5.11976C30.7447 5.53091 30.3878 5.79695 29.9659 5.79695H25.4187C24.9967 5.79695 24.6398 5.53091 24.5098 5.11976L24.5065 5.10976H30.878ZM20.3561 30.0773V6.01295C20.3561 5.51507 20.7512 5.10976 21.2366 5.10976H23.4821L23.5829 5.42833C23.8463 6.25981 24.5675 6.79688 25.4195 6.79688H29.9667C30.8195 6.79688 31.5398 6.25981 31.8033 5.42833L31.9041 5.10976H34.1496C34.635 5.10976 35.0301 5.51507 35.0301 6.01295V27.1942L32.3602 24.4554C31.8927 23.9759 31.2683 23.7115 30.6024 23.7115C29.9366 23.7115 29.313 23.9759 28.8455 24.4554C27.8764 25.4495 27.8764 27.0666 28.8455 28.0607C29.2699 28.496 29.713 28.9414 30.1407 29.3725C30.6642 29.8988 31.2016 30.4409 31.7228 30.9804H29.7675L29.7512 30.8595C29.6285 29.9522 28.8902 29.2933 27.9967 29.2933H27.3886C26.4951 29.2933 25.7577 29.9522 25.6341 30.8595L25.6179 30.9804H21.2358C20.7504 30.9796 20.3561 30.5751 20.3561 30.0773ZM26.6033 30.9796C26.665 30.5801 26.9927 30.2924 27.3886 30.2924H27.9967C28.3927 30.2924 28.7203 30.5801 28.7821 30.9796H26.6033ZM39.0244 37.0001H34.8423V35.8884C34.8423 35.0527 34.4797 34.3205 33.8211 33.8276C33.4959 33.5841 33.3016 33.1921 33.3016 32.7802C33.3016 32.7234 33.3049 32.6659 33.3122 32.6092C33.4138 31.8136 33.1683 31.0597 32.6195 30.4876C32.0309 29.8729 31.4171 29.2558 30.8228 28.6578C30.3959 28.2292 29.9553 27.7855 29.5341 27.3535C28.9455 26.7497 28.9455 25.7673 29.5341 25.1635C29.8179 24.8724 30.1967 24.7123 30.6016 24.7123C31.0065 24.7123 31.3854 24.8724 31.6691 25.1635L34.6024 28.1725C34.8382 28.4143 35.1894 28.486 35.4976 28.3551C35.8057 28.2242 36.0049 27.9189 36.0049 27.577V18.9204L38.5854 23.7032C38.8886 24.2661 39.0244 24.804 39.0244 25.4479V37.0001ZM27.6927 23.4655C31.074 23.4655 33.8244 20.6442 33.8244 17.1757C33.8244 13.7072 31.074 10.8859 27.6927 10.8859C24.3114 10.8859 21.561 13.7072 21.561 17.1757C21.561 20.6442 24.3114 23.4655 27.6927 23.4655ZM27.6927 11.8866C30.5358 11.8866 32.8488 14.2593 32.8488 17.1757C32.8488 20.0921 30.5358 22.4647 27.6927 22.4647C24.8496 22.4647 22.5366 20.0921 22.5366 17.1757C22.5366 14.2593 24.8496 11.8866 27.6927 11.8866ZM23.9033 16.4376C23.713 16.2416 23.713 15.9256 23.9041 15.7304C24.9154 14.6946 26.2602 14.125 27.6886 14.125C29.122 14.125 30.4691 14.6988 31.4813 15.7396C31.6715 15.9356 31.6707 16.2525 31.4805 16.4476C31.3854 16.5452 31.261 16.5936 31.1358 16.5936C31.0106 16.5936 30.8854 16.5444 30.7902 16.4468C29.9618 15.5953 28.8602 15.1266 27.6878 15.1266C26.5195 15.1266 25.4195 15.5928 24.5927 16.4401C24.4024 16.6336 24.0935 16.6336 23.9033 16.4376ZM29.8431 17.42C30.0333 17.616 30.0325 17.9329 29.8415 18.1272C29.7463 18.2248 29.622 18.2732 29.4976 18.2732C29.3724 18.2732 29.2472 18.224 29.152 18.1256C28.7618 17.7236 28.2423 17.5018 27.6886 17.5018C27.139 17.5018 26.6211 17.7211 26.2317 18.1189C26.0406 18.3141 25.7317 18.3132 25.5415 18.1172C25.3512 17.9213 25.352 17.6043 25.5431 17.41C26.1171 16.8237 26.8789 16.501 27.6886 16.501C28.5033 16.5018 29.2683 16.8279 29.8431 17.42ZM27.6967 18.4333C26.9911 18.4333 26.4163 19.0221 26.4163 19.7468C26.4163 20.4715 26.9902 21.0603 27.6967 21.0603C28.4033 21.0603 28.9772 20.4715 28.9772 19.7468C28.9772 19.0221 28.4024 18.4333 27.6967 18.4333ZM27.6967 20.0587C27.5285 20.0587 27.3919 19.9186 27.3919 19.746C27.3919 19.5734 27.5285 19.4333 27.6967 19.4333C27.865 19.4333 28.0016 19.5734 28.0016 19.746C28.0016 19.9186 27.8642 20.0587 27.6967 20.0587Z" fill="#003A79"/>
</svg>
