<svg width="40" height="40" viewBox="0 0 40 40" fill="none" xmlns="http://www.w3.org/2000/svg">
<path d="M14.3477 28.8566C10.6622 28.8566 6.98924 27.452 4.19454 24.6902C-1.39811 19.1538 -1.39811 10.1458 4.19414 4.60979C6.907 1.9242 10.5115 0.44538 14.3441 0.44538C18.1766 0.44538 21.7791 1.9242 24.4879 4.60979C29.6644 9.73469 30.1216 17.8567 25.5509 23.5032C25.2236 23.9171 24.8759 24.3053 24.4875 24.6898C24.1003 25.0735 23.7074 25.4185 23.2868 25.7442C20.6602 27.8288 17.4995 28.8566 14.3477 28.8566ZM14.3441 1.27085C10.7342 1.27085 7.33899 2.66382 4.78369 5.19342C-0.483647 10.4078 -0.483647 18.8918 4.78369 24.1062C9.66709 28.9324 17.3993 29.3592 22.7689 25.0973C23.1667 24.7894 23.5347 24.4661 23.8979 24.1062C24.2627 23.745 24.5888 23.3811 24.8958 22.9929C24.8967 22.9917 24.8979 22.9905 24.8987 22.9893C29.2047 17.6713 28.7744 10.0209 23.8979 5.19342C21.3467 2.66382 17.9539 1.27085 14.3441 1.27085Z" fill="#003A79"/>
<path d="M14.342 25.4741C11.54 25.4741 8.73837 24.4181 6.6053 22.3069C2.33955 18.0837 2.33955 11.2123 6.6053 6.98905C10.8714 2.7666 17.8126 2.7666 22.0787 6.98905C26.3445 11.2123 26.3445 18.0837 22.0787 22.3069C19.9457 24.4181 17.144 25.4741 14.342 25.4741ZM14.342 4.64687C11.7537 4.64687 9.16548 5.62227 7.19485 7.57268C3.25443 11.4739 3.25443 17.8221 7.19485 21.7233C11.1353 25.6233 17.5479 25.6241 21.4892 21.7233C25.4296 17.8221 25.4296 11.4739 21.4892 7.57268C19.5186 5.62227 16.9303 4.64687 14.342 4.64687Z" fill="#003A79"/>
<path d="M25.3706 28.0493C25.2639 28.0493 25.1572 28.009 25.0758 27.9284L22.7888 25.664C22.7045 25.5806 22.6602 25.4649 22.6675 25.3472C22.6748 25.2291 22.7326 25.1199 22.8267 25.0469C23.1992 24.7587 23.5498 24.4504 23.8979 24.1062C24.2456 23.7615 24.5567 23.4149 24.8478 23.0461C24.9215 22.953 25.0322 22.8954 25.1515 22.8885C25.2712 22.8813 25.3873 22.9252 25.4716 23.009L27.7589 25.2815C27.8371 25.3593 27.8811 25.4641 27.8807 25.5737C27.8803 25.6833 27.8363 25.7881 27.7581 25.8655L25.6649 27.9292C25.5835 28.0094 25.4768 28.0493 25.3706 28.0493ZM23.7049 25.4036L25.3714 27.0533L26.8742 25.5717L25.2077 23.9163C24.9822 24.1799 24.7444 24.4355 24.4875 24.6898C24.2301 24.9441 23.9716 25.1803 23.7049 25.4036Z" fill="#003A79"/>
<path d="M32.554 37.8239C32.4473 37.8239 32.3406 37.7836 32.2592 37.703L25.3185 30.832C25.1556 30.6708 25.1556 30.4096 25.3185 30.2484L30.1009 25.5141C30.2637 25.3528 30.5276 25.3528 30.6904 25.5141L37.6312 32.385C37.794 32.5462 37.794 32.8074 37.6312 32.9686L32.8488 37.703C32.7673 37.7836 32.6607 37.8239 32.554 37.8239ZM26.2028 30.5402L32.554 36.8275L36.7468 32.6768L30.3957 26.3895L26.2028 30.5402Z" fill="#003A79"/>
<path d="M24.5347 31.5603C24.1235 31.5603 23.7371 31.4019 23.4476 31.115C23.1577 30.828 22.9977 30.4455 22.9977 30.0384C22.9977 29.6313 23.1577 29.2488 23.4476 28.9622L28.8013 23.662C29.4006 23.0687 30.3769 23.0687 30.9763 23.662C31.5756 24.2557 31.5756 25.2214 30.9763 25.8147L25.6222 31.115C25.3323 31.4019 24.9459 31.5603 24.5347 31.5603ZM29.8888 24.0421C29.7002 24.0421 29.5235 24.1146 29.3908 24.2456L24.0372 29.5459C23.9044 29.6768 23.8315 29.8518 23.8315 30.0384C23.8315 30.225 23.9048 30.3999 24.0372 30.5313C24.3018 30.7941 24.7672 30.7933 25.0326 30.5313L30.3867 25.2311C30.6611 24.9594 30.6611 24.5173 30.3867 24.2456C30.254 24.1142 30.0773 24.0421 29.8888 24.0421Z" fill="#003A79"/>
<path d="M33.0609 40C32.6668 40 32.273 39.8517 31.9734 39.555C31.3736 38.9617 31.3736 37.9956 31.9734 37.4023L37.3274 32.1021C37.9064 31.5281 38.9223 31.5281 39.502 32.1021C40.1018 32.6954 40.1018 33.6615 39.502 34.2548L34.148 39.555C33.8483 39.8517 33.4546 40 33.0609 40ZM38.4145 32.4821C38.226 32.4821 38.0493 32.5543 37.917 32.6857L32.5629 37.9859C32.2885 38.2576 32.2885 38.6997 32.5629 38.9714C32.837 39.2422 33.2836 39.2431 33.5584 38.9714L38.9125 33.6712C39.0448 33.5402 39.1177 33.3652 39.1177 33.1786C39.1177 32.992 39.0448 32.8167 38.9125 32.6857C38.7798 32.5547 38.6031 32.4821 38.4145 32.4821Z" fill="#003A79"/>
<path d="M33.2441 4.63921H30.7926C30.166 4.63921 29.6754 4.15353 29.6754 3.53322V1.10599C29.6754 0.496166 30.1766 0 30.7926 0H33.2441C33.8601 0 34.3613 0.496166 34.3613 1.10599V3.53322C34.3613 4.14305 33.8601 4.63921 33.2441 4.63921ZM30.7926 0.825465C30.6363 0.825465 30.5093 0.95122 30.5093 1.10599V3.53322C30.5093 3.69323 30.631 3.81375 30.7926 3.81375H33.2441C33.4005 3.81375 33.5275 3.68799 33.5275 3.53322V1.10599C33.5275 0.954041 33.3976 0.825465 33.2441 0.825465H30.7926Z" fill="#003A79"/>
<path d="M39.5831 1.63279H36.4211C36.1907 1.63279 36.0042 1.44819 36.0042 1.22006C36.0042 0.991929 36.1907 0.807328 36.4211 0.807328H39.5831C39.8135 0.807328 40 0.991929 40 1.22006C40 1.44819 39.8135 1.63279 39.5831 1.63279Z" fill="#003A79"/>
<path d="M37.95 3.8339H36.4211C36.1907 3.8339 36.0042 3.6493 36.0042 3.42117C36.0042 3.19304 36.1907 3.00843 36.4211 3.00843H37.95C38.1804 3.00843 38.3669 3.19304 38.3669 3.42117C38.3669 3.6493 38.1804 3.8339 37.95 3.8339Z" fill="#003A79"/>
<path d="M33.2441 10.1535H30.7926C30.1766 10.1535 29.6754 9.6573 29.6754 9.04707V6.62025C29.6754 5.99994 30.166 5.51425 30.7926 5.51425H33.2441C33.8601 5.51425 34.3613 6.01042 34.3613 6.62025V9.04707C34.3613 9.6573 33.8601 10.1535 33.2441 10.1535ZM30.7926 6.33972C30.631 6.33972 30.5093 6.46023 30.5093 6.62025V9.04707C30.5093 9.20184 30.6363 9.328 30.7926 9.328H33.2441C33.3976 9.328 33.5275 9.19942 33.5275 9.04707V6.62025C33.5275 6.46547 33.4005 6.33972 33.2441 6.33972H30.7926Z" fill="#003A79"/>
<path d="M39.5831 7.14422H36.4211C36.1907 7.14422 36.0042 6.95962 36.0042 6.73149C36.0042 6.50336 36.1907 6.31876 36.4211 6.31876H39.5831C39.8135 6.31876 40 6.50336 40 6.73149C40 6.95962 39.8135 7.14422 39.5831 7.14422Z" fill="#003A79"/>
<path d="M37.95 9.34573H36.4211C36.1907 9.34573 36.0042 9.16113 36.0042 8.933C36.0042 8.70487 36.1907 8.52027 36.4211 8.52027H37.95C38.1804 8.52027 38.3669 8.70487 38.3669 8.933C38.3669 9.16113 38.1804 9.34573 37.95 9.34573Z" fill="#003A79"/>
<path d="M33.2441 15.6673H30.7926C30.1766 15.6673 29.6754 15.1675 29.6754 14.5529V12.1345C29.6754 11.5198 30.1766 11.02 30.7926 11.02H33.2441C33.8601 11.02 34.3613 11.5198 34.3613 12.1345V14.5529C34.3613 15.1675 33.8601 15.6673 33.2441 15.6673ZM30.7926 11.8455C30.6338 11.8455 30.5093 11.9725 30.5093 12.1345V14.5529C30.5093 14.7149 30.6338 14.8418 30.7926 14.8418H33.2441C33.4005 14.8418 33.5275 14.7121 33.5275 14.5529V12.1345C33.5275 11.9753 33.4005 11.8455 33.2441 11.8455H30.7926Z" fill="#003A79"/>
<path d="M39.5831 12.6561H36.4211C36.1907 12.6561 36.0042 12.4715 36.0042 12.2433C36.0042 12.0152 36.1907 11.8306 36.4211 11.8306H39.5831C39.8135 11.8306 40 12.0152 40 12.2433C40 12.4715 39.8135 12.6561 39.5831 12.6561Z" fill="#003A79"/>
<path d="M37.95 14.8572H36.4211C36.1907 14.8572 36.0042 14.6726 36.0042 14.4444C36.0042 14.2163 36.1907 14.0317 36.4211 14.0317H37.95C38.1804 14.0317 38.3669 14.2163 38.3669 14.4444C38.3669 14.6726 38.1804 14.8572 37.95 14.8572Z" fill="#003A79"/>
<path d="M15.3461 21.0558C14.136 21.0558 12.623 20.5391 11.1707 18.6234C9.77946 16.7806 9.1268 14.3965 9.332 11.9092C9.48224 10.0801 9.8442 8.4977 10.4085 7.2063C10.5311 6.92778 10.8193 6.76414 11.1202 6.79437C11.4231 6.82621 11.6674 7.04668 11.7285 7.34334C11.9362 8.29939 12.5229 10.0277 14.1079 10.8133C14.1946 10.8338 17.7556 11.9426 18.9828 14.6165C19.5674 15.8902 19.5218 17.2937 18.8476 18.7882C18.3435 19.9152 17.3623 20.7293 16.2227 20.9663C15.9556 21.0207 15.6608 21.0558 15.3461 21.0558ZM11.0135 7.92414C10.5771 9.05835 10.2908 10.4195 10.1634 11.9765C9.97408 14.2631 10.5689 16.4476 11.838 18.1284C13.0961 19.7886 14.5151 20.4702 16.0533 20.1582C16.9295 19.976 17.69 19.3384 18.0854 18.4529C18.0858 18.4525 18.0858 18.4521 18.0862 18.4512C18.6587 17.182 18.7051 16.0067 18.2238 14.9579C17.1502 12.6186 13.8323 11.5871 13.7989 11.5771C12.0628 10.7222 11.3262 9.06077 11.0135 7.92414Z" fill="#003A79"/>
<path d="M18.9714 22.5052C18.8883 22.5052 18.8044 22.4806 18.7315 22.4298C16.7906 21.076 15.8725 19.8672 16.0028 18.8378C16.3456 16.1236 13.4776 14.9362 13.4487 14.9245C13.2354 14.8386 13.1328 14.5976 13.2195 14.3864C13.3062 14.1752 13.5497 14.0744 13.763 14.1595C13.7981 14.1736 17.2515 15.6044 16.8301 18.9402C16.745 19.6137 17.6131 20.6399 19.212 21.7551C19.4001 21.8865 19.4453 22.1441 19.3125 22.3303C19.2315 22.4444 19.1025 22.5052 18.9714 22.5052Z" fill="#003A79"/>
<path d="M15.6628 18.5504C14.5008 18.5504 13.4964 18.1401 13.4447 18.1183C13.2325 18.0305 13.1328 17.789 13.2215 17.5786C13.3099 17.3682 13.5554 17.2703 13.7667 17.3569C13.7801 17.3618 15.1266 17.9103 16.3505 17.6592C16.57 17.6133 16.7963 17.7568 16.8432 17.9801C16.8896 18.203 16.7446 18.4214 16.5191 18.4678C16.232 18.5266 15.9429 18.5504 15.6628 18.5504Z" fill="#003A79"/>
<path d="M15.3721 16.1981C15.241 16.1981 15.1119 16.1373 15.0305 16.0228C14.8982 15.8362 14.9434 15.579 15.1319 15.4476C15.4678 15.2139 15.307 14.4013 15.182 14.0664C15.1022 13.8523 15.2129 13.6153 15.4287 13.5359C15.6449 13.4569 15.8847 13.5666 15.9645 13.7802C16.028 13.9507 16.5586 15.4642 15.6115 16.1232C15.5386 16.174 15.4548 16.1981 15.3721 16.1981Z" fill="#003A79"/>
</svg>
