<svg width="32" height="44" viewBox="0 0 32 44" fill="none" xmlns="http://www.w3.org/2000/svg">
<path fill-rule="evenodd" clip-rule="evenodd" d="M8.25158 39.8641L8.58579 40.4555C8.58614 40.4561 8.58641 40.4567 8.58676 40.4572C8.98506 41.1668 8.73228 42.0722 8.02804 42.4706L6.55013 43.3097C6.54943 43.31 6.54873 43.3104 6.54803 43.3108C5.83959 43.7098 4.93571 43.4566 4.53776 42.7508L0.191755 35.0589C-0.210229 34.3486 0.0425538 33.4423 0.747843 33.0433L2.22751 32.2042L2.22812 32.204C2.93297 31.8052 3.83728 32.0556 4.23865 32.7617L4.23953 32.7632L4.49319 33.2121L8.20912 31.0572C9.41778 30.3571 10.655 29.9121 11.9825 30.3439C13.2214 30.7463 15.2438 31.615 17.3081 31.9886C17.339 31.9942 17.3695 32.0018 17.3993 32.0115C18.5357 32.3801 19.2225 33.533 18.9123 34.6888C18.9024 34.7256 18.8919 34.7618 18.8807 34.7976C18.9688 34.7579 19.0562 34.7128 19.143 34.6621L24.4128 31.5879C26.4064 30.4246 27.7391 30.5801 28.4914 31.0856C29.1615 31.5359 29.4755 32.303 29.4555 33.0577C29.4352 33.8221 29.0662 34.5493 28.4679 34.9184L18.9058 40.8153C17.857 41.4637 16.7083 41.6165 15.5182 41.2985L15.5174 41.2983L8.86126 39.5115L8.25158 39.8641ZM5.18324 34.4334L7.56161 38.6428L8.41208 38.1509C8.57292 38.0578 8.76415 38.0327 8.94365 38.0808L15.8795 39.9427C16.6839 40.1576 17.4611 40.0594 18.1699 39.6211L18.1706 39.6208L27.7332 33.7236C27.9528 33.5881 28.0476 33.301 28.055 33.0205C28.0784 32.1405 27.1884 31.5922 25.1179 32.8004L19.8484 35.8745C18.9666 36.3891 18.0427 36.5327 17.0357 36.3721C17.0348 36.372 17.034 36.3719 17.0332 36.3718L16.3801 36.2653C16.3799 36.2652 16.3796 36.2652 16.3793 36.2651C16.3698 36.2636 16.3604 36.2619 16.351 36.2599C16.3506 36.2599 16.3503 36.2598 16.35 36.2598C15.1574 36.0145 14.0512 35.6539 12.8237 35.3235C12.4504 35.2229 12.2287 34.8378 12.329 34.4638C12.4294 34.0898 12.814 33.8679 13.1874 33.9684C14.3764 34.2884 15.4485 34.6396 16.6025 34.8792C17.0864 34.9302 17.4477 34.741 17.5592 34.3247L17.5593 34.3244C17.6712 33.908 17.4071 33.5087 17.0057 33.3597C14.8901 32.9684 12.8204 32.0912 11.5502 31.6787L11.5498 31.6785C10.6147 31.3744 9.76198 31.7787 8.91055 32.2719L5.18324 34.4334ZM3.02114 33.4559L3.02062 33.455C2.99943 33.419 2.95337 33.4052 2.91712 33.4257L1.43807 34.2644L1.43746 34.2648C1.40174 34.285 1.39018 34.3311 1.41049 34.367L1.41075 34.3674L5.75693 42.0596L5.75728 42.0602C5.77777 42.0965 5.8247 42.1082 5.86121 42.0878L7.3372 41.2498L7.33816 41.2493C7.3745 41.2287 7.38606 41.1817 7.36566 41.1451L3.02114 33.4559ZM2.62021 34.1772C2.95565 34.1272 3.2671 34.3592 3.31701 34.6952C3.3649 35.0311 3.13331 35.3451 2.79787 35.3932C2.46243 35.4432 2.15098 35.2092 2.10107 34.8732C2.05318 34.5372 2.28477 34.2252 2.62021 34.1772ZM20.4593 0.248988C22.9055 3.14677 26.5305 6.95903 29.0417 10.8762C30.7845 13.5947 31.9853 16.3722 31.9853 18.9421C31.9853 25.6124 26.5842 31.0223 19.9248 31.0223C13.2634 31.0223 7.86431 25.6124 7.86431 18.9421C7.86431 16.3723 9.06483 13.5948 10.8073 10.8762C13.3182 6.95903 16.9431 3.14668 19.3905 0.2489C19.5235 0.0913861 19.7189 0.000526213 19.9249 0.000613916C20.1308 0.000613916 20.3263 0.0914738 20.4593 0.248988ZM19.9247 1.78045C17.5385 4.55036 14.2854 8.04522 11.9853 11.6337C10.4026 14.1029 9.26412 16.608 9.26412 18.9421C9.26412 24.8383 14.0365 29.6203 19.9248 29.6203C25.8113 29.6203 30.5856 24.8383 30.5856 18.9421C30.5856 16.608 29.4469 14.1029 27.8639 11.6338C25.5634 8.04531 22.31 4.55045 19.9247 1.78045ZM21.9114 11.5553C22.3793 11.6938 22.8308 11.8812 23.2598 12.115L24.1246 11.7299C24.3894 11.6119 24.6995 11.6695 24.9045 11.8748L26.3073 13.28C26.5121 13.4851 26.5697 13.7952 26.4524 14.0603L26.0693 14.9267C26.303 15.357 26.4903 15.8101 26.6287 16.2803L27.5104 16.6202C27.7809 16.7244 27.9593 16.9848 27.9593 17.275V19.2626C27.9593 19.5529 27.7809 19.8132 27.5104 19.9174L26.6282 20.2574C26.4896 20.7261 26.3017 21.1784 26.0689 21.6081L26.4524 22.4753C26.5697 22.7404 26.5121 23.0505 26.3073 23.2556L24.9045 24.6607C24.6998 24.8658 24.3901 24.9236 24.1255 24.8061L23.2608 24.4225C22.8322 24.6563 22.3795 24.8439 21.9112 24.9824L21.5717 25.8658C21.4677 26.1367 21.2078 26.3154 20.918 26.3154H18.9336C18.6439 26.3154 18.384 26.1367 18.2799 25.8658L17.9405 24.9825C17.4714 24.8436 17.0192 24.6553 16.59 24.4219L15.7242 24.8061C15.4595 24.9236 15.1499 24.8658 14.9452 24.6607L13.5423 23.2556C13.3374 23.0503 13.2798 22.7397 13.3976 22.4744L13.7819 21.6087C13.5487 21.1797 13.3614 20.7266 13.2221 20.2577L12.3393 19.9174C12.0688 19.8132 11.8904 19.5529 11.8904 19.2626V17.275C11.8904 16.9848 12.0688 16.7244 12.3393 16.6202L13.2219 16.28C13.3612 15.8101 13.5486 15.3573 13.7821 14.9273L13.3976 14.0612C13.2798 13.7959 13.3374 13.4853 13.5423 13.28L14.9452 11.8748C15.1502 11.6695 15.4602 11.6119 15.7251 11.7299L16.5898 12.1151C17.019 11.8812 17.4708 11.6937 17.9389 11.5551L18.2802 10.6692C18.3844 10.3986 18.6441 10.2202 18.9336 10.2202H20.918C21.2079 10.2202 21.4679 10.3991 21.5719 10.6702L21.9114 11.5553ZM20.7317 12.3925L20.4368 11.6234H19.4142L19.1175 12.3933C19.0344 12.6091 18.8505 12.7699 18.6259 12.8234C18.0511 12.9603 17.5029 13.1878 16.999 13.4987C16.8022 13.6202 16.5581 13.6366 16.347 13.5425L15.5956 13.2079L14.8732 13.9315L15.2073 14.684C15.3012 14.8957 15.2849 15.14 15.1636 15.3372C14.8528 15.8424 14.6255 16.3921 14.487 16.9704C14.4332 17.1949 14.2726 17.3784 14.0575 17.4614L13.2913 17.7567V18.7808L14.0575 19.0762C14.2724 19.1591 14.433 19.3425 14.4868 19.5668C14.6254 20.1429 14.8523 20.6942 15.163 21.1975C15.2848 21.3948 15.3013 21.6396 15.2073 21.8515L14.8732 22.6041L15.5961 23.3282L16.3478 22.9947C16.5583 22.9013 16.8012 22.9175 16.9974 23.0379C17.5018 23.3474 18.0504 23.5771 18.6275 23.7141C18.8525 23.7675 19.0367 23.9286 19.1198 24.1448L19.4146 24.9122H20.437L20.7319 24.1448C20.8149 23.9288 20.9989 23.7677 21.2237 23.7142C21.7981 23.5774 22.3479 23.3502 22.8497 23.0394C23.0464 22.9177 23.2904 22.9009 23.5019 22.9947L24.2535 23.3282L24.977 22.6036L24.644 21.8507C24.5507 21.6398 24.5668 21.3965 24.6871 21.1999C24.9961 20.6947 25.2255 20.1451 25.3623 19.5687C25.4157 19.3436 25.5766 19.1593 25.7922 19.0762L26.5584 18.7808V17.7567L25.7922 17.4614C25.5764 17.3782 25.4155 17.1937 25.3622 16.9683C25.2256 16.3908 24.9985 15.8418 24.6881 15.3372C24.567 15.1404 24.5505 14.8964 24.644 14.6849L24.977 13.932L24.2541 13.2079L23.5027 13.5425C23.2915 13.6366 23.0475 13.6202 22.8507 13.4987C22.3468 13.1878 21.7986 12.9603 21.2237 12.8234C20.9987 12.7699 20.8147 12.6086 20.7317 12.3925ZM19.9248 14.0993C22.2242 14.0993 24.0884 15.9647 24.0884 18.2678C24.0884 20.5708 22.2241 22.4383 19.9248 22.4383C17.6255 22.4383 15.7632 20.5709 15.7632 18.2678C15.7632 15.9646 17.6253 14.0993 19.9248 14.0993ZM19.9248 15.5026C18.3994 15.5026 17.1641 16.7399 17.1641 18.2678C17.1641 19.7958 18.3993 21.035 19.9248 21.035C21.4504 21.035 22.6875 19.7959 22.6875 18.2678C22.6875 16.7398 21.4503 15.5026 19.9248 15.5026ZM5.37832 10.7743C2.41804 10.7743 0 8.35587 0 5.38713C0 2.42208 2.41804 0 5.37832 0C8.3422 0 10.7566 2.42208 10.7566 5.38713C10.7566 8.35587 8.3422 10.7743 5.37832 10.7743ZM5.37832 9.37102C7.5702 9.37102 9.3557 7.58259 9.3557 5.38713C9.3557 3.19439 7.5702 1.40324 5.37832 1.40324C3.18917 1.40324 1.40095 3.19439 1.40095 5.38713C1.40095 7.58259 3.18917 9.37102 5.37832 9.37102ZM2.68553 6.01552C2.41217 5.74171 2.41217 5.29706 2.68553 5.02325C2.95889 4.74945 3.40281 4.74945 3.67617 5.02325L4.48706 5.83547L7.10832 3.45364C7.39464 3.19343 7.83804 3.21509 8.09774 3.50188C8.35753 3.78867 8.3359 4.23279 8.04958 4.49292L4.93414 7.32378C4.65745 7.57523 4.23235 7.56488 3.96818 7.30028L2.68553 6.01552Z" fill="#003A79"/>
</svg>
