<svg width="32" height="40" viewBox="0 0 32 40" fill="none" xmlns="http://www.w3.org/2000/svg">
<path d="M31.1401 23.6971C31.5701 23.8789 32 23.5759 32 23.1516V2.42451C32 2.18209 31.8772 2.00027 31.6315 1.87906C26.5336 -0.605772 21.2514 -0.605772 16.0307 1.75785C10.8714 -0.605772 5.58925 -0.605772 0.368522 1.87906C0.184261 1.93966 0 2.18209 0 2.42451V23.1516C0 23.5759 0.491363 23.8789 0.859885 23.6971C5.71209 21.3941 10.5643 21.3941 15.3551 23.5153V26.1213C15.1708 25.8789 14.9866 25.6365 14.8023 25.4546C13.0825 23.7577 10.4415 23.6971 9.88868 23.6971H9.82726C9.52015 23.6971 9.21305 23.9395 9.21305 24.3031C9.21305 24.4244 9.15163 27.394 10.9942 29.2122C12.3455 30.5455 14.3109 30.9092 15.3551 30.9698C15.3551 31.1516 15.3551 35.5152 15.3551 35.2728C9.02879 35.3334 2.02687 36.4243 2.02687 39.3939C2.02687 39.7576 2.27255 40 2.64107 40H29.3589C29.7274 40 29.9731 39.7576 29.9731 39.3939C29.9731 39.3333 29.9731 39.2727 29.9731 39.2727C29.7889 36.3637 22.8484 35.3334 16.6449 35.2728V33.4546C17.6276 33.394 19.6545 33.0304 21.0058 31.697C22.8484 29.8789 22.7869 26.9092 22.7869 26.788C22.7869 26.4849 22.5413 26.1819 22.1727 26.1819H22.1113C21.62 26.1819 18.9175 26.2425 17.1977 27.9395C17.0134 28.1213 16.7678 28.3637 16.6449 28.6061V23.4547C21.4971 21.3335 26.3493 21.3941 31.1401 23.6971ZM16.6449 2.78814C21.3743 0.666946 26.1036 0.666946 30.833 2.78814V22.1819C26.1036 20.2426 21.3743 20.2426 16.6449 22.1819V2.78814ZM11.9155 28.3637C10.8714 27.3334 10.5643 25.8183 10.5029 24.9698C11.3628 25.0304 12.8983 25.3334 13.9424 26.3637C14.9866 27.394 15.2937 28.9092 15.3551 29.7576C14.5566 29.6364 12.9597 29.394 11.9155 28.3637ZM1.22841 22.1819V2.78814C5.95777 0.666946 10.6871 0.666946 15.4165 2.78814V22.1819C10.6871 20.2426 5.95777 20.2426 1.22841 22.1819ZM28.499 38.7879H3.56238C6.57198 35.697 25.4894 35.697 28.499 38.7879ZM18.0576 28.8486C19.1017 27.8183 20.6372 27.5758 21.4971 27.4546C21.4357 28.3031 21.1286 29.8183 20.0845 30.8486C19.0403 31.8788 17.5048 32.1819 16.6449 32.2425C16.7678 31.394 17.0749 29.8789 18.0576 28.8486Z" fill="#003A79"/>
<path d="M3.56238 14.9699C3.6238 15.2729 3.9309 15.5153 4.29942 15.4547C5.65067 15.1517 7.00192 15.0305 8.35317 15.0305H8.90595C9.27447 15.0305 9.52015 14.7881 9.52015 14.4244C9.52015 14.0608 9.27447 13.8184 8.90595 13.8184C7.30902 13.7578 5.65067 13.9396 4.05374 14.2426C3.68522 14.3638 3.50096 14.6668 3.56238 14.9699Z" fill="#003A79"/>
<path d="M12.6526 14.2426C12.0998 14.1214 11.547 14.0002 10.9942 13.9396C10.6871 13.879 10.38 14.1214 10.3186 14.485C10.2572 14.7881 10.5029 15.0911 10.8714 15.1517C11.3628 15.2123 11.9155 15.3335 12.4683 15.3941C12.7754 15.4547 13.144 15.2729 13.2054 14.9093C13.2054 14.6668 12.9597 14.3638 12.6526 14.2426Z" fill="#003A79"/>
<path d="M12.3455 8.7275C12.6526 8.84871 13.0211 8.66689 13.144 8.36386C13.2668 8.06083 13.0825 7.6972 12.7754 7.57599C12.2841 7.39417 11.8541 7.27296 11.4242 7.21235C11.1171 7.15175 10.7486 7.33357 10.6871 7.6972C10.6257 8.00023 10.81 8.36386 11.1785 8.42447C11.4242 8.48507 11.8541 8.60628 12.3455 8.7275Z" fill="#003A79"/>
<path d="M3.56238 8.36386C3.68522 8.66689 3.99232 8.84871 4.36084 8.7275C6.01919 8.18204 7.61612 8.00023 9.21305 8.12144C9.58157 8.12144 9.82726 7.87902 9.88868 7.57599C9.88868 7.27296 9.64299 6.96993 9.33589 6.90933C7.5547 6.78812 5.83493 7.03054 4.05374 7.57599C3.6238 7.6972 3.50096 8.06083 3.56238 8.36386Z" fill="#003A79"/>
<path d="M12.714 10.9699C10.8714 10.3638 8.96737 10.182 7.12476 10.3032C6.81766 10.3638 6.51056 10.6063 6.57198 10.9699C6.6334 11.2729 6.87908 11.576 7.2476 11.5154C8.90595 11.3335 10.6257 11.576 12.3455 12.1214C12.6526 12.2426 13.0211 12.0608 13.144 11.7578C13.2054 11.4547 13.0211 11.0911 12.714 10.9699Z" fill="#003A79"/>
<path d="M4.36085 12.1214C4.66795 12.0002 5.03647 11.9396 5.34357 11.8184C5.65067 11.7578 5.89635 11.3941 5.77351 11.0911C5.65067 10.7881 5.34357 10.5457 5.03647 10.6669C4.66795 10.7275 4.36084 10.8487 3.99232 10.9699C3.68522 11.0911 3.50096 11.3941 3.6238 11.7578C3.68522 12.0608 4.05374 12.2426 4.36085 12.1214Z" fill="#003A79"/>
<path d="M5.46641 17.4547C4.97505 17.5153 4.48369 17.5759 4.05374 17.6971C3.74664 17.7577 3.50096 18.0608 3.56238 18.4244C3.6238 18.7274 3.99232 18.9698 4.29942 18.9092C4.72937 18.788 5.15931 18.7274 5.65067 18.6668C5.95777 18.6062 6.20346 18.3032 6.20346 18.0002C6.20346 17.6971 5.77351 17.3941 5.46641 17.4547Z" fill="#003A79"/>
<path d="M12.6526 17.6971C10.9328 17.3335 9.21305 17.2123 7.5547 17.2729C7.18618 17.2729 6.9405 17.5759 6.9405 17.8789C6.9405 18.2426 7.2476 18.485 7.5547 18.485C9.15163 18.4244 10.7486 18.5456 12.3455 18.9092C12.6526 18.9698 13.0211 18.788 13.0825 18.4244C13.2054 18.0608 12.9597 17.7577 12.6526 17.6971Z" fill="#003A79"/>
<path d="M12.714 4.18207C10.9328 3.57602 9.15163 3.3942 7.37044 3.51541C7.00192 3.51541 6.75624 3.81844 6.81766 4.18207C6.87908 4.54571 7.12476 4.78813 7.49328 4.72752C9.09021 4.60631 10.6871 4.78813 12.3455 5.33358H12.5298C12.7754 5.33358 13.0211 5.15176 13.144 4.90934C13.2054 4.60631 13.0211 4.30328 12.714 4.18207Z" fill="#003A79"/>
<path d="M4.17658 5.39419H4.36085C4.72937 5.27297 5.09789 5.15176 5.52783 5.09116C5.83493 5.03055 6.08062 4.66692 5.95777 4.36389C5.89635 4.06086 5.52783 3.81844 5.22073 3.93965C4.72937 4.06086 4.29943 4.18207 3.9309 4.30328C3.6238 4.4245 3.43954 4.72752 3.56238 5.09116C3.68522 5.21237 3.9309 5.39419 4.17658 5.39419Z" fill="#003A79"/>
<path d="M19.4088 14.2426C19.1017 14.3032 18.856 14.6062 18.9175 14.9699C18.9789 15.2729 19.286 15.5153 19.6545 15.4547C21.0058 15.1517 22.357 15.0305 23.7083 15.0305H24.261C24.6296 15.0305 24.8752 14.7881 24.8752 14.4244C24.8752 14.0608 24.6296 13.8184 24.261 13.8184C22.7255 13.7578 21.0672 13.9396 19.4088 14.2426Z" fill="#003A79"/>
<path d="M28.0077 14.2426C27.4549 14.1214 26.9021 14.0002 26.3493 13.9396C26.0422 13.879 25.7351 14.1214 25.6737 14.485C25.6123 14.7881 25.858 15.0911 26.2265 15.1517C27.3321 15.2729 27.762 15.4547 27.9463 15.4547C28.2534 15.4547 28.499 15.2729 28.5605 14.9699C28.5605 14.6668 28.3762 14.3638 28.0077 14.2426Z" fill="#003A79"/>
<path d="M27.7006 8.7275C28.0077 8.84871 28.3762 8.66689 28.499 8.36386C28.6219 8.06083 28.4376 7.6972 28.1305 7.57599C27.6392 7.39417 27.2092 7.27296 26.7793 7.21235C26.4722 7.15175 26.1036 7.33357 26.0422 7.6972C25.9808 8.00023 26.1651 8.36386 26.5336 8.42447C26.8407 8.48507 27.2092 8.60628 27.7006 8.7275Z" fill="#003A79"/>
<path d="M24.5681 8.12144C24.9367 8.12144 25.1823 7.87902 25.2438 7.57599C25.2438 7.27296 24.9981 6.96993 24.691 6.90933C22.9098 6.78812 21.19 7.03054 19.4088 7.57599C19.1017 7.6972 18.9175 8.00023 19.0403 8.36386C19.1632 8.66689 19.4703 8.84871 19.8388 8.7275C21.3743 8.24265 22.9712 8.00023 24.5681 8.12144Z" fill="#003A79"/>
<path d="M28.0691 10.9699C26.2265 10.3638 24.3225 10.182 22.4798 10.3032C22.1727 10.3638 21.8656 10.6063 21.9271 10.9699C21.9885 11.2729 22.2342 11.576 22.6027 11.5154C24.261 11.3335 25.9808 11.576 27.7006 12.1214C28.0077 12.2426 28.3762 12.0608 28.499 11.7578C28.5605 11.4547 28.4376 11.0911 28.0691 10.9699Z" fill="#003A79"/>
<path d="M19.7774 12.1214C20.0845 12.0002 20.453 11.9396 20.7601 11.8184C21.0672 11.7578 21.3129 11.3941 21.19 11.0911C21.0672 10.7881 20.7601 10.5457 20.453 10.6669C20.0845 10.7275 19.7774 10.8487 19.4088 10.9699C19.1017 11.0911 18.9175 11.3941 19.0403 11.7578C19.1017 12.0608 19.4088 12.2426 19.7774 12.1214Z" fill="#003A79"/>
<path d="M20.8215 17.4547C20.3301 17.5153 19.8388 17.5759 19.4088 17.6971C19.1017 17.7577 18.856 18.0608 18.9175 18.4244C18.9789 18.7274 19.3474 18.9698 19.6545 18.9092C20.0845 18.788 20.5144 18.7274 21.0058 18.6668C21.3129 18.6062 21.5585 18.3032 21.5585 18.0002C21.4971 17.6365 21.19 17.3941 20.8215 17.4547Z" fill="#003A79"/>
<path d="M27.762 18.8486C28.0691 18.9092 28.4376 18.7274 28.499 18.3638C28.5605 18.0608 28.3762 17.6971 28.0077 17.6365C26.2879 17.2729 24.5681 17.1517 22.9098 17.2123C22.5413 17.2123 22.2956 17.5153 22.2956 17.8183C22.2956 18.182 22.6027 18.4244 22.9098 18.4244C24.5681 18.3638 26.1651 18.5456 27.762 18.8486Z" fill="#003A79"/>
<path d="M22.8484 4.72752C24.4453 4.60631 26.0422 4.78813 27.7006 5.33358C28.0077 5.45479 28.3762 5.27297 28.499 4.96995C28.6219 4.66692 28.4376 4.30328 28.1305 4.18207C26.6564 3.69723 25.1823 3.4548 23.7697 3.4548C23.4626 3.4548 23.094 3.45481 22.7869 3.51541C22.4184 3.51541 22.1727 3.81844 22.2342 4.18207C22.2956 4.54571 22.4798 4.72752 22.8484 4.72752Z" fill="#003A79"/>
<path d="M19.7774 5.33358C20.1459 5.21237 20.5144 5.09116 20.9443 5.03055C21.2514 4.96995 21.4971 4.60631 21.3743 4.30328C21.2514 4.00026 20.9443 3.75783 20.6372 3.87904C20.1459 4.00026 19.7159 4.12147 19.3474 4.24268C19.0403 4.36389 18.856 4.66692 18.9789 5.03055C19.1017 5.27297 19.4088 5.45479 19.7774 5.33358Z" fill="#003A79"/>
</svg>
