<svg width="43" height="38" viewBox="0 0 43 38" fill="none" xmlns="http://www.w3.org/2000/svg">
<path d="M42.7101 24.2941C42.6973 24.2506 42.6845 24.2086 42.6638 24.1687C42.6431 24.1288 42.6175 24.0946 42.5897 24.059C42.5612 24.0219 42.5327 23.9877 42.4971 23.9571C42.4643 23.9286 42.4279 23.9065 42.3895 23.8844C42.3467 23.8595 42.3047 23.8381 42.2577 23.8224C42.2391 23.816 42.2256 23.8032 42.2064 23.7982C40.7835 23.4498 39.2958 23.8474 38.2235 24.8605C37.149 25.8887 35.3336 25.8922 34.2513 24.857C33.4448 24.0967 32.3917 23.6785 31.2859 23.6785C30.1801 23.6785 29.127 24.0975 28.3169 24.8605C27.2432 25.8887 25.4263 25.8922 24.3454 24.857C23.5389 24.0975 22.4822 23.6785 21.37 23.6785C20.2642 23.6785 19.2111 24.0975 18.3967 24.8648C17.3487 25.8823 15.5154 25.8972 14.4288 24.857C13.6223 24.0975 12.5692 23.6785 11.4634 23.6785C10.3462 23.6785 9.29171 24.0982 8.49442 24.8605C7.41641 25.893 5.58956 25.888 4.51297 24.857C3.70642 24.0975 2.65335 23.6785 1.54755 23.6785C1.19914 23.6785 0.859987 23.7191 0.539362 23.7996C0.52155 23.8039 0.508012 23.8167 0.490912 23.8224C0.443175 23.8381 0.400425 23.8602 0.357675 23.8858C0.319913 23.9079 0.283575 23.9293 0.2508 23.9578C0.215887 23.9884 0.1881 24.0226 0.158888 24.0597C0.1311 24.0953 0.104737 24.1295 0.0847875 24.1701C0.064125 24.21 0.0520125 24.2514 0.0391875 24.2948C0.02565 24.3418 0.0142501 24.3867 0.0106876 24.4366C0.00926257 24.4551 0 24.4715 0 24.4908V36.9032C0 37.2972 0.3192 37.6157 0.7125 37.6157H42.0375C42.4308 37.6157 42.75 37.2972 42.75 36.9032V24.4908C42.75 24.4708 42.74 24.4537 42.7386 24.4345C42.7343 24.3853 42.7236 24.3404 42.7101 24.2941ZM3.53186 25.8908C4.33485 26.6596 5.39291 27.0835 6.51082 27.0835C7.62232 27.0835 8.67683 26.6596 9.47981 25.8908C10.5357 24.8812 12.369 24.8727 13.4477 25.8908C14.2507 26.6596 15.3052 27.0835 16.4167 27.0835C17.5396 27.0835 18.5955 26.6582 19.3821 25.8944C20.4673 24.8698 22.2941 24.8819 23.3636 25.8908C24.1666 26.6596 25.2211 27.0835 26.3326 27.0835C27.4441 27.0835 28.4986 26.6596 29.298 25.8944C30.3796 24.8748 32.195 24.8791 33.2695 25.8908C34.0725 26.6596 35.127 27.0835 36.2385 27.0835C37.35 27.0835 38.4045 26.6596 39.2046 25.8937C39.7846 25.3458 40.5491 25.0736 41.3243 25.1106V30.4986C40.1893 30.4615 39.0749 30.8683 38.2263 31.6706C37.1305 32.7016 35.3457 32.703 34.2506 31.6706C33.4447 30.9111 32.3917 30.4921 31.2852 30.4921C30.1787 30.4921 29.1256 30.9111 28.3197 31.6706C27.2246 32.703 25.4398 32.703 24.344 31.6706C23.5389 30.9111 22.4815 30.4921 21.3686 30.4921C20.2621 30.4921 19.2083 30.9111 18.3996 31.6742C17.3308 32.6959 15.5282 32.708 14.4281 31.6706C13.623 30.9111 12.5699 30.4921 11.4627 30.4921C10.3448 30.4921 9.29029 30.9118 8.49727 31.6706C7.39717 32.7073 5.60168 32.698 4.51226 31.6706C3.70714 30.9111 2.65335 30.4921 1.54684 30.4921C1.5048 30.4921 1.46561 30.4978 1.42429 30.4993V25.1185C1.46704 25.1163 1.50337 25.1042 1.54684 25.1042C2.28784 25.1042 2.99464 25.3849 3.53186 25.8908ZM1.425 36.1907V31.9314C1.46775 31.9293 1.50337 31.9171 1.54755 31.9171C2.28926 31.9171 2.99535 32.1979 3.53542 32.7073C4.34839 33.4732 5.40502 33.8958 6.51082 33.8958C7.6095 33.8958 8.66329 33.4732 9.47981 32.7037C10.5343 31.6948 12.3647 31.6813 13.4513 32.7073C14.2643 33.4732 15.3173 33.8958 16.4167 33.8958C17.5275 33.8958 18.582 33.4725 19.3821 32.7073C20.4673 31.6827 22.292 31.6913 23.3679 32.7073C24.1808 33.4732 25.2339 33.8958 26.3333 33.8958C27.4327 33.8958 28.4857 33.4732 29.2987 32.7073C30.3796 31.687 32.1929 31.687 33.2745 32.7073C34.0874 33.4732 35.1405 33.8958 36.2399 33.8958C37.3393 33.8958 38.3916 33.474 39.206 32.7066C39.7867 32.1587 40.5498 31.8844 41.3257 31.9228V36.1907H1.425Z" fill="#003A79"/>
<path d="M25.0401 1.68007C24.23 0.612037 22.9973 0 21.6571 0C20.3169 0 19.0836 0.612037 18.2735 1.68007L9.68925 12.9988C8.70814 14.292 8.54711 15.9992 9.26959 17.4534C9.99206 18.9076 11.4491 19.8111 13.0729 19.8111H30.2413C31.8651 19.8111 33.3222 18.9076 34.0446 17.4534C34.7664 15.9992 34.6061 14.292 33.625 12.9988L25.0401 1.68007ZM32.7678 16.8193C32.2805 17.7997 31.3364 18.3853 30.2413 18.3853H13.0729C11.9778 18.3853 11.033 17.7997 10.5464 16.8193C10.059 15.8382 10.1638 14.7316 10.8257 13.8603L19.4099 2.54149C19.9478 1.83184 20.7672 1.425 21.6578 1.425C22.5485 1.425 23.3671 1.83184 23.9051 2.54149L32.4893 13.8603C33.1512 14.7324 33.2545 15.8382 32.7678 16.8193Z" fill="#003A79"/>
<path d="M21.6564 3.74489C19.9664 3.74489 18.592 5.12001 18.592 6.80935C18.592 8.21297 20.6197 12.131 21.0259 12.9019C21.1491 13.1363 21.3921 13.2824 21.6564 13.2824C21.9208 13.2824 22.163 13.1363 22.287 12.9019C22.6931 12.131 24.7209 8.21297 24.7209 6.80935C24.7209 5.12001 23.3465 3.74489 21.6564 3.74489ZM21.6564 10.9946C20.8442 9.33587 20.017 7.41996 20.017 6.80935C20.017 5.90519 20.7523 5.16989 21.6564 5.16989C22.5606 5.16989 23.2959 5.90519 23.2959 6.80935C23.2959 7.41925 22.4687 9.33516 21.6564 10.9946Z" fill="#003A79"/>
<path d="M21.6565 13.5781C20.5756 13.5781 19.6971 14.4566 19.6971 15.5374C19.6971 16.6183 20.5756 17.4968 21.6565 17.4968C22.7373 17.4968 23.6158 16.6183 23.6158 15.5374C23.6158 14.4566 22.7373 13.5781 21.6565 13.5781ZM21.6565 16.0718C21.3615 16.0718 21.1221 15.8317 21.1221 15.5374C21.1221 15.2432 21.3615 15.0031 21.6565 15.0031C21.9514 15.0031 22.1908 15.2432 22.1908 15.5374C22.1908 15.8317 21.9514 16.0718 21.6565 16.0718Z" fill="#003A79"/>
</svg>
