<svg width="55" height="55" viewBox="0 0 55 55" fill="none" xmlns="http://www.w3.org/2000/svg">
<path fill-rule="evenodd" clip-rule="evenodd" d="M2.48256 7.24903H2.27525C1.01953 7.24903 0 6.22951 0 4.97379V2.27525C0 1.01953 1.01953 0 2.27525 0H52.1875C53.4432 0 54.4627 1.01953 54.4627 2.27525V4.97379C54.4627 6.22951 53.4432 7.24903 52.1875 7.24903H51.9802V41.0524C51.9802 42.6045 50.7202 43.8645 49.1682 43.8645H28.1098V47.8237C29.5485 48.2107 30.6087 49.5252 30.6087 51.0854C30.6087 52.9494 29.0954 54.4627 27.2314 54.4627C25.3673 54.4627 23.854 52.9494 23.854 51.0854C23.854 49.5252 24.9143 48.2107 26.3529 47.8237V43.8645H5.29453C3.74256 43.8645 2.48256 42.6045 2.48256 41.0524V7.24903ZM50.2233 7.24903H4.23942V41.0524C4.23942 41.6348 4.71223 42.1076 5.29453 42.1076H49.1682C49.7505 42.1076 50.2233 41.6348 50.2233 41.0524V7.24903ZM52.7059 2.27525C52.7059 1.9891 52.4736 1.75686 52.1875 1.75686H2.27525C1.9891 1.75686 1.75686 1.9891 1.75686 2.27525V4.97379C1.75686 5.25983 1.9891 5.49217 2.27525 5.49217H52.1875C52.4736 5.49217 52.7059 5.25983 52.7059 4.97379V2.27525ZM30.7618 11.9862C31.8106 12.2752 32.8184 12.6928 33.7655 13.2309L35.6937 12.3736C36.026 12.2259 36.4148 12.298 36.6719 12.5551L39.4308 15.3141C39.6875 15.5709 39.7599 15.959 39.6129 16.2911C39.6129 16.2911 38.7585 18.2198 38.7585 18.2197C39.2971 19.1675 39.715 20.1764 40.0041 21.2285L41.9706 21.9854C42.3098 22.1159 42.5335 22.4418 42.5335 22.8052V26.7078C42.5335 27.0713 42.3098 27.3972 41.9706 27.5276C41.9706 27.5276 40.0035 28.2847 40.0035 28.2846C39.714 29.3335 39.2943 30.3413 38.758 31.2883L39.6129 33.2181C39.7599 33.55 39.6875 33.9383 39.4308 34.195L36.6719 36.954C36.415 37.2107 36.0269 37.283 35.6949 37.136C35.6949 37.136 33.7668 36.282 33.7668 36.2819C32.8214 36.8202 31.8111 37.2379 30.7615 37.5269L30.0045 39.4938C29.8739 39.8329 29.548 40.0567 29.1847 40.0567H25.282C24.9186 40.0567 24.5927 39.8329 24.4622 39.4938C24.4622 39.4938 23.7052 37.5271 23.7053 37.5271C22.6535 37.2375 21.645 36.8177 20.6976 36.2812L18.7678 37.136C18.4359 37.283 18.0477 37.2107 17.7909 36.954L15.0319 34.195C14.7749 33.938 14.7027 33.5492 14.8504 33.217L15.7076 31.2893C15.1695 30.3442 14.7517 29.3343 14.4603 28.2852L12.4922 27.5276C12.153 27.3972 11.9292 27.0713 11.9292 26.7078V22.8052C11.9292 22.4418 12.153 22.1159 12.4922 21.9854L14.46 21.2281C14.7515 20.1762 15.1694 19.1678 15.7078 18.2204L14.8504 16.2922C14.7027 15.96 14.7749 15.5712 15.0319 15.3141L17.7909 12.5551C18.0479 12.298 18.4367 12.2259 18.769 12.3736C18.769 12.3736 20.6973 13.2309 20.6972 13.231C21.6445 12.6927 22.6527 12.275 23.7017 11.986L24.4624 10.0146C24.5932 9.67581 24.9189 9.45236 25.282 9.45236H29.1847C29.5482 9.45236 29.8742 9.67636 30.0047 10.0158L30.7618 11.9862ZM29.2844 13.0393L28.5812 11.2092H25.8846L25.1779 13.0405C25.0737 13.3107 24.8431 13.512 24.5615 13.5789C23.3792 13.8599 22.2517 14.327 21.2153 14.9656C20.9685 15.1177 20.6625 15.1382 20.3975 15.0204L18.6065 14.2241L16.701 16.1298L17.4973 17.9208C17.6151 18.1856 17.5945 18.4916 17.4425 18.7385C16.8034 19.7755 16.3362 20.9038 16.0514 22.0906C15.9839 22.3716 15.7824 22.6015 15.5127 22.7054L13.6861 23.4083V26.1047L15.5127 26.8076C15.7822 26.9114 15.9836 27.1411 16.0512 27.4219C16.336 28.6047 16.8029 29.7364 17.4417 30.7695C17.5944 31.0164 17.6152 31.323 17.4973 31.5884L16.701 33.3794L18.6072 35.2857L20.3987 34.4922C20.6627 34.3752 20.9672 34.3954 21.2133 34.5463C22.2502 35.1815 23.3782 35.6528 24.5649 35.934C24.847 36.0009 25.078 36.2026 25.1822 36.4732L25.8852 38.2998H28.5815L29.2845 36.4732C29.3886 36.2028 29.6193 36.0011 29.9013 35.9341C31.0831 35.6532 32.2139 35.1864 33.2463 34.5482C33.4929 34.3956 33.799 34.3747 34.064 34.4922L35.8556 35.2856L37.7624 33.3787L36.9689 31.5872C36.852 31.3233 36.8723 31.0187 37.023 30.7725C37.6584 29.7356 38.1297 28.6074 38.4109 27.4244C38.4779 27.1425 38.6796 26.9117 38.9501 26.8076L40.7767 26.1047V23.4083L38.9501 22.7054C38.6794 22.6012 38.4776 22.3702 38.4108 22.088C38.1298 20.9022 37.6627 19.7747 37.0242 18.7385C36.8724 18.492 36.8517 18.1865 36.9689 17.9219L37.7624 16.1303L35.8562 14.2241L34.0652 15.0204C33.8003 15.1382 33.4943 15.1177 33.2474 14.9656C32.2111 14.327 31.0835 13.8599 29.9013 13.5789C29.6192 13.5119 29.3884 13.31 29.2844 13.0393ZM27.2309 15.7219C32.2215 15.7219 36.2679 19.7636 36.2679 24.7542C36.2679 29.7446 32.2214 33.7912 27.2309 33.7912C22.2405 33.7912 18.1987 29.7447 18.1987 24.7542C18.1987 19.7635 22.2403 15.7219 27.2309 15.7219ZM27.2309 17.4788C23.211 17.4788 19.9555 20.7342 19.9555 24.7542C19.9555 28.7742 23.2109 32.0343 27.2309 32.0343C31.2512 32.0343 34.511 28.7743 34.511 24.7542C34.511 20.7341 31.2511 17.4788 27.2309 17.4788ZM30.1704 25.4289L29.7058 25.6971C29.2859 25.9395 28.7483 25.7955 28.5059 25.3756C28.2634 24.9557 28.4075 24.4181 28.8274 24.1756L31.1782 22.8184C31.5984 22.5758 32.1355 22.7197 32.3782 23.14L33.7354 25.4908C33.9778 25.9106 33.8338 26.4482 33.4139 26.6907C32.994 26.9331 32.4564 26.7891 32.2139 26.3692L31.8872 25.8033C31.4059 28.0235 29.4282 29.6889 27.0648 29.6889C24.3414 29.6889 22.1304 27.4779 22.1304 24.7545C22.1304 22.0312 24.3414 19.8203 27.0648 19.8203C28.0802 19.8203 29.0244 20.1277 29.8093 20.6543C30.212 20.9243 30.3196 21.4705 30.0496 21.8732C29.7795 22.2758 29.2333 22.3834 28.8307 22.1133C28.3257 21.7746 27.718 21.5771 27.0648 21.5771C25.3111 21.5771 23.8873 23.0008 23.8873 24.7545C23.8873 26.5082 25.3111 27.932 27.0648 27.932C28.5871 27.932 29.8607 26.8591 30.1704 25.4289ZM27.2314 49.4649C26.337 49.4649 25.6109 50.191 25.6109 51.0854C25.6109 51.9797 26.337 52.7059 27.2314 52.7059C28.1257 52.7059 28.8519 51.9797 28.8519 51.0854C28.8519 50.191 28.1257 49.4649 27.2314 49.4649Z" fill="#003A79"/>
</svg>
