<svg width="56" height="56" viewBox="0 0 56 56" fill="none" xmlns="http://www.w3.org/2000/svg">
<path d="M28 8.4C17.1752 8.4 8.4 17.1752 8.4 28C8.4 38.8248 17.1752 47.6 28 47.6C38.8248 47.6 47.6 38.8248 47.6 28C47.5877 17.1803 38.8197 8.41234 28 8.4ZM12.6532 36.8461C13.0219 36.6741 13.3781 36.4764 13.7191 36.2544C14.4291 35.7228 15.2973 35.4454 16.184 35.4667C17.0699 35.4451 17.9371 35.7234 18.6452 36.2563C19.6504 36.9797 20.8631 37.3576 22.1013 37.3333C23.3364 37.357 24.5459 36.9794 25.5481 36.2572C27.0161 35.2049 28.9914 35.2049 30.4593 36.2572C32.5369 37.6956 35.2884 37.6956 37.366 36.2572C38.8348 35.2049 40.8101 35.203 42.2809 36.2525C42.6221 36.4755 42.979 36.6736 43.3487 36.8452C42.9745 37.4897 42.5602 38.11 42.1083 38.7025C41.3858 38.4004 40.6083 38.2519 39.8253 38.2667C38.5878 38.2432 37.376 38.6218 36.372 39.3456C34.904 40.3979 32.9288 40.3979 31.4608 39.3456C29.3832 37.9072 26.6317 37.9072 24.5541 39.3456C23.086 40.3973 21.1111 40.3973 19.6429 39.3456C18.6372 38.6209 17.4234 38.2423 16.184 38.2667C15.3986 38.2517 14.6186 38.4001 13.8936 38.7025C13.4417 38.1103 13.0274 37.4903 12.6532 36.8461ZM28 45.7333C23.1622 45.7323 18.5365 43.7476 15.2021 40.2425C15.5241 40.1685 15.8536 40.1318 16.184 40.1333C17.0699 40.1118 17.9371 40.39 18.6452 40.9229C19.6504 41.6464 20.8631 42.0243 22.1013 42C23.3364 42.0237 24.5459 41.6461 25.5481 40.9239C27.0161 39.8716 28.9914 39.8716 30.4593 40.9239C32.5369 42.3623 35.2884 42.3623 37.366 40.9239C38.0734 40.3909 38.9399 40.1124 39.8253 40.1333C40.1532 40.1314 40.4802 40.1674 40.7997 40.2407C37.4653 43.747 32.8387 45.7324 28 45.7333ZM44.2008 35.1792C43.8779 35.0369 43.5676 34.8677 43.2731 34.6733C41.1933 33.2399 38.4438 33.2421 36.3664 34.6789C34.8984 35.7312 32.9232 35.7312 31.4552 34.6789C29.3776 33.2405 26.6261 33.2405 24.5485 34.6789C23.0804 35.7306 21.1055 35.7306 19.6373 34.6789C18.6331 33.9554 17.4215 33.5768 16.184 33.6C14.9472 33.5765 13.7359 33.9533 12.7307 34.6743C12.4365 34.8683 12.1264 35.0372 11.8039 35.1792C8.49321 27.7417 10.6719 19.0053 17.0873 13.9934C23.5027 8.98141 32.5066 8.98141 38.922 13.9934C45.3374 19.0053 47.5161 27.7417 44.2055 35.1792H44.2008Z" fill="#003A79"/>
<path d="M54.32 23.352L51.7067 22.8303C51.0989 20.0067 49.9852 17.3165 48.4195 14.8895L49.8932 12.6784C49.9952 12.5249 50.0497 12.3447 50.05 12.1604C50.05 11.8804 49.9417 10.3451 47.7969 8.2012C45.6521 6.05733 44.1224 5.94813 43.8377 5.94813C43.6534 5.94809 43.4731 6.00265 43.3197 6.10493L41.1105 7.57867C38.6835 6.01401 35.9937 4.901 33.1707 4.29333L32.648 1.68C32.612 1.49936 32.5233 1.33342 32.3932 1.20307C32.1916 1.0052 31.0333 0 28 0C24.9667 0 23.8084 1.0052 23.6068 1.2068C23.4767 1.33715 23.388 1.5031 23.352 1.68373L22.8293 4.29333C20.0063 4.901 17.3165 6.01401 14.8895 7.57867L12.6784 6.10493C12.525 6.00265 12.3448 5.94809 12.1604 5.94813C11.8804 5.94813 10.346 6.0564 8.2012 8.2012C6.0564 10.346 5.94813 11.8757 5.94813 12.1604C5.94843 12.3447 6.00296 12.5249 6.10493 12.6784L7.57867 14.8895C6.01361 17.3166 4.90057 20.0069 4.29333 22.8303L1.68 23.352C1.49919 23.3875 1.33311 23.4763 1.20307 23.6068C1.0052 23.8084 0 24.9667 0 28C0 31.0333 1.0052 32.1916 1.2068 32.3932C1.33685 32.5237 1.50292 32.6125 1.68373 32.648L4.29147 33.1697C4.89928 35.9933 6.01295 38.6835 7.57867 41.1105L6.10493 43.3216C6.00296 43.4751 5.94843 43.6553 5.94813 43.8396C5.94813 44.1243 6.0564 45.6549 8.2012 47.7988C10.346 49.9427 11.8757 50.0519 12.1604 50.0519C12.3448 50.0519 12.525 49.9974 12.6784 49.8951L14.8895 48.4213C17.3165 49.986 20.0063 51.099 22.8293 51.7067L23.352 54.3144C23.388 54.495 23.4767 54.661 23.6068 54.7913C23.8084 54.9948 24.9667 56 28 56C31.0333 56 32.1916 54.9948 32.3932 54.7932C32.5233 54.6629 32.612 54.4969 32.648 54.3163L33.1707 51.7085C35.9938 51.1003 38.6837 49.9867 41.1105 48.4213L43.3216 49.8951C43.475 49.9974 43.6552 50.0519 43.8396 50.0519C44.1243 50.0519 45.654 49.9436 47.7988 47.7988C49.9436 45.654 50.0519 44.1243 50.0519 43.8396C50.0516 43.6553 49.997 43.4751 49.8951 43.3216L48.4213 41.1105C49.9864 38.6834 51.0994 35.9931 51.7067 33.1697L54.32 32.648C54.5008 32.6125 54.6669 32.5237 54.7969 32.3932C54.9948 32.1916 56 31.0333 56 28C56 24.9667 54.9948 23.8084 54.7932 23.6068C54.6642 23.4769 54.4995 23.3882 54.32 23.352ZM53.5817 30.8933L50.7341 31.4627C50.3615 31.5373 50.0714 31.8304 50.0005 32.2037C49.4347 35.2082 48.2532 38.0631 46.5304 40.5888C46.3161 40.903 46.3139 41.3158 46.5248 41.6323L48.1329 44.0459C47.7895 44.9803 47.2219 45.8161 46.48 46.48C45.8174 47.221 44.9846 47.7899 44.0533 48.1376L41.6267 46.5248C41.3104 46.3136 40.8976 46.3155 40.5832 46.5295C38.0583 48.2526 35.204 49.4344 32.2 50.0005C31.8267 50.0714 31.5336 50.3615 31.4589 50.7341L30.8896 53.5817C29.9861 53.9993 28.9938 54.1887 28 54.1333C27.0055 54.1885 26.0124 54.0008 25.1067 53.5864L24.5364 50.7341C24.4617 50.3615 24.1687 50.0714 23.7953 50.0005C20.791 49.4346 17.9364 48.2527 15.4112 46.5295C15.0968 46.3155 14.684 46.3136 14.3677 46.5248L11.956 48.1339C11.0208 47.7904 10.1843 47.2225 9.52 46.48C8.77914 45.8174 8.21057 44.9846 7.86333 44.0533L9.47427 41.636C9.68517 41.3195 9.68296 40.9067 9.46867 40.5925C7.74523 38.0645 6.56403 35.207 5.99947 32.2C5.92859 31.8267 5.63846 31.5336 5.26587 31.4589L2.41827 30.8933C1.99992 29.9887 1.81049 28.9951 1.86667 28C1.8115 27.0055 1.99921 26.0124 2.4136 25.1067L5.26587 24.5373C5.63846 24.4627 5.92859 24.1696 5.99947 23.7963C6.5653 20.7918 7.74678 17.9369 9.4696 15.4112C9.68389 15.097 9.6861 14.6842 9.4752 14.3677L7.86707 11.956C8.21024 11.0209 8.77784 10.1844 9.52 9.52C10.1826 8.779 11.0154 8.21014 11.9467 7.8624L14.364 9.47427C14.6793 9.68686 15.0921 9.68686 15.4075 9.47427C17.9349 7.74861 20.7925 6.56547 23.8 5.99947C24.1733 5.92859 24.4664 5.63846 24.5411 5.26587L25.1104 2.41827C26.0139 2.0007 27.0062 1.81129 28 1.86667C28.9945 1.8115 29.9876 1.99921 30.8933 2.4136L31.4636 5.26587C31.5383 5.63846 31.8313 5.92859 32.2047 5.99947C35.209 6.56544 38.0636 7.74727 40.5888 9.47053C40.9041 9.68313 41.3169 9.68313 41.6323 9.47053L44.044 7.86613C44.9792 8.20957 45.8157 8.7775 46.48 9.52C47.2209 10.1826 47.7894 11.0154 48.1367 11.9467L46.5248 14.3733C46.3139 14.6898 46.3161 15.1026 46.5304 15.4168C48.253 17.9419 49.4345 20.7962 50.0005 23.8C50.0714 24.1733 50.3615 24.4664 50.7341 24.5411L53.5817 25.1104C53.9995 26.0139 54.1889 27.0062 54.1333 28C54.1895 28.9951 54.0001 29.9887 53.5817 30.8933Z" fill="#003A79"/>
<path d="M29.1387 12.5664C28.4876 11.9936 27.5124 11.9936 26.8613 12.5664C24.9583 14.2464 20.5333 18.7133 20.5333 23.9531C20.5324 26.0701 21.3739 28.1004 22.8723 29.596C24.2309 30.9596 26.0751 31.7283 28 31.7333H28.0933C32.2584 31.5775 35.5346 28.1205 35.4667 23.9531C35.4667 18.7161 31.0417 14.2455 29.1387 12.5664ZM28.0691 29.8667C26.6106 29.8823 25.2083 29.3049 24.1836 28.2669C23.0395 27.1227 22.3977 25.5702 22.4 23.9521C22.4 19.4535 26.5627 15.3384 28 14.0523C29.4373 15.3384 33.6 19.4563 33.6 23.9531C33.6721 27.1007 31.2145 29.7284 28.0691 29.8667Z" fill="#003A79"/>
<path d="M27.9664 26.1333C26.9452 26.1231 26.125 25.2879 26.1333 24.2667C26.1333 23.7512 25.7155 23.3333 25.2 23.3333C24.6845 23.3333 24.2667 23.7512 24.2667 24.2667C24.2594 26.3184 25.9147 27.9887 27.9664 28H28C28.2457 27.9993 28.4809 27.9001 28.6529 27.7248C28.825 27.5494 28.9196 27.3123 28.9156 27.0667C28.9084 26.548 28.4851 26.1317 27.9664 26.1333Z" fill="#003A79"/>
</svg>
