<svg width="49" height="53" viewBox="0 0 49 53" fill="none" xmlns="http://www.w3.org/2000/svg">
<path fill-rule="evenodd" clip-rule="evenodd" d="M14.884 20.7921H7.35446C6.74641 20.7921 6.41897 21.5358 6.86303 21.9799C7.121 22.2379 7.42458 22.1849 7.79995 22.1849H14.8841C15.4921 22.1849 15.8195 21.4411 15.3755 20.9969C15.249 20.8705 15.075 20.792 14.8841 20.792L14.884 20.7921ZM20.2148 37.8348C19.4799 38.817 18.6905 39.4584 17.7183 39.7765C16.5127 40.1711 15.0828 40.0381 13.179 39.4112L11.4489 38.7481C8.74592 37.6824 5.91749 36.5672 2.53358 36.8207C0.292544 40.7006 0.956914 45.6117 4.11543 48.7703C7.98338 52.6382 14.255 52.6382 18.123 48.7703C20.9768 45.9164 21.834 41.5797 20.2148 37.8349V37.8348ZM3.38602 35.5747C4.09832 34.6873 4.96125 33.9244 5.93649 33.3244C7.50608 32.3588 8.40623 30.7499 8.40623 28.9064V23.3977H13.8321V28.9064C13.8321 30.75 14.7321 32.3588 16.3018 33.3244C17.6421 34.1489 18.7702 35.2812 19.5867 36.6215C18.8933 37.6844 18.1961 38.3467 17.3441 38.6256C16.3982 38.9351 15.2028 38.8066 13.5562 38.2645L11.8895 37.6209C9.30847 36.6032 6.61797 35.5426 3.38613 35.575L3.38602 35.5747ZM6.08867 41.7367C6.59202 42.2401 6.59202 43.0565 6.08867 43.5599C5.27896 44.3696 3.88805 43.7937 3.88805 42.6483C3.88805 41.5028 5.27907 40.927 6.08867 41.7366V41.7367ZM5.17703 40.1465C7.39797 40.1465 8.51854 42.8446 6.94596 44.4173C5.37361 45.9898 2.67515 44.8694 2.67515 42.6484C2.67515 41.2668 3.7954 40.1466 5.17692 40.1466L5.17703 40.1465ZM12.2958 46.0975C12.6421 46.4439 12.6421 47.0059 12.2958 47.3522C11.7389 47.9091 10.7814 47.5133 10.7814 46.7248C10.7814 45.9363 11.7388 45.5405 12.2958 46.0975ZM11.6684 44.625C13.5326 44.625 14.473 46.8897 13.1531 48.2095C11.8333 49.5293 9.56866 48.5888 9.56866 46.7248C9.56866 45.5654 10.509 44.625 11.6684 44.625ZM17.791 42.7053C18.0318 42.9461 18.0318 43.337 17.791 43.5778C17.4039 43.9648 16.738 43.6901 16.738 43.1416C16.738 42.593 17.4039 42.3183 17.791 42.7053ZM17.3548 41.312C18.9789 41.312 19.7985 43.2851 18.6484 44.4351C17.4984 45.5851 15.5254 44.7656 15.5254 43.1414C15.5254 42.1312 16.3447 41.312 17.3548 41.312ZM43.5962 39.7252C42.9884 39.6506 42.4578 39.7897 41.9747 40.1617L42.1542 40.9832C42.7788 41.0304 43.3383 40.8744 43.8553 40.519L43.5962 39.7252ZM42.1523 24.3307C39.7908 22.9788 36.7782 23.7972 35.4261 26.159C34.0742 28.5207 34.8926 31.5331 37.2544 32.8852C39.6159 34.2372 42.6285 33.4187 43.9806 31.0569C45.3326 28.6953 44.5141 25.6828 42.1523 24.3307ZM38.0927 22.6822C41.3647 21.7927 44.7395 23.7254 45.629 26.9972C46.5184 30.2692 44.5858 33.644 41.314 34.5335C38.042 35.4229 34.6672 33.4903 33.7777 30.2185C32.8883 26.9465 34.8209 23.5717 38.0927 22.6822ZM40.8303 26.5005C40.4968 26.4822 40.2412 26.1969 40.2594 25.8633C40.2778 25.5298 40.563 25.2741 40.8966 25.2925C42.3893 25.3755 43.4684 26.7622 43.1928 28.2254C43.1313 28.5537 42.8153 28.77 42.487 28.7085C42.1587 28.647 41.9423 28.3311 42.0039 28.0027C42.1447 27.2554 41.5919 26.543 40.8304 26.5004L40.8303 26.5005ZM44.2883 50.7528C44.5305 51.862 46.1885 52.1456 46.8359 51.0324C47.0033 50.7445 47.0635 50.4058 46.9754 50.0818L44.2419 41.7042C43.6786 42.0273 43.068 42.1957 42.4207 42.2036C43.0433 45.0534 43.6658 47.9031 44.2883 50.7528ZM37.6568 21.1396C43.7935 19.4677 49.5021 25.6538 46.7795 31.7584C46.0643 33.3619 44.8126 34.7127 43.1862 35.5287C42.6629 35.7912 42.3978 36.3805 42.5509 36.9439L42.9759 38.5072C42.5987 38.5412 42.2352 38.6387 41.8928 38.7993L41.4686 37.2389C41.3159 36.6769 40.7885 36.2994 40.2068 36.3378C38.3884 36.4579 36.624 35.9269 35.1958 34.9065C33.7959 33.9063 32.7187 32.433 32.2311 30.6397C31.1097 26.5144 33.5461 22.2595 37.657 21.1396H37.6568ZM10.1107 8.0407H13.8117C15.0611 8.0407 16.0814 7.02041 16.0814 5.77107V2.06999L10.1107 8.0407ZM17.2941 1.21258H39.1245C40.3739 1.21258 41.3942 2.23288 41.3942 3.48221V19.8114C37.6313 19.0849 33.8219 20.8561 31.9313 24.1587C29.6476 28.1476 30.7513 33.2175 34.4947 35.892C36.1449 37.071 38.1828 37.6846 40.2825 37.546C40.2894 37.5455 40.2939 37.546 40.2958 37.5473L40.8418 39.5547C40.7265 39.693 40.6737 39.8811 40.7147 40.0707L41.3942 43.1813V44.6404C41.3942 45.8897 40.3739 46.91 39.1245 46.91H20.9775C23.6998 41.7037 21.8713 35.3274 16.9366 32.2915C15.7174 31.5415 15.0449 30.3372 15.0449 28.9062V23.3907C15.5067 23.3518 15.9227 23.1472 16.2328 22.8372C17.4396 21.6304 16.5676 19.5792 14.884 19.5792H9.25326V9.25327H13.8116C15.7304 9.25327 17.2939 7.68963 17.2939 5.77096L17.2941 1.21258ZM16.2539 0.182671C16.3692 0.064507 16.5261 -0.00109062 16.6944 1.37209e-05H39.1245C41.0433 -9.6713e-05 42.6069 1.56365 42.6069 3.48232V20.1353C43.144 20.32 43.6617 20.5547 44.1528 20.8359C48.1394 23.1182 49.7558 28.0528 47.8832 32.2512C46.4496 35.4655 43.7387 36.5712 43.7188 36.6158L44.2641 38.6244C44.4516 38.6913 44.5892 38.8446 44.6419 39.0277L48.1411 49.7658C48.5188 51.1553 47.5443 52.5925 46.1659 52.8938C44.824 53.187 43.4033 52.3781 43.1042 51.0089L42.1057 46.4379C41.4863 47.4605 40.3712 48.123 39.1246 48.123H20.2412C16.2841 53.7909 8.16018 54.5298 3.25814 49.6278C-0.245269 46.1244 -1.02283 40.7005 1.41113 36.3497C2.34021 34.6888 3.68242 33.2881 5.30182 32.2919C6.5209 31.5418 7.19356 30.3374 7.19356 28.9065V23.391C5.59613 23.2565 4.84916 21.2963 6.00562 20.1398C6.6352 19.5103 7.25628 19.5795 8.04058 19.5795V8.64721C8.04169 8.48023 8.10475 8.33114 8.22368 8.21309L16.2539 0.182671ZM34.2113 5.25379H38.7681C39.103 5.25379 39.3745 4.98235 39.3745 4.6474C39.3745 4.31246 39.1031 4.04101 38.7681 4.04101H34.2113C33.8765 4.04101 33.6049 4.31246 33.6049 4.6474C33.6049 4.98235 33.8764 5.25379 34.2113 5.25379ZM19.92 5.25379H31.3301C31.6649 5.25379 31.9365 4.98235 31.9365 4.6474C31.9365 4.31246 31.665 4.04101 31.3301 4.04101H19.92C19.5851 4.04101 19.3136 4.31246 19.3136 4.6474C19.3136 4.98235 19.585 5.25379 19.92 5.25379ZM19.92 9.1552H38.7681C39.103 9.1552 39.3745 8.88376 39.3745 8.54881C39.3745 8.21386 39.1031 7.94242 38.7681 7.94242H19.92C19.5851 7.94242 19.3136 8.21386 19.3136 8.54881C19.3136 8.88376 19.585 9.1552 19.92 9.1552ZM29.0049 13.0566H38.0606C38.3954 13.0566 38.667 12.7852 38.667 12.4502C38.667 12.1153 38.3955 11.8438 38.0606 11.8438H29.0049C28.6701 11.8438 28.3985 12.1153 28.3985 12.4502C28.3985 12.7852 28.67 13.0566 29.0049 13.0566ZM12.5866 13.0566H26.1237C26.4585 13.0566 26.7301 12.7852 26.7301 12.4502C26.7301 12.1153 26.4586 11.8438 26.1237 11.8438H12.5866C12.2518 11.8438 11.9802 12.1153 11.9802 12.4502C11.9802 12.7852 12.2516 13.0566 12.5866 13.0566ZM21.1817 16.958H36.832C37.1669 16.958 37.4384 16.6866 37.4384 16.3516C37.4384 16.0167 37.167 15.7452 36.832 15.7452H21.1817C20.8468 15.7452 20.5753 16.0167 20.5753 16.3516C20.5753 16.6866 20.8467 16.958 21.1817 16.958ZM13.8152 16.958H18.3004C18.6353 16.958 18.9068 16.6866 18.9068 16.3516C18.9068 16.0167 18.6354 15.7452 18.3004 15.7452H13.8152C13.4803 15.7452 13.2088 16.0167 13.2088 16.3516C13.2088 16.6866 13.4802 16.958 13.8152 16.958ZM18.137 20.8594H32.5101C32.8449 20.8594 33.1165 20.588 33.1165 20.253C33.1165 19.9181 32.845 19.6466 32.5101 19.6466H18.137C17.8022 19.6466 17.5306 19.9181 17.5306 20.253C17.5306 20.588 17.8021 20.8594 18.137 20.8594Z" fill="#003A79"/>
</svg>
