<svg width="56" height="56" viewBox="0 0 56 56" fill="none" xmlns="http://www.w3.org/2000/svg">
<path d="M23.6252 0C25.4621 0 27.0763 0.953454 28.0001 2.39236C28.924 0.953414 30.5384 0 32.3752 0H51.3976V4.10701H56.0001V45.0579H53.2658V50.531H56.0001V55.9998H14.8744V54.3592H54.3595V52.1717L7.3855 52.1718V52.0942C5.36206 51.7093 3.82847 49.9283 3.82846 47.7943C3.82846 45.38 5.79134 43.4169 8.20581 43.4169H53.2658V43.4173H54.3595V41.2299H8.2056C2.34349 41.2299 -0.535226 48.3368 3.5641 52.436C4.7532 53.6251 6.39328 54.3592 8.2056 54.3592H13.224V55.9998H8.2056C5.97582 55.9998 3.95221 55.1086 2.47398 53.6652L2.40402 53.5961C-1.3565 49.8357 -0.423922 44.0404 3.24794 41.2299H0.000335902V11.2094H1.64096V39.5893H54.3595V5.74763H51.3976V34.8204H32.3752C30.7509 34.8204 29.3796 35.91 28.9566 37.3994L28.7873 37.9956H27.2131L27.0437 37.3994C26.6207 35.91 25.2496 34.8204 23.6252 34.8204H4.60284V5.74763H1.64096V9.41576H0.000335902V4.10701H4.60284V0H23.6252ZM45.6101 47.2711V48.9118H43.9148V47.2711H45.6101ZM48.829 47.2711V48.9118H47.2142V47.2711H48.829ZM6.24347 33.1798H23.6252C25.0009 33.1798 26.251 33.7141 27.1799 34.5863V30.7196C20.3493 30.2963 14.9404 24.6226 14.9404 17.6854C14.9404 10.7621 20.3276 5.09709 27.1388 4.65356C26.8779 2.9476 25.4041 1.64062 23.6252 1.64062H6.24347V33.1798ZM28.3723 8.82327C34.611 11.99 34.7905 20.791 28.8213 24.2402V26.7309H27.1807V24.2404C21.243 20.8091 21.3546 12.0055 27.63 8.82317L28.0012 8.63486L28.3723 8.82327ZM28.0007 10.4878C23.5651 13.0556 23.3123 19.2601 27.1807 22.2672V16.6537H28.8213V22.2673C32.7048 19.2515 32.4164 13.0478 28.0007 10.4878ZM5.46909 47.7943C5.4691 49.3026 6.69747 50.531 8.20581 50.531H51.6251V45.0575H8.20581C6.69746 45.0575 5.46909 46.286 5.46909 47.7943ZM16.581 17.6854C16.581 23.9921 21.6936 29.1045 28.0002 29.1045C34.3068 29.1045 39.4194 23.992 39.4195 17.6854C39.4195 11.3788 34.3069 6.2662 28.0002 6.2662C21.6936 6.26621 16.581 11.3788 16.581 17.6854ZM41.0601 17.6854C41.0601 24.6226 35.6511 30.2963 28.8205 30.7196V34.5863C29.7494 33.7141 30.9996 33.1798 32.3752 33.1798H49.757V1.64062H32.3752C30.5964 1.64062 29.1224 2.94759 28.8615 4.65356C35.6727 5.09697 41.0601 10.7621 41.0601 17.6854Z" fill="#003A79"/>
</svg>
