<svg width="56" height="41" viewBox="0 0 56 41" fill="none" xmlns="http://www.w3.org/2000/svg">
<path d="M30.288 30.5102H25.713C24.521 30.5102 23.493 29.613 23.323 28.4245L23.24 27.7356L22.621 27.993C21.529 28.4736 20.226 28.045 19.61 26.9817L17.322 23.0266C16.719 21.9503 17 20.6086 17.968 19.8926L18.487 19.4961L17.956 19.0906C17 18.3837 16.72 17.042 17.314 15.9777L19.609 12.0106C20.219 10.9573 21.517 10.5197 22.627 10.9893L23.241 11.2486L23.32 10.5908C23.492 9.37925 24.52 8.4831 25.713 8.4831H30.288C31.48 8.4831 32.508 9.38025 32.678 10.5688L32.76 11.2486L33.375 10.9893C34.484 10.5187 35.782 10.9583 36.391 12.0106L38.679 15.9666C39.281 17.043 39 18.3847 38.033 19.1006L37.513 19.4961L38.039 19.8977C39.001 20.6146 39.279 21.9533 38.685 23.0136L36.39 26.9807C35.774 28.044 34.472 28.4766 33.358 27.984L32.76 27.7356L32.68 28.4015C32.507 29.613 31.48 30.5102 30.288 30.5102ZM24.91 24.873L25.306 28.1632C25.332 28.3464 25.512 28.5076 25.712 28.5076H30.287C30.488 28.5076 30.667 28.3464 30.697 28.1412L31.09 24.873L34.146 26.1436C34.351 26.2337 34.553 26.1626 34.661 25.9774L36.948 22.0244C37.048 21.8441 37.009 21.6259 36.844 21.5027L36.832 21.4947L34.213 19.4961L36.832 17.4976C37.008 17.3674 37.048 17.1481 36.94 16.9559L34.66 13.0129C34.552 12.8266 34.343 12.7525 34.152 12.8326L31.091 14.1263L30.695 10.8291C30.667 10.6429 30.491 10.4847 30.288 10.4847H25.713C25.509 10.4847 25.333 10.6429 25.303 10.8521L24.909 14.1273L21.849 12.8336C21.656 12.7505 21.448 12.8266 21.34 13.0149L19.053 16.9689C18.953 17.1481 18.993 17.3674 19.157 17.4896L21.787 19.4961L19.168 21.4947C18.992 21.6248 18.952 21.8441 19.06 22.0364L21.34 25.9784C21.446 26.1616 21.649 26.2327 21.833 26.1526L24.91 24.873Z" fill="#003A79"/>
<path d="M28 24.2522C25.381 24.2522 23.25 22.1185 23.25 19.4961C23.25 16.8738 25.381 14.7401 28 14.7401C30.619 14.7401 32.75 16.8738 32.75 19.4961C32.75 22.1185 30.619 24.2522 28 24.2522ZM28 16.7426C26.483 16.7426 25.25 17.9772 25.25 19.4961C25.25 21.0151 26.483 22.2496 28 22.2496C29.517 22.2496 30.75 21.0151 30.75 19.4961C30.75 17.9772 29.517 16.7426 28 16.7426Z" fill="#003A79"/>
<path d="M18.139 34.3551C17.938 34.3551 17.736 34.294 17.559 34.1688C12.826 30.7895 10 25.3045 10 19.4961C10 14.5258 12.073 9.7367 15.688 6.35839C16.092 5.98192 16.726 6.00294 17.102 6.40646C17.479 6.81097 17.457 7.44478 17.054 7.82226C13.842 10.8241 12 15.0785 12 19.4961C12 24.6587 14.512 29.5339 18.721 32.5378C19.171 32.8582 19.275 33.484 18.955 33.9345C18.759 34.2089 18.452 34.3551 18.139 34.3551Z" fill="#003A79"/>
<path d="M37.141 34.8457C36.81 34.8457 36.487 34.6815 36.296 34.3821C36 33.9155 36.137 33.2967 36.603 32.9993C41.235 30.0486 44 25.0012 44 19.4961C44 15.0785 42.158 10.8241 38.947 7.82226C38.544 7.44478 38.522 6.81097 38.899 6.40646C39.276 6.00194 39.909 5.98091 40.313 6.3584C43.927 9.7367 46 14.5258 46 19.4961C46 25.69 42.889 31.3683 37.677 34.6895C37.511 34.7946 37.325 34.8457 37.141 34.8457Z" fill="#003A79"/>
<path d="M13.529 37.0886C13.296 37.0886 13.061 37.0075 12.871 36.8412C7.869 32.4617 5 26.1406 5 19.4961C5 13.4054 7.347 7.66606 11.607 3.33354C11.995 2.93904 12.628 2.93503 13.021 3.32253C13.415 3.71102 13.419 4.34483 13.032 4.73833C9.142 8.69337 7 13.9351 7 19.4961C7 25.5629 9.62 31.3352 14.188 35.3333C14.604 35.6968 14.646 36.3296 14.283 36.7461C14.085 36.9734 13.808 37.0886 13.529 37.0886Z" fill="#003A79"/>
<path d="M41.521 37.8796C41.224 37.8796 40.93 37.7474 40.732 37.4941C40.392 37.0585 40.469 36.4297 40.904 36.0893C46.049 32.0662 49 26.0184 49 19.4961C49 13.931 46.854 8.69037 42.958 4.74033C42.57 4.34683 42.574 3.71302 42.967 3.32453C43.36 2.93603 43.993 2.93904 44.381 3.33354C48.649 7.66105 51 13.4014 51 19.4961C51 26.6392 47.769 33.2617 42.136 37.6673C41.953 37.8105 41.736 37.8796 41.521 37.8796Z" fill="#003A79"/>
<path d="M9.05 39.752C8.797 39.752 8.543 39.6559 8.348 39.4637C2.965 34.1499 0 27.0579 0 19.4962C0 12.3311 2.696 5.52042 7.592 0.315783C7.97 -0.0877307 8.605 -0.104752 9.006 0.27373C9.408 0.653214 9.427 1.28702 9.048 1.68953C4.503 6.51969 2 12.8437 2 19.4962C2 26.5182 4.753 33.1026 9.752 38.0389C10.145 38.4273 10.149 39.0612 9.762 39.4547C9.566 39.6529 9.308 39.752 9.05 39.752Z" fill="#003A79"/>
<path d="M45.771 40.8333C45.492 40.8333 45.214 40.7172 45.017 40.4899C44.654 40.0724 44.698 39.4396 45.114 39.0771C50.761 34.1518 54 27.0147 54 19.4961C54 12.8437 51.497 6.5196 46.952 1.68844C46.574 1.28593 46.592 0.652123 46.994 0.27264C47.395 -0.105842 48.029 -0.08882 48.408 0.314694C53.304 5.52033 56 12.331 56 19.4961C56 27.5945 52.511 35.2813 46.427 40.586C46.237 40.7522 46.003 40.8333 45.771 40.8333Z" fill="#003A79"/>
</svg>
