<svg width="48" height="45" viewBox="0 0 48 45" fill="none" xmlns="http://www.w3.org/2000/svg">
<path d="M45 0H3C2.20435 0 1.44129 0.316071 0.87868 0.87868C0.316071 1.44129 0 2.20435 0 3V33C0 33.7957 0.316071 34.5587 0.87868 35.1213C1.44129 35.6839 2.20435 36 3 36H17.6677L15.9592 40.5548C15.07 40.6832 14.2566 41.1272 13.6674 41.8055C13.0782 42.4839 12.7526 43.3515 12.75 44.25C12.75 44.4489 12.829 44.6397 12.9697 44.7803C13.1103 44.921 13.3011 45 13.5 45H34.5C34.6989 45 34.8897 44.921 35.0303 44.7803C35.171 44.6397 35.25 44.4489 35.25 44.25C35.2474 43.3515 34.9217 42.4839 34.3326 41.8055C33.7434 41.1272 32.93 40.6832 32.0407 40.5548L30.3323 36H45C45.7957 36 46.5587 35.6839 47.1213 35.1213C47.6839 34.5587 48 33.7957 48 33V3C48 2.20435 47.6839 1.44129 47.1213 0.87868C46.5587 0.316071 45.7957 0 45 0ZM33.6217 43.5H14.3783C14.5339 43.0616 14.8214 42.6821 15.2013 42.4136C15.5812 42.145 16.0348 42.0006 16.5 42H31.5C31.9652 42.0006 32.4188 42.145 32.7987 42.4136C33.1786 42.6821 33.4661 43.0616 33.6217 43.5ZM30.4177 40.5H17.5823L19.2698 36H28.7302L30.4177 40.5ZM46.5 33C46.5 33.3978 46.342 33.7794 46.0607 34.0607C45.7794 34.342 45.3978 34.5 45 34.5H3C2.60218 34.5 2.22064 34.342 1.93934 34.0607C1.65804 33.7794 1.5 33.3978 1.5 33V3C1.5 2.60218 1.65804 2.22064 1.93934 1.93934C2.22064 1.65804 2.60218 1.5 3 1.5H45C45.3978 1.5 45.7794 1.65804 46.0607 1.93934C46.342 2.22064 46.5 2.60218 46.5 3V33Z" fill="#003A79"/>
<path d="M44.25 3H3.75C3.55109 3 3.36032 3.07902 3.21967 3.21967C3.07902 3.36032 3 3.55109 3 3.75V30.75C3 30.9489 3.07902 31.1397 3.21967 31.2803C3.36032 31.421 3.55109 31.5 3.75 31.5H44.25C44.4489 31.5 44.6397 31.421 44.7803 31.2803C44.921 31.1397 45 30.9489 45 30.75V3.75C45 3.55109 44.921 3.36032 44.7803 3.21967C44.6397 3.07902 44.4489 3 44.25 3ZM43.5 30H4.5V4.5H43.5V30Z" fill="#003A79"/>
<path d="M41.25 9.75H35.25C35.0511 9.75 34.8603 9.82902 34.7197 9.96967C34.579 10.1103 34.5 10.3011 34.5 10.5C34.5 10.6989 34.579 10.8897 34.7197 11.0303C34.8603 11.171 35.0511 11.25 35.25 11.25H41.25C41.4489 11.25 41.6397 11.171 41.7803 11.0303C41.921 10.8897 42 10.6989 42 10.5C42 10.3011 41.921 10.1103 41.7803 9.96967C41.6397 9.82902 41.4489 9.75 41.25 9.75Z" fill="#003A79"/>
<path d="M41.25 13.5H35.25C35.0511 13.5 34.8603 13.579 34.7197 13.7197C34.579 13.8603 34.5 14.0511 34.5 14.25C34.5 14.4489 34.579 14.6397 34.7197 14.7803C34.8603 14.921 35.0511 15 35.25 15H41.25C41.4489 15 41.6397 14.921 41.7803 14.7803C41.921 14.6397 42 14.4489 42 14.25C42 14.0511 41.921 13.8603 41.7803 13.7197C41.6397 13.579 41.4489 13.5 41.25 13.5Z" fill="#003A79"/>
<path d="M41.25 17.25H35.25C35.0511 17.25 34.8603 17.329 34.7197 17.4697C34.579 17.6103 34.5 17.8011 34.5 18C34.5 18.1989 34.579 18.3897 34.7197 18.5303C34.8603 18.671 35.0511 18.75 35.25 18.75H41.25C41.4489 18.75 41.6397 18.671 41.7803 18.5303C41.921 18.3897 42 18.1989 42 18C42 17.8011 41.921 17.6103 41.7803 17.4697C41.6397 17.329 41.4489 17.25 41.25 17.25Z" fill="#003A79"/>
<path d="M41.25 21H35.25C35.0511 21 34.8603 21.079 34.7197 21.2197C34.579 21.3603 34.5 21.5511 34.5 21.75C34.5 21.9489 34.579 22.1397 34.7197 22.2803C34.8603 22.421 35.0511 22.5 35.25 22.5H41.25C41.4489 22.5 41.6397 22.421 41.7803 22.2803C41.921 22.1397 42 21.9489 42 21.75C42 21.5511 41.921 21.3603 41.7803 21.2197C41.6397 21.079 41.4489 21 41.25 21Z" fill="#003A79"/>
<path d="M41.25 24.75H35.25C35.0511 24.75 34.8603 24.829 34.7197 24.9697C34.579 25.1103 34.5 25.3011 34.5 25.5C34.5 25.6989 34.579 25.8897 34.7197 26.0303C34.8603 26.171 35.0511 26.25 35.25 26.25H41.25C41.4489 26.25 41.6397 26.171 41.7803 26.0303C41.921 25.8897 42 25.6989 42 25.5C42 25.3011 41.921 25.1103 41.7803 24.9697C41.6397 24.829 41.4489 24.75 41.25 24.75Z" fill="#003A79"/>
<path d="M32.25 11.25C32.6642 11.25 33 10.9142 33 10.5C33 10.0858 32.6642 9.75 32.25 9.75C31.8358 9.75 31.5 10.0858 31.5 10.5C31.5 10.9142 31.8358 11.25 32.25 11.25Z" fill="#003A79"/>
<path d="M32.25 15C32.6642 15 33 14.6642 33 14.25C33 13.8358 32.6642 13.5 32.25 13.5C31.8358 13.5 31.5 13.8358 31.5 14.25C31.5 14.6642 31.8358 15 32.25 15Z" fill="#003A79"/>
<path d="M32.25 18.75C32.6642 18.75 33 18.4142 33 18C33 17.5858 32.6642 17.25 32.25 17.25C31.8358 17.25 31.5 17.5858 31.5 18C31.5 18.4142 31.8358 18.75 32.25 18.75Z" fill="#003A79"/>
<path d="M32.25 22.5C32.6642 22.5 33 22.1642 33 21.75C33 21.3358 32.6642 21 32.25 21C31.8358 21 31.5 21.3358 31.5 21.75C31.5 22.1642 31.8358 22.5 32.25 22.5Z" fill="#003A79"/>
<path d="M32.25 26.25C32.6642 26.25 33 25.9142 33 25.5C33 25.0858 32.6642 24.75 32.25 24.75C31.8358 24.75 31.5 25.0858 31.5 25.5C31.5 25.9142 31.8358 26.25 32.25 26.25Z" fill="#003A79"/>
<path d="M17.25 28.5C19.2929 28.5013 21.2975 27.9461 23.0486 26.894C24.7997 25.8419 26.2311 24.3327 27.189 22.5284C28.147 20.7241 28.5954 18.6929 28.486 16.653C28.3765 14.6131 27.7135 12.6415 26.568 10.95L31.0072 7.5H41.25C41.4489 7.5 41.6397 7.42098 41.7803 7.28033C41.921 7.13968 42 6.94891 42 6.75C42 6.55109 41.921 6.36032 41.7803 6.21967C41.6397 6.07902 41.4489 6 41.25 6H30.75C30.5833 5.99985 30.4212 6.05527 30.2895 6.1575L25.6357 9.777C24.3872 8.37623 22.8079 7.31024 21.0419 6.67622C19.2758 6.04219 17.3791 5.8603 15.5247 6.14711C13.6703 6.43393 11.9172 7.18033 10.4252 8.31828C8.93322 9.45622 7.74977 10.9495 6.98276 12.662C6.21575 14.3745 5.88958 16.2518 6.03398 18.1227C6.17838 19.9935 6.78876 21.7985 7.80948 23.373C8.83019 24.9476 10.2288 26.2416 11.8777 27.1371C13.5267 28.0326 15.3736 28.5011 17.25 28.5ZM18 15.138C18.4384 15.2907 18.8184 15.5761 19.0873 15.9546C19.3562 16.333 19.5007 16.7857 19.5007 17.25C19.5007 17.7143 19.3562 18.167 19.0873 18.5454C18.8184 18.9239 18.4384 19.2093 18 19.362V15.138ZM18 20.925C18.8477 20.7529 19.6099 20.293 20.1573 19.6232C20.7047 18.9534 21.0038 18.115 21.0038 17.25C21.0038 16.385 20.7047 15.5466 20.1573 14.8768C19.6099 14.207 18.8477 13.7471 18 13.575V11.3018C19.4495 11.4833 20.7828 12.188 21.7495 13.2833C22.7161 14.3786 23.2495 15.7892 23.2495 17.25C23.2495 18.7108 22.7161 20.1214 21.7495 21.2167C20.7828 22.312 19.4495 23.0166 18 23.1982V20.925ZM18 24.7125C19.8501 24.5268 21.5653 23.6604 22.8128 22.2815C24.0602 20.9026 24.7509 19.1094 24.7509 17.25C24.7509 15.3906 24.0602 13.5974 22.8128 12.2185C21.5653 10.8396 19.8501 9.97321 18 9.7875V7.5375C20.4491 7.72277 22.7378 8.82643 24.4077 10.6275C26.0777 12.4285 27.0055 14.7939 27.0055 17.25C27.0055 19.7061 26.0777 22.0715 24.4077 23.8725C22.7378 25.6736 20.4491 26.7772 18 26.9625V24.7125ZM16.5 7.5285V9.72675L15.0397 9.3615L13.95 8.082C14.7711 7.78328 15.6289 7.59709 16.5 7.5285ZM12.531 8.7285L14.0543 10.515C14.1555 10.6337 14.2914 10.7179 14.4427 10.7557L16.5 11.2733V16.5983L15.7665 17.6085L14.4 16.6388C14.2762 16.5508 14.1286 16.5024 13.9767 16.5001C13.8249 16.4979 13.6759 16.5418 13.5495 16.626L11.946 17.7L9.9585 16.7062L8.43975 13.1002C9.31465 11.2531 10.7451 9.72557 12.531 8.7315V8.7285ZM7.5 17.25C7.50135 16.5739 7.57324 15.8997 7.7145 15.2385L8.68425 17.541C8.7537 17.7058 8.87979 17.8404 9.03975 17.9205L11.6648 19.233C11.7828 19.2919 11.9143 19.3186 12.046 19.3105C12.1777 19.3023 12.3049 19.2595 12.4147 19.1865L13.9537 18.1605L15.501 19.2607C15.6535 19.3683 15.8408 19.4147 16.0258 19.3907C16.2108 19.3666 16.3801 19.274 16.5 19.131V26.9715C15.8576 26.9214 15.2217 26.8076 14.6017 26.6317L15.7073 23.4998C15.7461 23.3899 15.7587 23.2725 15.7443 23.1569C15.7298 23.0413 15.6887 22.9307 15.624 22.8337L14.124 20.5837C14.0341 20.4487 13.9028 20.3465 13.7499 20.2924C13.5969 20.2383 13.4306 20.2353 13.2758 20.2838L11.1847 20.94L10.107 19.7475C10.019 19.6501 9.9069 19.5774 9.78199 19.5369C9.65709 19.4964 9.52373 19.4893 9.39525 19.5165L7.857 19.8412C7.62147 18.9976 7.50137 18.1259 7.5 17.25ZM9.28275 21.075L10.3935 22.305C10.4896 22.4114 10.6143 22.4881 10.7527 22.5258C10.8911 22.5636 11.0374 22.5609 11.1742 22.518L13.188 21.8865L14.1683 23.3565L13.2 26.1075C11.0643 25.1241 9.35358 23.4052 8.3805 21.2648L9.28275 21.075Z" fill="#003A79"/>
</svg>
