<svg width="48" height="48" viewBox="0 0 48 48" fill="none" xmlns="http://www.w3.org/2000/svg">
<path d="M24 7.2C14.7216 7.2 7.2 14.7216 7.2 24C7.2 33.2784 14.7216 40.8 24 40.8C33.2784 40.8 40.8 33.2784 40.8 24C40.7894 14.726 33.274 7.21058 24 7.2ZM10.8456 31.5824C11.1616 31.4349 11.4669 31.2655 11.7592 31.0752C12.3678 30.6196 13.1119 30.3817 13.872 30.4C14.6314 30.3816 15.3747 30.62 15.9816 31.0768C16.8432 31.6969 17.8827 32.0208 18.944 32C20.0027 32.0203 21.0394 31.6966 21.8984 31.0776C23.1567 30.1757 24.8497 30.1757 26.108 31.0776C27.8888 32.3105 30.2472 32.3105 32.028 31.0776C33.287 30.1756 34.9801 30.174 36.2408 31.0736C36.5333 31.2647 36.8391 31.4345 37.156 31.5816C36.8353 32.134 36.4802 32.6657 36.0928 33.1736C35.4735 32.9146 34.8071 32.7874 34.136 32.8C33.0753 32.7799 32.0366 33.1044 31.176 33.7248C29.9177 34.6267 28.2247 34.6267 26.9664 33.7248C25.1856 32.4919 22.8272 32.4919 21.0464 33.7248C19.788 34.6262 18.0952 34.6262 16.8368 33.7248C15.9747 33.1036 14.9343 32.7791 13.872 32.8C13.1988 32.7872 12.5302 32.9144 11.9088 33.1736C11.5214 32.666 11.1663 32.1345 10.8456 31.5824ZM24 39.2C19.8534 39.1991 15.8884 37.498 13.0304 34.4936C13.3064 34.4301 13.5888 34.3987 13.872 34.4C14.6314 34.3816 15.3747 34.62 15.9816 35.0768C16.8432 35.6969 17.8827 36.0208 18.944 36C20.0027 36.0203 21.0394 35.6966 21.8984 35.0776C23.1567 34.1757 24.8497 34.1757 26.108 35.0776C27.8888 36.3105 30.2472 36.3105 32.028 35.0776C32.6343 34.6208 33.3771 34.382 34.136 34.4C34.417 34.3983 34.6973 34.4292 34.9712 34.492C32.1131 37.4975 28.1475 39.1992 24 39.2ZM37.8864 30.1536C37.6096 30.0316 37.3436 29.8866 37.0912 29.72C35.3086 28.4913 32.9518 28.4932 31.1712 29.7248C29.9129 30.6267 28.2199 30.6267 26.9616 29.7248C25.1808 28.4919 22.8224 28.4919 21.0416 29.7248C19.7832 30.6262 18.0904 30.6262 16.832 29.7248C15.9713 29.1046 14.9327 28.7801 13.872 28.8C12.8119 28.7798 11.7736 29.1028 10.912 29.7208C10.6598 29.8871 10.3941 30.0319 10.1176 30.1536C7.27989 23.7786 9.14737 16.2903 14.6463 11.9943C20.1452 7.69835 27.8628 7.69835 33.3617 11.9943C38.8606 16.2903 40.7281 23.7786 37.8904 30.1536H37.8864Z" fill="white"/>
<path d="M46.56 20.016L44.32 19.5688C43.799 17.1486 42.8444 14.8427 41.5024 12.7624L42.7656 10.8672C42.853 10.7356 42.8998 10.5812 42.9 10.4232C42.9 10.1832 42.8072 8.8672 40.9688 7.0296C39.1304 5.192 37.8192 5.0984 37.5752 5.0984C37.4172 5.09836 37.2627 5.14513 37.1312 5.2328L35.2376 6.496C33.1573 5.15486 30.8517 4.20085 28.432 3.68L27.984 1.44C27.9531 1.28517 27.8771 1.14293 27.7656 1.0312C27.5928 0.8616 26.6 0 24 0C21.4 0 20.4072 0.8616 20.2344 1.0344C20.1229 1.14613 20.0469 1.28837 20.016 1.4432L19.568 3.68C17.1483 4.20085 14.8427 5.15486 12.7624 6.496L10.8672 5.2328C10.7357 5.14513 10.5812 5.09836 10.4232 5.0984C10.1832 5.0984 8.868 5.1912 7.0296 7.0296C5.1912 8.868 5.0984 10.1792 5.0984 10.4232C5.09865 10.5812 5.14539 10.7356 5.2328 10.8672L6.496 12.7624C5.15452 14.8428 4.20049 17.1487 3.68 19.5688L1.44 20.016C1.28502 20.0465 1.14267 20.1225 1.0312 20.2344C0.8616 20.4072 0 21.4 0 24C0 26.6 0.8616 27.5928 1.0344 27.7656C1.14587 27.8775 1.28822 27.9535 1.4432 27.984L3.6784 28.4312C4.19939 30.8514 5.15396 33.1573 6.496 35.2376L5.2328 37.1328C5.14539 37.2644 5.09865 37.4188 5.0984 37.5768C5.0984 37.8208 5.1912 39.1328 7.0296 40.9704C8.868 42.808 10.1792 42.9016 10.4232 42.9016C10.5812 42.9016 10.7357 42.8549 10.8672 42.7672L12.7624 41.504C14.8427 42.8451 17.1483 43.7991 19.568 44.32L20.016 46.5552C20.0469 46.71 20.1229 46.8523 20.2344 46.964C20.4072 47.1384 21.4 48 24 48C26.6 48 27.5928 47.1384 27.7656 46.9656C27.8771 46.8539 27.9531 46.7116 27.984 46.5568L28.432 44.3216C30.8518 43.8003 33.1574 42.8457 35.2376 41.504L37.1328 42.7672C37.2643 42.8549 37.4188 42.9016 37.5768 42.9016C37.8208 42.9016 39.132 42.8088 40.9704 40.9704C42.8088 39.132 42.9016 37.8208 42.9016 37.5768C42.9014 37.4188 42.8546 37.2644 42.7672 37.1328L41.504 35.2376C42.8455 33.1572 43.7995 30.8513 44.32 28.4312L46.56 27.984C46.715 27.9535 46.8573 27.8775 46.9688 27.7656C47.1384 27.5928 48 26.6 48 24C48 21.4 47.1384 20.4072 46.9656 20.2344C46.855 20.1231 46.7138 20.047 46.56 20.016ZM45.9272 26.48L43.4864 26.968C43.167 27.032 42.9183 27.2832 42.8576 27.6032C42.3726 30.1785 41.3599 32.6255 39.8832 34.7904C39.6995 35.0597 39.6976 35.4135 39.8784 35.6848L41.2568 37.7536C40.9624 38.5545 40.4759 39.271 39.84 39.84C39.272 40.4751 38.5582 40.9627 37.76 41.2608L35.68 39.8784C35.4089 39.6974 35.0551 39.699 34.7856 39.8824C32.6214 41.3594 30.1749 42.3724 27.6 42.8576C27.28 42.9183 27.0288 43.167 26.9648 43.4864L26.4768 45.9272C25.7023 46.2851 24.8519 46.4475 24 46.4C23.1475 46.4473 22.2964 46.2864 21.52 45.9312L21.0312 43.4864C20.9672 43.167 20.716 42.9183 20.396 42.8576C17.8209 42.3725 15.3741 41.3595 13.2096 39.8824C12.9401 39.699 12.5863 39.6974 12.3152 39.8784L10.248 41.2576C9.44639 40.9632 8.72938 40.4764 8.16 39.84C7.52497 39.2721 7.03763 38.5582 6.74 37.76L8.1208 35.688C8.30157 35.4167 8.29968 35.0629 8.116 34.7936C6.63877 32.6268 5.62631 30.1775 5.1424 27.6C5.08165 27.28 4.83296 27.0288 4.5136 26.9648L2.0728 26.48C1.71421 25.7046 1.55184 24.8529 1.6 24C1.55271 23.1475 1.71361 22.2964 2.0688 21.52L4.5136 21.032C4.83296 20.968 5.08165 20.7168 5.1424 20.3968C5.6274 17.8215 6.6401 15.3745 8.1168 13.2096C8.30047 12.9403 8.30237 12.5865 8.1216 12.3152L6.7432 10.248C7.03735 9.44648 7.52387 8.72947 8.16 8.16C8.72796 7.52485 9.44178 7.03726 10.24 6.7392L12.312 8.1208C12.5823 8.30302 12.9361 8.30302 13.2064 8.1208C15.3727 6.64167 17.8221 5.62754 20.4 5.1424C20.72 5.08165 20.9712 4.83296 21.0352 4.5136L21.5232 2.0728C22.2977 1.71489 23.1481 1.55254 24 1.6C24.8525 1.55271 25.7036 1.71361 26.48 2.0688L26.9688 4.5136C27.0328 4.83296 27.284 5.08165 27.604 5.1424C30.1791 5.62752 32.6259 6.64051 34.7904 8.1176C35.0607 8.29982 35.4145 8.29982 35.6848 8.1176L37.752 6.7424C38.5536 7.03677 39.2706 7.52357 39.84 8.16C40.475 8.7279 40.9624 9.44176 41.26 10.24L39.8784 12.32C39.6976 12.5913 39.6995 12.9451 39.8832 13.2144C41.3597 15.3788 42.3724 17.8253 42.8576 20.4C42.9183 20.72 43.167 20.9712 43.4864 21.0352L45.9272 21.5232C46.2853 22.2976 46.4476 23.1481 46.4 24C46.4482 24.8529 46.2858 25.7046 45.9272 26.48Z" fill="white"/>
<path d="M24.976 10.7712C24.4179 10.2802 23.5821 10.2802 23.024 10.7712C21.3928 12.2112 17.6 16.04 17.6 20.5312C17.5992 22.3458 18.3205 24.0861 19.6048 25.368C20.7693 26.5368 22.3501 27.1957 24 27.2H24.08C27.65 27.0664 30.4582 24.1032 30.4 20.5312C30.4 16.0424 26.6072 12.2104 24.976 10.7712ZM24.0592 25.6C22.8091 25.6134 21.6071 25.1185 20.7288 24.2288C19.7481 23.2481 19.198 21.9173 19.2 20.5304C19.2 16.6744 22.768 13.1472 24 12.0448C25.232 13.1472 28.8 16.6768 28.8 20.5312C28.8618 23.2292 26.7553 25.4814 24.0592 25.6Z" fill="white"/>
<path d="M23.9712 22.4C23.0959 22.3912 22.3929 21.6754 22.4 20.8C22.4 20.3582 22.0418 20 21.6 20C21.1582 20 20.8 20.3582 20.8 20.8C20.7938 22.5586 22.2126 23.9903 23.9712 24H24C24.2106 23.9994 24.4122 23.9144 24.5597 23.7641C24.7071 23.6137 24.7882 23.4106 24.7848 23.2C24.7787 22.7554 24.4158 22.3986 23.9712 22.4Z" fill="white"/>
</svg>
