<svg width="26" height="35" viewBox="0 0 26 35" fill="none" xmlns="http://www.w3.org/2000/svg">
<path fill-rule="evenodd" clip-rule="evenodd" d="M6.50371 31.42L6.76713 31.8861C6.7674 31.8866 6.76761 31.887 6.76789 31.8875C7.08182 32.4467 6.88259 33.1603 6.32752 33.4744L5.16266 34.1357C5.16211 34.136 5.16156 34.1363 5.16101 34.1366C4.60263 34.451 3.89022 34.2515 3.57656 33.6952L0.151137 27.6327C-0.165698 27.0728 0.0335399 26.3585 0.589433 26.044L1.75567 25.3826L1.75615 25.3824C2.3117 25.0681 3.02446 25.2655 3.34081 25.822L3.3415 25.8232L3.54143 26.177L6.47024 24.4786C7.42288 23.9268 8.39802 23.576 9.44432 23.9164C10.4208 24.2336 12.0148 24.9182 13.6418 25.2127C13.6662 25.2171 13.6902 25.2231 13.7138 25.2308C14.6094 25.5212 15.1507 26.43 14.9062 27.3409C14.8984 27.3699 14.8901 27.3985 14.8813 27.4267C14.9508 27.3954 15.0197 27.3598 15.0881 27.3199L19.2416 24.8969C20.8129 23.9799 21.8633 24.1025 22.4563 24.5009C22.9844 24.8559 23.2319 25.4605 23.2162 26.0554C23.2002 26.6578 22.9094 27.231 22.4377 27.5219L14.9011 32.1697C14.0745 32.6807 13.1691 32.8012 12.2311 32.5505L12.2305 32.5504L6.98424 31.1421L6.50371 31.42ZM4.08531 27.1397L5.95989 30.4574L6.63021 30.0697C6.75698 29.9963 6.90771 29.9765 7.04918 30.0144L12.5158 31.4819C13.1499 31.6513 13.7624 31.5739 14.3211 31.2285L14.3217 31.2282L21.8587 26.5802C22.0318 26.4734 22.1065 26.2471 22.1123 26.026C22.1308 25.3324 21.4293 24.9003 19.7974 25.8526L15.644 28.2755C14.9491 28.6811 14.2209 28.7942 13.4271 28.6677C13.4265 28.6676 13.4258 28.6675 13.4252 28.6674L12.9105 28.5835C12.9102 28.5834 12.91 28.5834 12.9098 28.5833C12.9023 28.5822 12.8949 28.5808 12.8875 28.5793C12.8872 28.5792 12.8869 28.5791 12.8867 28.5791C11.9467 28.3858 11.0748 28.1016 10.1074 27.8411C9.81312 27.7619 9.63838 27.4583 9.71747 27.1636C9.79656 26.8688 10.0997 26.6939 10.394 26.7731C11.3312 27.0253 12.1762 27.3022 13.0857 27.491C13.4671 27.5312 13.7519 27.3821 13.8398 27.0539L13.8398 27.0537C13.928 26.7255 13.7199 26.4108 13.4035 26.2934C11.736 25.9849 10.1048 25.2935 9.1036 24.9684L9.10333 24.9683C8.36628 24.7286 7.69417 25.0472 7.02309 25.436L4.08531 27.1397ZM2.3812 26.3692L2.38078 26.3684C2.36408 26.3401 2.32778 26.3292 2.29921 26.3454L1.13346 27.0065L1.13297 27.0067C1.10482 27.0226 1.09571 27.059 1.11172 27.0873L1.11192 27.0876L4.53748 33.1504L4.53776 33.1509C4.55391 33.1795 4.5909 33.1887 4.61968 33.1726L5.78301 32.5121L5.78377 32.5117C5.81241 32.4956 5.82152 32.4585 5.80544 32.4296L2.3812 26.3692ZM2.06519 26.9377C2.32958 26.8983 2.57505 27.0811 2.61439 27.3459C2.65214 27.6108 2.4696 27.8582 2.20522 27.8961C1.94083 27.9355 1.69535 27.7511 1.65602 27.4863C1.61827 27.2214 1.8008 26.9756 2.06519 26.9377ZM16.1255 0.196246C18.0536 2.48021 20.9108 5.48495 22.89 8.57235C24.2637 10.715 25.2101 12.9042 25.2101 14.9297C25.2101 20.1871 20.9531 24.4511 15.7043 24.4511C10.4539 24.4511 6.19847 20.1871 6.19847 14.9297C6.19847 12.9043 7.14469 10.7151 8.51811 8.57235C10.4971 5.48495 13.3541 2.48014 15.2832 0.196177C15.388 0.0720285 15.542 0.000414749 15.7043 0.000483874C15.8667 0.000483874 16.0208 0.0720976 16.1255 0.196246ZM15.7042 1.40331C13.8235 3.58649 11.2594 6.34106 9.44653 9.16939C8.19906 11.1156 7.30177 13.09 7.30177 14.9297C7.30177 19.577 11.0633 23.3461 15.7043 23.3461C20.3439 23.3461 24.1069 19.577 24.1069 14.9297C24.1069 13.09 23.2094 11.1156 21.9617 9.16946C20.1485 6.34113 17.5842 3.58656 15.7042 1.40331ZM17.2701 9.10759C17.6388 9.21681 17.9947 9.36453 18.3329 9.54875L19.0144 9.24522C19.2232 9.15225 19.4676 9.19766 19.6291 9.35948L20.7349 10.467C20.8962 10.6286 20.9416 10.873 20.8492 11.082L20.5472 11.7649C20.7314 12.104 20.879 12.4612 20.9881 12.8318L21.6831 13.0996C21.8963 13.1818 22.0369 13.387 22.0369 13.6157V15.1823C22.0369 15.4111 21.8963 15.6163 21.6831 15.6985L20.9878 15.9664C20.8785 16.3358 20.7304 16.6924 20.5469 17.031L20.8492 17.7145C20.9416 17.9235 20.8962 18.1679 20.7349 18.3295L19.6291 19.437C19.4678 19.5987 19.2238 19.6442 19.0151 19.5516L18.3336 19.2492C17.9958 19.4335 17.639 19.5814 17.2699 19.6906L17.0023 20.3868C16.9203 20.6003 16.7155 20.7412 16.4871 20.7412H14.9231C14.6947 20.7412 14.4899 20.6003 14.4078 20.3868L14.1403 19.6907C13.7706 19.5812 13.4142 19.4328 13.0759 19.2488L12.3935 19.5516C12.1848 19.6442 11.9408 19.5987 11.7795 19.437L10.6738 18.3295C10.5122 18.1677 10.4669 17.9229 10.5597 17.7138L10.8626 17.0315C10.6787 16.6933 10.5311 16.3362 10.4214 15.9667L9.72554 15.6985C9.51236 15.6163 9.37172 15.4111 9.37172 15.1823V13.6157C9.37172 13.387 9.51236 13.1818 9.72554 13.0996L10.4212 12.8315C10.531 12.4611 10.6787 12.1042 10.8627 11.7654L10.5597 11.0827C10.4669 10.8736 10.5122 10.6288 10.6738 10.467L11.7795 9.35948C11.941 9.19766 12.1854 9.15225 12.3942 9.24522L13.0757 9.54882C13.414 9.36446 13.7701 9.21667 14.139 9.10745L14.408 8.40922C14.4901 8.19597 14.6948 8.0553 14.9231 8.0553H16.4871C16.7156 8.0553 16.9205 8.19631 17.0025 8.40998L17.2701 9.10759ZM16.3403 9.76746L16.1078 9.1613H15.3018L15.068 9.76815C15.0025 9.9382 14.8576 10.065 14.6805 10.1071C14.2275 10.215 13.7954 10.3943 13.3982 10.6394C13.2431 10.7351 13.0508 10.7481 12.8843 10.6739L12.2921 10.4102L11.7228 10.9805L11.986 11.5736C12.0601 11.7404 12.0472 11.933 11.9516 12.0884C11.7066 12.4866 11.5275 12.9199 11.4183 13.3757C11.3759 13.5526 11.2493 13.6973 11.0798 13.7627L10.4759 13.9954V14.8026L11.0798 15.0354C11.2492 15.1007 11.3758 15.2453 11.4182 15.4221C11.5274 15.8762 11.7063 16.3107 11.9511 16.7074C12.0471 16.8629 12.0602 17.0558 11.986 17.2229L11.7228 17.8161L12.2925 18.3868L12.885 18.1239C13.0509 18.0502 13.2423 18.063 13.397 18.1579C13.7945 18.4019 14.2269 18.5829 14.6818 18.6909C14.8592 18.733 15.0043 18.86 15.0698 19.0304L15.3021 19.6352H16.108L16.3404 19.0304C16.4059 18.8601 16.5508 18.7331 16.728 18.691C17.1808 18.5832 17.6141 18.4041 18.0096 18.1591C18.1646 18.0632 18.357 18.05 18.5236 18.1239L19.1161 18.3868L19.6863 17.8156L19.4238 17.2222C19.3503 17.056 19.363 16.8643 19.4578 16.7093C19.7014 16.3111 19.8822 15.8779 19.99 15.4236C20.0321 15.2462 20.1589 15.101 20.3288 15.0354L20.9327 14.8026V13.9954L20.3288 13.7627C20.1587 13.6971 20.0319 13.5517 19.9899 13.3741C19.8823 12.9189 19.7033 12.4862 19.4586 12.0884C19.3632 11.9333 19.3501 11.741 19.4238 11.5743L19.6863 10.9809L19.1165 10.4102L18.5243 10.6739C18.3578 10.7481 18.1655 10.7351 18.0104 10.6394C17.6132 10.3943 17.1811 10.215 16.728 10.1071C16.5507 10.0649 16.4056 9.93779 16.3403 9.76746ZM15.7043 11.1128C17.5166 11.1128 18.9859 12.583 18.9859 14.3982C18.9859 16.2135 17.5165 17.6853 15.7043 17.6853C13.892 17.6853 12.4242 16.2135 12.4242 14.3982C12.4242 12.5829 13.8919 11.1128 15.7043 11.1128ZM15.7043 12.2188C14.502 12.2188 13.5284 13.194 13.5284 14.3982C13.5284 15.6026 14.5019 16.5793 15.7043 16.5793C16.9067 16.5793 17.8817 15.6027 17.8817 14.3982C17.8817 13.1939 16.9067 12.2188 15.7043 12.2188ZM4.23907 8.49203C1.90584 8.49203 0 6.5859 0 4.24602C0 1.90903 1.90584 0 4.23907 0C6.57514 0 8.47815 1.90903 8.47815 4.24602C8.47815 6.5859 6.57514 8.49203 4.23907 8.49203ZM4.23907 7.38603C5.96666 7.38603 7.37395 5.97643 7.37395 4.24602C7.37395 2.51775 5.96666 1.106 4.23907 1.106C2.51363 1.106 1.10419 2.51775 1.10419 4.24602C1.10419 5.97643 2.51363 7.38603 4.23907 7.38603ZM2.11667 4.7413C1.90122 4.52549 1.90122 4.17502 2.11667 3.95922C2.33213 3.74341 2.68202 3.74341 2.89748 3.95922L3.5366 4.59938L5.60262 2.72208C5.82829 2.51699 6.17776 2.53406 6.38245 2.7601C6.58721 2.98614 6.57017 3.33619 6.3445 3.54122L3.88898 5.77244C3.6709 5.97062 3.33584 5.96246 3.12763 5.75391L2.11667 4.7413Z" fill="white"/>
</svg>
