<svg width="37" height="32" viewBox="0 0 37 32" fill="none" xmlns="http://www.w3.org/2000/svg">
<path d="M36.2162 20.6003C36.2053 20.5634 36.1944 20.5278 36.1769 20.4939C36.1594 20.4601 36.1376 20.4311 36.1141 20.4009C36.0899 20.3695 36.0657 20.3405 36.0355 20.3145C36.0077 20.2903 35.9769 20.2716 35.9443 20.2529C35.908 20.2317 35.8724 20.2136 35.8325 20.2003C35.8168 20.1949 35.8053 20.184 35.789 20.1798C34.5825 19.8843 33.321 20.2215 32.4117 21.0806C31.5006 21.9524 29.9612 21.9554 29.0435 21.0776C28.3596 20.4329 27.4666 20.0783 26.529 20.0783C25.5913 20.0783 24.6983 20.4335 24.0114 21.0806C23.1009 21.9524 21.5603 21.9554 20.6438 21.0776C19.9599 20.4335 19.0639 20.0783 18.1208 20.0783C17.1831 20.0783 16.2901 20.4335 15.5996 21.0842C14.7109 21.947 13.1563 21.9596 12.235 21.0776C11.5511 20.4335 10.6581 20.0783 9.72044 20.0783C8.7731 20.0783 7.87894 20.4341 7.20288 21.0806C6.28877 21.956 4.73969 21.9518 3.82679 21.0776C3.14287 20.4335 2.24992 20.0783 1.31225 20.0783C1.01681 20.0783 0.729229 20.1127 0.457354 20.181C0.44225 20.1846 0.430771 20.1955 0.416271 20.2003C0.375792 20.2136 0.339542 20.2323 0.303292 20.2541C0.271271 20.2728 0.240458 20.2909 0.212667 20.3151C0.183063 20.3411 0.1595 20.3701 0.134729 20.4015C0.111167 20.4317 0.0888125 20.4607 0.0718958 20.4951C0.054375 20.529 0.0441042 20.564 0.0332292 20.6009C0.02175 20.6407 0.0120834 20.6788 0.00906256 20.7211C0.00785423 20.7368 0 20.7507 0 20.767V31.2922C0 31.6263 0.270667 31.8964 0.604167 31.8964H35.6458C35.9793 31.8964 36.25 31.6263 36.25 31.2922V20.767C36.25 20.7501 36.2415 20.7356 36.2403 20.7193C36.2367 20.6776 36.2276 20.6395 36.2162 20.6003ZM2.99485 21.9542C3.67575 22.6061 4.57294 22.9656 5.52087 22.9656C6.46337 22.9656 7.35754 22.6061 8.03844 21.9542C8.93381 21.0981 10.4883 21.0908 11.403 21.9542C12.0839 22.6061 12.9781 22.9656 13.9206 22.9656C14.8728 22.9656 15.7681 22.6049 16.4351 21.9572C17.3553 21.0884 18.9044 21.0987 19.8112 21.9542C20.4921 22.6061 21.3863 22.9656 22.3288 22.9656C23.2713 22.9656 24.1655 22.6061 24.8433 21.9572C25.7605 21.0927 27.2999 21.0963 28.211 21.9542C28.8919 22.6061 29.786 22.9656 30.7285 22.9656C31.671 22.9656 32.5652 22.6061 33.2437 21.9566C33.7355 21.492 34.3837 21.2612 35.0411 21.2926V25.8613C34.0786 25.8299 33.1337 26.1749 32.4141 26.8552C31.4849 27.7294 29.9715 27.7306 29.0429 26.8552C28.3596 26.2112 27.4666 25.8559 26.5284 25.8559C25.5901 25.8559 24.6971 26.2112 24.0138 26.8552C23.0852 27.7306 21.5718 27.7306 20.6426 26.8552C19.9599 26.2112 19.0633 25.8559 18.1196 25.8559C17.1813 25.8559 16.2877 26.2112 15.602 26.8582C14.6958 27.7246 13.1672 27.7349 12.2344 26.8552C11.5517 26.2112 10.6587 25.8559 9.71983 25.8559C8.7719 25.8559 7.87773 26.2118 7.20529 26.8552C6.27246 27.7343 4.74996 27.7264 3.82619 26.8552C3.14348 26.2112 2.24992 25.8559 1.31165 25.8559C1.276 25.8559 1.24277 25.8607 1.20773 25.862V21.2993C1.24398 21.2975 1.27479 21.2872 1.31165 21.2872C1.93998 21.2872 2.53931 21.5252 2.99485 21.9542ZM1.20833 30.688V27.0763C1.24458 27.0745 1.27479 27.0642 1.31225 27.0642C1.94119 27.0642 2.53992 27.3023 2.99787 27.7343C3.68723 28.3837 4.58321 28.742 5.52087 28.742C6.4525 28.742 7.34606 28.3837 8.03844 27.7312C8.9326 26.8757 10.4847 26.8643 11.4061 27.7343C12.0954 28.3837 12.9884 28.742 13.9206 28.742C14.8625 28.742 15.7567 28.3831 16.4351 27.7343C17.3553 26.8655 18.9026 26.8727 19.8149 27.7343C20.5042 28.3837 21.3972 28.742 22.3294 28.742C23.2616 28.742 24.1546 28.3837 24.8439 27.7343C25.7605 26.8691 27.2981 26.8691 28.2152 27.7343C28.9045 28.3837 29.7975 28.742 30.7297 28.742C31.662 28.742 32.5543 28.3843 33.2449 27.7337C33.7373 27.2691 34.3843 27.0365 35.0423 27.0691V30.688H1.20833Z" fill="white"/>
<path d="M21.2328 1.42462C20.5459 0.518979 19.5007 0 18.3642 0C17.2278 0 16.182 0.518979 15.495 1.42462L8.21603 11.0224C7.38409 12.119 7.24755 13.5666 7.86018 14.7997C8.4728 16.0328 9.70832 16.7989 11.0852 16.7989H25.6432C27.0201 16.7989 28.2556 16.0328 28.8683 14.7997C29.4803 13.5666 29.3443 12.119 28.5124 11.0224L21.2328 1.42462ZM27.7856 14.262C27.3723 15.0933 26.5718 15.5899 25.6432 15.5899H11.0852C10.1566 15.5899 9.35549 15.0933 8.94285 14.262C8.5296 13.43 8.61841 12.4917 9.17968 11.7529L16.4587 2.15506C16.9148 1.55331 17.6096 1.20833 18.3648 1.20833C19.12 1.20833 19.8142 1.55331 20.2704 2.15506L27.5494 11.7529C28.1106 12.4924 28.1982 13.43 27.7856 14.262Z" fill="white"/>
<path d="M18.3636 3.17549C16.9306 3.17549 15.7651 4.34153 15.7651 5.77401C15.7651 6.96422 17.4846 10.2865 17.829 10.9402C17.9335 11.139 18.1395 11.2629 18.3636 11.2629C18.5878 11.2629 18.7932 11.139 18.8983 10.9402C19.2427 10.2865 20.9622 6.96422 20.9622 5.77401C20.9622 4.34153 19.7967 3.17549 18.3636 3.17549ZM18.3636 9.32289C17.6749 7.91639 16.9735 6.29178 16.9735 5.77401C16.9735 5.00732 17.597 4.38382 18.3636 4.38382C19.1303 4.38382 19.7538 5.00732 19.7538 5.77401C19.7538 6.29118 19.0524 7.91578 18.3636 9.32289Z" fill="white"/>
<path d="M18.3637 11.5136C17.4471 11.5136 16.7022 12.2585 16.7022 13.175C16.7022 14.0916 17.4471 14.8365 18.3637 14.8365C19.2802 14.8365 20.0251 14.0916 20.0251 13.175C20.0251 12.2585 19.2802 11.5136 18.3637 11.5136ZM18.3637 13.6282C18.1135 13.6282 17.9105 13.4246 17.9105 13.175C17.9105 12.9255 18.1135 12.7219 18.3637 12.7219C18.6138 12.7219 18.8168 12.9255 18.8168 13.175C18.8168 13.4246 18.6138 13.6282 18.3637 13.6282Z" fill="white"/>
</svg>
