<svg width="37" height="34" viewBox="0 0 37 34" fill="none" xmlns="http://www.w3.org/2000/svg">
<path d="M34.6875 0H2.3125C1.69919 0 1.11099 0.238809 0.677316 0.663891C0.243638 1.08897 0 1.66551 0 2.26667V24.9333C0 25.5345 0.243638 26.111 0.677316 26.5361C1.11099 26.9612 1.69919 27.2 2.3125 27.2H13.6189L12.3019 30.6414C11.6164 30.7384 10.9894 31.0739 10.5353 31.5864C10.0812 32.099 9.83016 32.7545 9.82812 33.4333C9.82812 33.5836 9.88903 33.7278 9.99745 33.834C10.1059 33.9403 10.2529 34 10.4062 34H26.5938C26.7471 34 26.8941 33.9403 27.0025 33.834C27.111 33.7278 27.1719 33.5836 27.1719 33.4333C27.1698 32.7545 26.9188 32.099 26.4647 31.5864C26.0106 31.0739 25.3836 30.7384 24.6981 30.6414L23.3811 27.2H34.6875C35.3008 27.2 35.889 26.9612 36.3227 26.5361C36.7564 26.111 37 25.5345 37 24.9333V2.26667C37 1.66551 36.7564 1.08897 36.3227 0.663891C35.889 0.238809 35.3008 0 34.6875 0ZM25.9168 32.8667H11.0832C11.2032 32.5354 11.4248 32.2487 11.7177 32.0458C12.0105 31.8429 12.3602 31.7338 12.7188 31.7333H24.2812C24.6398 31.7338 24.9895 31.8429 25.2823 32.0458C25.5752 32.2487 25.7968 32.5354 25.9168 32.8667ZM23.447 30.6H13.553L14.8538 27.2H22.1462L23.447 30.6ZM35.8438 24.9333C35.8438 25.2339 35.7219 25.5222 35.5051 25.7347C35.2883 25.9473 34.9942 26.0667 34.6875 26.0667H2.3125C2.00584 26.0667 1.71175 25.9473 1.49491 25.7347C1.27807 25.5222 1.15625 25.2339 1.15625 24.9333V2.26667C1.15625 1.96609 1.27807 1.67782 1.49491 1.46528C1.71175 1.25274 2.00584 1.13333 2.3125 1.13333H34.6875C34.9942 1.13333 35.2883 1.25274 35.5051 1.46528C35.7219 1.67782 35.8438 1.96609 35.8438 2.26667V24.9333Z" fill="white"/>
<path d="M34.1094 2.26667H2.89062C2.7373 2.26667 2.59025 2.32637 2.48183 2.43264C2.37341 2.53891 2.3125 2.68304 2.3125 2.83333V23.2333C2.3125 23.3836 2.37341 23.5278 2.48183 23.634C2.59025 23.7403 2.7373 23.8 2.89062 23.8H34.1094C34.2627 23.8 34.4098 23.7403 34.5182 23.634C34.6266 23.5278 34.6875 23.3836 34.6875 23.2333V2.83333C34.6875 2.68304 34.6266 2.53891 34.5182 2.43264C34.4098 2.32637 34.2627 2.26667 34.1094 2.26667ZM33.5312 22.6667H3.46875V3.4H33.5312V22.6667Z" fill="white"/>
<path d="M31.7969 7.36667H27.1719C27.0185 7.36667 26.8715 7.42637 26.7631 7.53264C26.6547 7.63891 26.5938 7.78304 26.5938 7.93333C26.5938 8.08362 26.6547 8.22776 26.7631 8.33403C26.8715 8.4403 27.0185 8.5 27.1719 8.5H31.7969C31.9502 8.5 32.0973 8.4403 32.2057 8.33403C32.3141 8.22776 32.375 8.08362 32.375 7.93333C32.375 7.78304 32.3141 7.63891 32.2057 7.53264C32.0973 7.42637 31.9502 7.36667 31.7969 7.36667Z" fill="white"/>
<path d="M31.7969 10.2H27.1719C27.0185 10.2 26.8715 10.2597 26.7631 10.366C26.6547 10.4722 26.5938 10.6164 26.5938 10.7667C26.5938 10.917 26.6547 11.0611 26.7631 11.1674C26.8715 11.2736 27.0185 11.3333 27.1719 11.3333H31.7969C31.9502 11.3333 32.0973 11.2736 32.2057 11.1674C32.3141 11.0611 32.375 10.917 32.375 10.7667C32.375 10.6164 32.3141 10.4722 32.2057 10.366C32.0973 10.2597 31.9502 10.2 31.7969 10.2Z" fill="white"/>
<path d="M31.7969 13.0333H27.1719C27.0185 13.0333 26.8715 13.093 26.7631 13.1993C26.6547 13.3056 26.5938 13.4497 26.5938 13.6C26.5938 13.7503 26.6547 13.8944 26.7631 14.0007C26.8715 14.107 27.0185 14.1667 27.1719 14.1667H31.7969C31.9502 14.1667 32.0973 14.107 32.2057 14.0007C32.3141 13.8944 32.375 13.7503 32.375 13.6C32.375 13.4497 32.3141 13.3056 32.2057 13.1993C32.0973 13.093 31.9502 13.0333 31.7969 13.0333Z" fill="white"/>
<path d="M31.7969 15.8667H27.1719C27.0185 15.8667 26.8715 15.9264 26.7631 16.0326C26.6547 16.1389 26.5938 16.283 26.5938 16.4333C26.5938 16.5836 26.6547 16.7278 26.7631 16.834C26.8715 16.9403 27.0185 17 27.1719 17H31.7969C31.9502 17 32.0973 16.9403 32.2057 16.834C32.3141 16.7278 32.375 16.5836 32.375 16.4333C32.375 16.283 32.3141 16.1389 32.2057 16.0326C32.0973 15.9264 31.9502 15.8667 31.7969 15.8667Z" fill="white"/>
<path d="M31.7969 18.7H27.1719C27.0185 18.7 26.8715 18.7597 26.7631 18.866C26.6547 18.9722 26.5938 19.1164 26.5938 19.2667C26.5938 19.417 26.6547 19.5611 26.7631 19.6674C26.8715 19.7736 27.0185 19.8333 27.1719 19.8333H31.7969C31.9502 19.8333 32.0973 19.7736 32.2057 19.6674C32.3141 19.5611 32.375 19.417 32.375 19.2667C32.375 19.1164 32.3141 18.9722 32.2057 18.866C32.0973 18.7597 31.9502 18.7 31.7969 18.7Z" fill="white"/>
<path d="M24.8594 8.5C25.1787 8.5 25.4375 8.24629 25.4375 7.93333C25.4375 7.62037 25.1787 7.36667 24.8594 7.36667C24.5401 7.36667 24.2812 7.62037 24.2812 7.93333C24.2812 8.24629 24.5401 8.5 24.8594 8.5Z" fill="white"/>
<path d="M24.8594 11.3333C25.1787 11.3333 25.4375 11.0796 25.4375 10.7667C25.4375 10.4537 25.1787 10.2 24.8594 10.2C24.5401 10.2 24.2812 10.4537 24.2812 10.7667C24.2812 11.0796 24.5401 11.3333 24.8594 11.3333Z" fill="white"/>
<path d="M24.8594 14.1667C25.1787 14.1667 25.4375 13.913 25.4375 13.6C25.4375 13.287 25.1787 13.0333 24.8594 13.0333C24.5401 13.0333 24.2812 13.287 24.2812 13.6C24.2812 13.913 24.5401 14.1667 24.8594 14.1667Z" fill="white"/>
<path d="M24.8594 17C25.1787 17 25.4375 16.7463 25.4375 16.4333C25.4375 16.1204 25.1787 15.8667 24.8594 15.8667C24.5401 15.8667 24.2812 16.1204 24.2812 16.4333C24.2812 16.7463 24.5401 17 24.8594 17Z" fill="white"/>
<path d="M24.8594 19.8333C25.1787 19.8333 25.4375 19.5796 25.4375 19.2667C25.4375 18.9537 25.1787 18.7 24.8594 18.7C24.5401 18.7 24.2812 18.9537 24.2812 19.2667C24.2812 19.5796 24.5401 19.8333 24.8594 19.8333Z" fill="white"/>
<path d="M13.2969 21.5333C14.8716 21.5343 16.4168 21.1149 17.7666 20.3199C19.1164 19.525 20.2198 18.3847 20.9582 17.0214C21.6967 15.6582 22.0423 14.1235 21.9579 12.5822C21.8736 11.041 21.3625 9.55134 20.4795 8.27333L23.9014 5.66667H31.7969C31.9502 5.66667 32.0973 5.60696 32.2057 5.50069C32.3141 5.39442 32.375 5.25029 32.375 5.1C32.375 4.94971 32.3141 4.80558 32.2057 4.69931C32.0973 4.59304 31.9502 4.53333 31.7969 4.53333H23.7031C23.5746 4.53322 23.4497 4.57509 23.3482 4.65233L19.7609 7.38707C18.7985 6.32871 17.5811 5.52329 16.2198 5.04425C14.8584 4.56521 13.3964 4.42778 11.967 4.64448C10.5375 4.86119 9.18619 5.42514 8.03611 6.28492C6.88602 7.1447 5.97378 8.27297 5.38254 9.56687C4.79131 10.8608 4.53988 12.2791 4.65119 13.6927C4.7625 15.1062 5.233 16.47 6.01981 17.6596C6.80661 18.8493 7.88468 19.827 9.15575 20.5036C10.4268 21.1802 11.8505 21.5342 13.2969 21.5333ZM13.875 11.4376C14.2129 11.553 14.5059 11.7686 14.7131 12.0546C14.9204 12.3405 15.0318 12.6826 15.0318 13.0333C15.0318 13.3841 14.9204 13.7262 14.7131 14.0121C14.5059 14.298 14.2129 14.5137 13.875 14.6291V11.4376ZM13.875 15.81C14.5284 15.6799 15.1159 15.3325 15.5379 14.8264C15.9599 14.3204 16.1904 13.6869 16.1904 13.0333C16.1904 12.3798 15.9599 11.7463 15.5379 11.2403C15.1159 10.7342 14.5284 10.3867 13.875 10.2567V8.5391C14.9923 8.67631 16.0201 9.2087 16.7652 10.0363C17.5103 10.8638 17.9215 11.9296 17.9215 13.0333C17.9215 14.1371 17.5103 15.2028 16.7652 16.0304C16.0201 16.858 14.9923 17.3904 13.875 17.5276V15.81ZM13.875 18.6717C15.3012 18.5314 16.6233 17.8768 17.5848 16.8349C18.5464 15.7931 19.0788 14.4382 19.0788 13.0333C19.0788 11.6284 18.5464 10.2736 17.5848 9.23175C16.6233 8.1899 15.3012 7.53532 13.875 7.395V5.695C15.7628 5.83498 17.527 6.66886 18.8143 8.02964C20.1015 9.39041 20.8168 11.1776 20.8168 13.0333C20.8168 14.889 20.1015 16.6763 18.8143 18.037C17.527 19.3978 15.7628 20.2317 13.875 20.3717V18.6717ZM12.7188 5.6882V7.3491L11.5931 7.07313L10.7531 6.1064C11.3861 5.8807 12.0473 5.74002 12.7188 5.6882ZM9.65931 6.59487L10.8335 7.94467C10.9116 8.03436 11.0163 8.09795 11.133 8.12657L12.7188 8.51757V12.5409L12.1533 13.3042L11.1 12.5715C11.0046 12.505 10.8908 12.4685 10.7737 12.4668C10.6567 12.4651 10.5418 12.4982 10.4444 12.5619L9.20837 13.3733L7.67634 12.6225L6.50564 9.89797C7.18004 8.50231 8.28269 7.34821 9.65931 6.59713V6.59487ZM5.78125 13.0333C5.78229 12.5225 5.83771 12.0131 5.94659 11.5135L6.69411 13.2532C6.74765 13.3778 6.84483 13.4794 6.96814 13.5399L8.99158 14.5316C9.08258 14.5761 9.18395 14.5963 9.28545 14.5901C9.38696 14.584 9.48501 14.5516 9.5697 14.4965L10.756 13.7213L11.9487 14.5526C12.0662 14.6339 12.2106 14.6689 12.3532 14.6507C12.4959 14.6326 12.6263 14.5625 12.7188 14.4545V20.3785C12.2235 20.3406 11.7334 20.2546 11.2555 20.1218L12.1077 17.7554C12.1376 17.6724 12.1474 17.5837 12.1362 17.4963C12.1251 17.409 12.0933 17.3254 12.0435 17.2522L10.8873 15.5522C10.8179 15.4502 10.7167 15.3729 10.5988 15.3321C10.481 15.2912 10.3527 15.2889 10.2334 15.3255L8.62158 15.8213L7.79081 14.9203C7.72296 14.8467 7.63657 14.7918 7.54029 14.7612C7.444 14.7306 7.34121 14.7253 7.24217 14.7458L6.05644 14.9912C5.87488 14.3537 5.78231 13.6951 5.78125 13.0333ZM7.15545 15.9233L8.01166 16.8527C8.08577 16.9331 8.18186 16.991 8.28852 17.0195C8.39519 17.048 8.50797 17.046 8.61348 17.0136L10.1657 16.5365L10.9214 17.6471L10.175 19.7257C8.5287 18.9827 7.21005 17.6839 6.45997 16.0667L7.15545 15.9233Z" fill="white"/>
</svg>
