<svg width="51" height="51" viewBox="0 0 51 51" fill="none" xmlns="http://www.w3.org/2000/svg">
<g clip-path="url(#clip0_4049_5633)">
<path d="M27.4485 34.772H23.3024C22.2222 34.772 21.2905 33.959 21.1365 32.8819L21.0613 32.2576L20.5003 32.4908C19.5107 32.9264 18.3298 32.538 17.7716 31.5743L15.6981 27.9901C15.1516 27.0146 15.4063 25.7987 16.2835 25.1499L16.7538 24.7906L16.2726 24.4231C15.4063 23.7824 15.1525 22.5665 15.6908 21.6019L17.7707 18.0068C18.3235 17.0522 19.4998 16.6557 20.5057 17.0812L21.0622 17.3163L21.1338 16.7201C21.2896 15.6221 22.2213 14.81 23.3024 14.81H27.4485C28.5288 14.81 29.4604 15.623 29.6144 16.7001L29.6888 17.3163L30.2461 17.0812C31.2511 16.6548 32.4274 17.0531 32.9793 18.0068L35.0528 21.592C35.5984 22.5674 35.3438 23.7833 34.4674 24.4321L33.9962 24.7906L34.4728 25.1544C35.3447 25.8041 35.5966 27.0173 35.0583 27.9783L32.9784 31.5734C32.4202 32.5371 31.2403 32.9291 30.2307 32.4827L29.6888 32.2576L29.6163 32.861C29.4595 33.959 28.5288 34.772 27.4485 34.772ZM22.5747 29.6633L22.9336 32.6451C22.9571 32.8111 23.1203 32.9572 23.3015 32.9572H27.4476C27.6298 32.9572 27.792 32.8111 27.8192 32.6251L28.1753 29.6633L30.9448 30.8148C31.1306 30.8965 31.3137 30.8321 31.4115 30.6642L33.4841 27.0818C33.5748 26.9184 33.5394 26.7206 33.3899 26.609L33.379 26.6017L31.0055 24.7906L33.379 22.9794C33.5385 22.8614 33.5748 22.6627 33.4769 22.4885L31.4106 18.9151C31.3128 18.7463 31.1233 18.6792 30.9503 18.7518L28.1762 19.9241L27.8173 16.9361C27.792 16.7673 27.6325 16.6239 27.4485 16.6239H23.3024C23.1175 16.6239 22.958 16.7673 22.9308 16.9569L22.5738 19.9251L19.8007 18.7527C19.6258 18.6774 19.4373 18.7463 19.3394 18.9169L17.2668 22.5003C17.1762 22.6627 17.2124 22.8614 17.361 22.9721L19.7445 24.7906L17.371 26.6017C17.2115 26.7197 17.1753 26.9184 17.2731 27.0927L19.3394 30.6651C19.4354 30.8312 19.6194 30.8956 19.7862 30.823L22.5747 29.6633Z" fill="white"/>
<path d="M25.375 29.1007C23.0015 29.1007 21.0703 27.1671 21.0703 24.7906C21.0703 22.4141 23.0015 20.4804 25.375 20.4804C27.7485 20.4804 29.6797 22.4141 29.6797 24.7906C29.6797 27.1671 27.7485 29.1007 25.375 29.1007ZM25.375 22.2952C24.0002 22.2952 22.8828 23.414 22.8828 24.7906C22.8828 26.1671 24.0002 27.2859 25.375 27.2859C26.7498 27.2859 27.8672 26.1671 27.8672 24.7906C27.8672 23.414 26.7498 22.2952 25.375 22.2952Z" fill="white"/>
<path d="M16.4385 38.2565C16.2563 38.2565 16.0733 38.2011 15.9128 38.0877C11.6236 35.0252 9.0625 30.0544 9.0625 24.7906C9.0625 20.2862 10.9412 15.9461 14.2172 12.8845C14.5834 12.5433 15.1579 12.5624 15.4987 12.928C15.8403 13.2946 15.8204 13.869 15.4552 14.2111C12.5443 16.9315 10.875 20.7871 10.875 24.7906C10.875 29.4692 13.1515 33.8873 16.9659 36.6095C17.3737 36.8999 17.468 37.467 17.178 37.8754C17.0003 38.124 16.7221 38.2565 16.4385 38.2565Z" fill="white"/>
<path d="M33.659 38.7011C33.3591 38.7011 33.0663 38.5523 32.8932 38.281C32.625 37.8581 32.7492 37.2973 33.1715 37.0278C37.3692 34.3537 39.875 29.7795 39.875 24.7906C39.875 20.7871 38.2057 16.9315 35.2957 14.2111C34.9305 13.869 34.9106 13.2946 35.2522 12.928C35.5939 12.5615 36.1675 12.5424 36.5337 12.8845C39.8088 15.9461 41.6875 20.2862 41.6875 24.7906C41.6875 30.4038 38.8682 35.5497 34.1448 38.5595C33.9943 38.6548 33.8258 38.7011 33.659 38.7011Z" fill="white"/>
<path d="M12.2607 40.7337C12.0495 40.7337 11.8365 40.6602 11.6643 40.5096C7.13128 36.5406 4.53125 30.8121 4.53125 24.7906C4.53125 19.2708 6.65822 14.0696 10.5188 10.1432C10.8705 9.7857 11.4441 9.78207 11.8003 10.1332C12.1573 10.4853 12.161 11.0597 11.8103 11.4163C8.28494 15.0006 6.34375 19.7508 6.34375 24.7906C6.34375 30.2885 8.71813 35.5197 12.8579 39.143C13.2349 39.4724 13.2729 40.0459 12.944 40.4234C12.7645 40.6293 12.5135 40.7337 12.2607 40.7337Z" fill="white"/>
<path d="M37.6284 41.4505C37.3593 41.4505 37.0928 41.3308 36.9134 41.1012C36.6053 40.7065 36.675 40.1366 37.0693 39.8281C41.7319 36.1821 44.4062 30.7014 44.4062 24.7906C44.4062 19.7472 42.4614 14.9978 38.9307 11.4181C38.5791 11.0615 38.5827 10.4871 38.9388 10.135C39.295 9.78297 39.8687 9.78569 40.2203 10.1432C44.0882 14.065 46.2188 19.2672 46.2188 24.7906C46.2188 31.264 43.2907 37.2656 38.1858 41.2582C38.0199 41.3879 37.8233 41.4505 37.6284 41.4505Z" fill="white"/>
<path d="M8.20156 43.1475C7.97228 43.1475 7.74209 43.0604 7.56537 42.8861C2.68703 38.0705 0 31.6434 0 24.7906C0 18.2972 2.44325 12.1251 6.88025 7.40837C7.22281 7.04269 7.79828 7.02726 8.16169 7.37026C8.526 7.71417 8.54322 8.28856 8.19975 8.65333C4.08084 13.0307 1.8125 18.7618 1.8125 24.7906C1.8125 31.1543 4.30741 37.1214 8.83775 41.5949C9.19391 41.947 9.19753 42.5214 8.84681 42.878C8.66919 43.0576 8.43538 43.1475 8.20156 43.1475Z" fill="white"/>
<path d="M41.48 44.1274C41.2271 44.1274 40.9752 44.0221 40.7967 43.8162C40.4677 43.4378 40.5076 42.8643 40.8846 42.5358C46.0022 38.0723 48.9375 31.6043 48.9375 24.7906C48.9375 18.7618 46.6692 13.0306 42.5503 8.65235C42.2077 8.28757 42.224 7.71318 42.5883 7.36927C42.9517 7.02627 43.5263 7.0417 43.8698 7.40738C48.3068 12.125 50.75 18.2972 50.75 24.7906C50.75 32.1297 47.5881 39.0958 42.0745 43.9033C41.9023 44.0539 41.6902 44.1274 41.48 44.1274Z" fill="white"/>
</g>
<defs>
<clipPath id="clip0_4049_5633">
<path d="M0 25.375C0 11.3608 11.3608 0 25.375 0C39.3892 0 50.75 11.3608 50.75 25.375C50.75 39.3892 39.3892 50.75 25.375 50.75C11.3608 50.75 0 39.3892 0 25.375Z" fill="white"/>
</clipPath>
</defs>
</svg>
