<svg width="38" height="38" viewBox="0 0 38 38" fill="none" xmlns="http://www.w3.org/2000/svg">
<path d="M16.0316 0C17.278 0 18.3734 0.646989 19.0002 1.6234C19.6271 0.646962 20.7226 0 21.969 0H34.8769V2.78691H38V30.5751H36.1446V34.289H38V38H10.0936V36.8867H36.8867V35.4023L5.01191 35.4024V35.3498C3.63888 35.0886 2.59824 33.8801 2.59824 32.432C2.59824 30.7937 3.93017 29.4615 5.56854 29.4615H36.1446V29.4618H36.8867V27.9775H5.5684C1.59059 27.9775 -0.362801 32.8001 2.41885 35.5817C3.22573 36.3886 4.33863 36.8867 5.5684 36.8867H8.97372V38H5.5684C4.05536 38 2.68221 37.3953 1.67914 36.4158L1.63166 36.3689C-0.92009 33.8172 -0.287274 29.8846 2.20432 27.9775H0.00061103V7.60644H1.11388V26.8642H36.8867V3.9002H34.8769V23.6283H21.969C20.8668 23.6283 19.9363 24.3676 19.6493 25.3783L19.5344 25.7829H18.4662L18.3513 25.3783C18.0642 24.3676 17.1338 23.6283 16.0316 23.6283H3.1237V3.9002H1.11388V6.38929H0.00061103V2.78691H3.1237V0H16.0316ZM30.9497 32.077V33.1903H29.7994V32.077H30.9497ZM33.1339 32.077V33.1903H32.0382V32.077H33.1339ZM4.23697 22.515H16.0316C16.9651 22.515 17.8134 22.8775 18.4437 23.4694V20.8455C13.8087 20.5583 10.1384 16.7083 10.1384 12.0009C10.1384 7.30291 13.794 3.45875 18.4158 3.15779C18.2387 2.00016 17.2387 1.11329 16.0316 1.11329H4.23697V22.515ZM19.2527 5.98724C23.4861 8.13612 23.608 14.1082 19.5574 16.4488V18.1389H18.4442V16.4489C14.4151 14.1205 14.4908 8.14664 18.7491 5.98717L19.001 5.85939L19.2527 5.98724ZM19.0006 7.11676C15.9908 8.85918 15.8192 13.0694 18.4442 15.11V11.3008H19.5574V15.11C22.1926 13.0636 21.997 8.85391 19.0006 7.11676ZM3.7115 32.432C3.71151 33.4554 4.54504 34.289 5.56854 34.289H35.0313V30.5748H5.56854C4.54503 30.5748 3.7115 31.4085 3.7115 32.432ZM11.2516 12.0009C11.2517 16.2804 14.7209 19.7496 19.0003 19.7496C23.2797 19.7496 26.7489 16.2804 26.749 12.0009C26.749 7.72134 23.2798 4.25208 19.0003 4.25208C14.7209 4.25209 11.2516 7.72135 11.2516 12.0009ZM27.8622 12.0009C27.8622 16.7083 24.1919 20.5583 19.5569 20.8455V23.4694C20.1873 22.8775 21.0356 22.515 21.969 22.515H33.7636V1.11329H21.969C20.762 1.11329 19.7617 2.00016 19.5847 3.15779C24.2066 3.45867 27.8622 7.30285 27.8622 12.0009Z" fill="white"/>
</svg>
