<svg width="33" height="36" viewBox="0 0 33 36" fill="none" xmlns="http://www.w3.org/2000/svg">
<path fill-rule="evenodd" clip-rule="evenodd" d="M10.0939 14.1353H4.98759C4.57523 14.1353 4.35317 14.6409 4.65432 14.9428C4.82927 15.1182 5.03515 15.0822 5.28971 15.0822H10.094C10.5063 15.0822 10.7284 14.5765 10.4272 14.2746C10.3415 14.1886 10.2235 14.1352 10.094 14.1352L10.0939 14.1353ZM13.7091 25.7216C13.2107 26.3893 12.6754 26.8254 12.0161 27.0417C11.1985 27.3099 10.2288 27.2196 8.93762 26.7933L7.76434 26.3425C5.93125 25.618 4.01308 24.8599 1.7182 25.0322C0.198396 27.6699 0.648954 31.0087 2.79098 33.156C5.41411 35.7856 9.66738 35.7856 12.2905 33.156C14.2259 31.2158 14.8072 28.2676 13.7091 25.7217V25.7216ZM2.29631 24.1851C2.77937 23.5818 3.36458 23.0632 4.02597 22.6553C5.09042 21.9988 5.70088 20.905 5.70088 19.6517V15.9067H9.38053V19.6517C9.38053 20.9051 9.99091 21.9988 11.0554 22.6553C11.9644 23.2158 12.7295 23.9856 13.2831 24.8968C12.8129 25.6194 12.3401 26.0697 11.7623 26.2592C11.1208 26.4697 10.3101 26.3823 9.19345 26.0137L8.06316 25.5762C6.31276 24.8843 4.48813 24.1633 2.29638 24.1853L2.29631 24.1851ZM4.12917 28.3743C4.47053 28.7165 4.47053 29.2716 4.12917 29.6138C3.58005 30.1642 2.63677 29.7727 2.63677 28.994C2.63677 28.2153 3.58013 27.8239 4.12917 28.3742V28.3743ZM3.51092 27.2932C5.0171 27.2932 5.77704 29.1275 4.71056 30.1967C3.64423 31.2657 1.81422 30.504 1.81422 28.9941C1.81422 28.0549 2.57394 27.2933 3.51085 27.2933L3.51092 27.2932ZM8.33869 31.339C8.57356 31.5744 8.57356 31.9565 8.33869 32.1919C7.96101 32.5705 7.31168 32.3015 7.31168 31.7654C7.31168 31.2294 7.96093 30.9603 8.33869 31.339ZM7.91323 30.3379C9.17742 30.3379 9.81521 31.8775 8.92009 32.7748C8.02504 33.672 6.48921 33.0326 6.48921 31.7654C6.48921 30.9772 7.12692 30.3379 7.91323 30.3379ZM12.0654 29.0328C12.2287 29.1965 12.2287 29.4623 12.0654 29.6259C11.8029 29.8891 11.3513 29.7023 11.3513 29.3294C11.3513 28.9565 11.8029 28.7697 12.0654 29.0328ZM11.7696 28.0856C12.871 28.0856 13.4268 29.427 12.6469 30.2088C11.8669 30.9906 10.5289 30.4335 10.5289 29.3293C10.5289 28.6425 11.0845 28.0856 11.7696 28.0856ZM29.5658 27.0068C29.1536 26.9561 28.7938 27.0506 28.4661 27.3036L28.5878 27.8621C29.0114 27.8941 29.3909 27.788 29.7415 27.5464L29.5658 27.0068ZM28.5865 16.541C26.985 15.6219 24.942 16.1783 24.025 17.784C23.1082 19.3895 23.6632 21.4375 25.2649 22.3567C26.8665 23.2758 28.9095 22.7194 29.8265 21.1137C30.7433 19.5082 30.1883 17.4602 28.5865 16.541ZM25.8335 15.4203C28.0524 14.8156 30.3411 16.1295 30.9443 18.3538C31.5475 20.5782 30.2369 22.8726 28.018 23.4772C25.7991 24.0819 23.5103 22.7681 22.9072 20.5437C22.304 18.3193 23.6146 16.025 25.8335 15.4203ZM27.69 18.0161C27.4638 18.0036 27.2905 17.8097 27.3029 17.5829C27.3153 17.3562 27.5088 17.1824 27.735 17.1948C28.7473 17.2513 29.4791 18.194 29.2922 19.1887C29.2505 19.412 29.0362 19.559 28.8135 19.5172C28.5909 19.4754 28.4442 19.2606 28.4859 19.0374C28.5814 18.5293 28.2065 18.045 27.6901 18.016L27.69 18.0161ZM30.0351 34.5038C30.1994 35.2579 31.3238 35.4507 31.7628 34.6939C31.8764 34.4982 31.9172 34.2679 31.8574 34.0476L30.0037 28.3522C29.6216 28.5718 29.2076 28.6863 28.7686 28.6917C29.1908 30.6291 29.613 32.5665 30.0351 34.5038ZM25.5379 14.3716C29.6996 13.235 33.571 17.4405 31.7246 21.5906C31.2396 22.6807 30.3907 23.5991 29.2877 24.1538C28.9328 24.3323 28.753 24.7329 28.8569 25.116L29.1451 26.1788C28.8893 26.2019 28.6428 26.2682 28.4105 26.3773L28.1229 25.3165C28.0193 24.9344 27.6617 24.6778 27.2671 24.7039C26.034 24.7855 24.8374 24.4246 23.8689 23.7309C22.9194 23.0509 22.1889 22.0493 21.8583 20.8301C21.0977 18.0256 22.75 15.1329 25.5379 14.3716H25.5379ZM6.85678 5.4664H9.36675C10.214 5.4664 10.906 4.77276 10.906 3.92341V1.40726L6.85678 5.4664ZM11.7284 0.824359H26.5332C27.3805 0.824359 28.0724 1.518 28.0724 2.36735V13.4686C25.5206 12.9747 22.9371 14.1788 21.6549 16.4241C20.1062 19.1359 20.8547 22.5826 23.3934 24.4008C24.5125 25.2024 25.8946 25.6195 27.3185 25.5253C27.3232 25.525 27.3262 25.5253 27.3275 25.5262L27.6978 26.8909C27.6196 26.9849 27.5838 27.1128 27.6116 27.2417L28.0724 29.3564V30.3483C28.0724 31.1977 27.3805 31.8913 26.5332 31.8913H14.2264C16.0725 28.3519 14.8325 24.017 11.4859 21.9531C10.6591 21.4432 10.203 20.6245 10.203 19.6516V15.9019C10.5162 15.8755 10.7983 15.7364 11.0086 15.5256C11.8271 14.7052 11.2357 13.3107 10.0939 13.3107H6.27531V6.29075H9.36668C10.6679 6.29075 11.7283 5.22772 11.7283 3.92333L11.7284 0.824359ZM11.0229 0.124187C11.1011 0.0438545 11.2076 -0.000741446 11.3217 9.328e-06H26.5332C27.8345 -6.57494e-05 28.8949 1.06303 28.8949 2.36743V13.6888C29.2591 13.8143 29.6102 13.9739 29.9432 14.1651C32.6469 15.7167 33.743 19.0714 32.4731 21.9257C31.5009 24.1109 29.6624 24.8626 29.6489 24.8929L30.0187 26.2584C30.1459 26.3039 30.2392 26.4081 30.2749 26.5326L32.648 33.8328C32.9041 34.7774 32.2433 35.7545 31.3085 35.9593C30.3984 36.1586 29.4349 35.6088 29.2321 34.6779L28.5549 31.5704C28.1349 32.2656 27.3787 32.716 26.5333 32.716H13.727C11.0435 36.5692 5.53402 37.0716 2.20958 33.739C-0.166335 31.3572 -0.693658 27.6699 0.956989 24.712C1.58707 23.5829 2.49732 22.6306 3.59555 21.9533C4.4223 21.4434 4.87848 20.6246 4.87848 19.6518V15.9022C3.79514 15.8107 3.28857 14.4781 4.07285 13.6919C4.49982 13.2639 4.92102 13.3109 5.45291 13.3109V5.87872C5.45366 5.7652 5.49642 5.66385 5.57708 5.58359L11.0229 0.124187ZM23.2012 3.57174H26.2915C26.5186 3.57174 26.7027 3.3872 26.7027 3.15949C26.7027 2.93178 26.5187 2.74724 26.2915 2.74724H23.2012C22.9741 2.74724 22.7899 2.93178 22.7899 3.15949C22.7899 3.3872 22.974 3.57174 23.2012 3.57174ZM13.5092 3.57174H21.2472C21.4743 3.57174 21.6585 3.3872 21.6585 3.15949C21.6585 2.93178 21.4744 2.74724 21.2472 2.74724H13.5092C13.2821 2.74724 13.0979 2.93178 13.0979 3.15949C13.0979 3.3872 13.282 3.57174 13.5092 3.57174ZM13.5092 6.22408H26.2915C26.5186 6.22408 26.7027 6.03954 26.7027 5.81183C26.7027 5.58412 26.5187 5.39958 26.2915 5.39958H13.5092C13.2821 5.39958 13.0979 5.58412 13.0979 5.81183C13.0979 6.03954 13.282 6.22408 13.5092 6.22408ZM19.6703 8.87641H25.8117C26.0387 8.87641 26.2229 8.69187 26.2229 8.46416C26.2229 8.23645 26.0388 8.05191 25.8117 8.05191H19.6703C19.4433 8.05191 19.2591 8.23645 19.2591 8.46416C19.2591 8.69187 19.4432 8.87641 19.6703 8.87641ZM8.53589 8.87641H17.7164C17.9435 8.87641 18.1276 8.69187 18.1276 8.46416C18.1276 8.23645 17.9435 8.05191 17.7164 8.05191H8.53589C8.30881 8.05191 8.12465 8.23645 8.12465 8.46416C8.12465 8.69187 8.30874 8.87641 8.53589 8.87641ZM14.3648 11.5287H24.9785C25.2056 11.5287 25.3897 11.3442 25.3897 11.1165C25.3897 10.8888 25.2056 10.7042 24.9785 10.7042H14.3648C14.1378 10.7042 13.9536 10.8888 13.9536 11.1165C13.9536 11.3442 14.1377 11.5287 14.3648 11.5287ZM9.36908 11.5287H12.4109C12.6379 11.5287 12.8221 11.3442 12.8221 11.1165C12.8221 10.8888 12.638 10.7042 12.4109 10.7042H9.36908C9.142 10.7042 8.95784 10.8888 8.95784 11.1165C8.95784 11.3442 9.14192 11.5287 9.36908 11.5287ZM12.3 14.1811H22.0475C22.2745 14.1811 22.4587 13.9965 22.4587 13.7688C22.4587 13.5411 22.2746 13.3566 22.0475 13.3566H12.3C12.0729 13.3566 11.8888 13.5411 11.8888 13.7688C11.8888 13.9965 12.0729 14.1811 12.3 14.1811Z" fill="white"/>
</svg>
